<?xml version="1.0" encoding="utf-8"?>
<!-- Generator: Adobe Illustrator 16.0.0, SVG Export Plug-In . SVG Version: 6.00 Build 0)  -->
<!DOCTYPE svg PUBLIC "-//W3C//DTD SVG 1.1//EN" "http://www.w3.org/Graphics/SVG/1.1/DTD/svg11.dtd">
<svg version="1.1" xmlns="http://www.w3.org/2000/svg" xmlns:xlink="http://www.w3.org/1999/xlink" x="0px" y="0px" width="200px"
	 height="200px" viewBox="0 0 200 200" enable-background="new 0 0 200 200" xml:space="preserve">
<g id="Arriere-Plan">
	<rect fill="#FFFFFF" width="200" height="200"/>
</g>
<g id="Fond">
	<linearGradient id="SVGID_1_" gradientUnits="userSpaceOnUse" x1="-7.2217" y1="19.6768" x2="193.1594" y2="169.7889">
		<stop  offset="0" style="stop-color:#62B283"/>
		<stop  offset="0.1351" style="stop-color:#5FAA7C"/>
		<stop  offset="0.3166" style="stop-color:#589B6D"/>
		<stop  offset="0.5244" style="stop-color:#4C8256"/>
		<stop  offset="0.7519" style="stop-color:#3A633A"/>
		<stop  offset="0.9929" style="stop-color:#24411D"/>
		<stop  offset="1" style="stop-color:#23401C"/>
	</linearGradient>
	<rect x="4" y="4" fill="url(#SVGID_1_)" width="192" height="192"/>
</g>
<g id="Texte">
	<g>
		<path fill="#FFFFFF" d="M100,50.278c10.006,0,36.34,4.92,36.34,45.358s-26.334,45.358-36.34,45.358
			c-10.007,0-36.339-4.92-36.339-45.358S89.993,50.278,100,50.278z M100,125.756c8.531,0,20.539-6,20.539-30.119
			S108.531,65.518,100,65.518c-8.532,0-20.54,6-20.54,30.119S91.468,125.756,100,125.756z"/>
	</g>
	<g>
		<path fill="#FFFFFF" d="M181.424,24.449h-5.581v-2.601h5.581V24.449z"/>
		<path fill="#FFFFFF" d="M182.643,19.568c0-4.621,3.381-5.021,4.641-5.021c2.721,0,4.881,1.601,4.881,4.481
			c0,2.44-1.58,3.681-2.96,4.621c-1.88,1.32-2.86,1.96-3.181,2.621h6.161v2.48h-9.702c0.1-1.66,0.221-3.401,3.301-5.641
			c2.561-1.86,3.58-2.581,3.58-4.181c0-0.94-0.6-2.021-1.96-2.021c-1.96,0-2.021,1.621-2.04,2.661H182.643z"/>
	</g>
	<g>
		<path fill="#FFFFFF" d="M181.424,44.449h-5.581v-2.601h5.581V44.449z"/>
		<path fill="#FFFFFF" d="M183.343,37.007h0.399c2.701,0,3.422-1.4,3.481-2.46h2.3V48.75h-2.8v-9.782h-3.381V37.007z"/>
	</g>
	<g>
	</g>
	<g>
		<path fill="#FFFFFF" d="M15.501,162.816c-4.82,0-6.479-3.57-6.479-6.48c0-1.079,0-3.899,2.844-5.399
			c-1.475-0.84-2.265-2.189-2.265-4.17c0-3.63,2.555-5.819,5.82-5.819c3.872,0,5.926,2.609,5.926,5.55c0,1.83-0.659,3.39-2.16,4.289
			c1.791,1.021,2.792,2.37,2.792,5.13C21.98,158.616,20.453,162.816,15.501,162.816z M15.449,152.767c-1.343,0-2.634,0.99-2.634,3.3
			c0,2.04,1.027,3.39,2.713,3.39c1.922,0,2.66-1.89,2.66-3.359C18.188,154.597,17.503,152.767,15.449,152.767z M17.819,146.946
			c0-1.619-0.975-2.64-2.16-2.64c-1.659,0-2.528,1.08-2.528,2.64c0,1.261,0.816,2.641,2.397,2.641
			C16.976,149.587,17.819,148.477,17.819,146.946z"/>
	</g>
	<g>
	</g>
	<g>
	</g>
	<g>
	</g>
	<g>
		<path fill="#FFFFFF" d="M13.935,17.741h0.351c2.369,0,3.001-1.4,3.054-2.46h2.018v14.203H16.9v-9.782h-2.965V17.741z"/>
		<path fill="#FFFFFF" d="M24.045,20.962c0.456-0.36,1.018-0.78,2.229-0.78c1.667,0,3.773,1.32,3.773,4.581
			c0,1.94-0.86,5.101-4.527,5.101c-1.948,0-3.931-1.32-4.054-4.181h2.457c0.105,1.16,0.649,1.94,1.737,1.94
			c1.176,0,1.86-1.14,1.86-2.661c0-1.26-0.526-2.541-1.825-2.541c-0.333,0-1.176,0.02-1.649,1.02l-2.193-0.12l0.86-7.802h6.843v2.36
			h-5.071L24.045,20.962z"/>
		<path fill="#FFFFFF" d="M33.63,29.484h-2.632v-2.92h2.632V29.484z"/>
		<path fill="#FFFFFF" d="M37.089,26.203v0.02c0.14,0.98,0.684,1.4,1.438,1.4c1.018,0,2.036-0.98,2.053-3.961l-0.035-0.04
			c-0.562,0.96-1.526,1.2-2.369,1.2c-2.387,0-3.773-2.061-3.773-4.441c0-3.48,1.808-5.101,4.247-5.101
			c4.317,0,4.387,5.301,4.387,7.302c0,5.501-2.281,7.281-4.527,7.281c-2.123,0-3.649-1.4-3.86-3.661H37.089z M38.704,22.583
			c0.86,0,1.807-0.7,1.807-2.381c0-1.62-0.614-2.62-1.877-2.62c-0.632,0-1.772,0.36-1.772,2.4
			C36.861,22.123,37.773,22.583,38.704,22.583z"/>
		<path fill="#FFFFFF" d="M45.972,26.203v0.02c0.14,0.98,0.684,1.4,1.438,1.4c1.018,0,2.036-0.98,2.053-3.961l-0.035-0.04
			c-0.562,0.96-1.526,1.2-2.369,1.2c-2.387,0-3.773-2.061-3.773-4.441c0-3.48,1.808-5.101,4.247-5.101
			c4.317,0,4.387,5.301,4.387,7.302c0,5.501-2.281,7.281-4.527,7.281c-2.123,0-3.649-1.4-3.86-3.661H45.972z M47.586,22.583
			c0.86,0,1.807-0.7,1.807-2.381c0-1.62-0.614-2.62-1.877-2.62c-0.632,0-1.772,0.36-1.772,2.4
			C45.744,22.123,46.656,22.583,47.586,22.583z"/>
		<path fill="#FFFFFF" d="M54.855,26.203v0.02c0.14,0.98,0.684,1.4,1.438,1.4c1.018,0,2.036-0.98,2.053-3.961l-0.035-0.04
			c-0.562,0.96-1.526,1.2-2.369,1.2c-2.387,0-3.773-2.061-3.773-4.441c0-3.48,1.808-5.101,4.247-5.101
			c4.317,0,4.387,5.301,4.387,7.302c0,5.501-2.281,7.281-4.527,7.281c-2.123,0-3.649-1.4-3.86-3.661H54.855z M56.469,22.583
			c0.86,0,1.807-0.7,1.807-2.381c0-1.62-0.614-2.62-1.877-2.62c-0.632,0-1.772,0.36-1.772,2.4
			C54.626,22.123,55.539,22.583,56.469,22.583z"/>
		<path fill="#FFFFFF" d="M69.756,26.343H68.37v3.141h-2.457v-3.141H61v-2.42l4.58-8.642h2.79v8.882h1.386V26.343z M65.914,24.163
			c0-3.44,0.053-5.661,0.053-6.101h-0.035l-3.124,6.101H65.914z"/>
	</g>
	<g>
		<path fill="#FFFFFF" d="M10.127,175.113c0-4.851,3.115-5.271,4.276-5.271c2.507,0,4.497,1.68,4.497,4.703
			c0,2.562-1.456,3.863-2.728,4.851c-1.733,1.385-2.636,2.057-2.931,2.75h5.677v2.604H9.979c0.092-1.742,0.203-3.569,3.041-5.921
			c2.359-1.952,3.3-2.708,3.3-4.388c0-0.987-0.553-2.121-1.807-2.121c-1.807,0-1.862,1.701-1.88,2.793H10.127z"/>
		<path fill="#FFFFFF" d="M24.468,180.236h-5.143v-2.73h5.143V180.236z"/>
		<path fill="#FFFFFF" d="M30.808,173.622c-0.074-0.84-0.553-1.428-1.511-1.428c-1.678,0-2.064,2.184-2.157,4.115l0.037,0.042
			c0.351-0.546,0.996-1.238,2.452-1.238c2.709,0,4,2.372,4,4.598c0,3.254-1.751,5.438-4.276,5.438c-3.963,0-4.737-3.779-4.737-7.495
			c0-2.835,0.332-7.811,4.866-7.811c0.535,0,2.028,0.231,2.673,0.966c0.719,0.798,0.977,1.238,1.216,2.813H30.808z M29.168,177.465
			c-0.977,0-1.973,0.692-1.973,2.561c0,1.617,0.811,2.771,2.046,2.771c0.94,0,1.807-0.818,1.807-2.834
			C31.048,178.073,29.979,177.465,29.168,177.465z"/>
	</g>
	<g>
	</g>
	<g>
	</g>
	<g>
	</g>
	<g>
	</g>
	<g>
	</g>
	<g>
	</g>
</g>
</svg>
