<?xml version="1.0" encoding="utf-8"?>
<!-- Generator: Adobe Illustrator 16.0.0, SVG Export Plug-In . SVG Version: 6.00 Build 0)  -->
<!DOCTYPE svg PUBLIC "-//W3C//DTD SVG 1.1//EN" "http://www.w3.org/Graphics/SVG/1.1/DTD/svg11.dtd">
<svg version="1.1" xmlns="http://www.w3.org/2000/svg" xmlns:xlink="http://www.w3.org/1999/xlink" x="0px" y="0px" width="200px"
	 height="200px" viewBox="0 0 200 200" enable-background="new 0 0 200 200" xml:space="preserve">
<g id="Arriere-Plan">
	<rect fill="#FFFFFF" width="200" height="200"/>
</g>
<g id="Fond">
	<linearGradient id="SVGID_1_" gradientUnits="userSpaceOnUse" x1="-7.2217" y1="19.6768" x2="193.1594" y2="169.7889">
		<stop  offset="0" style="stop-color:#62B283"/>
		<stop  offset="0.1351" style="stop-color:#5FAA7C"/>
		<stop  offset="0.3166" style="stop-color:#589B6D"/>
		<stop  offset="0.5244" style="stop-color:#4C8256"/>
		<stop  offset="0.7519" style="stop-color:#3A633A"/>
		<stop  offset="0.9929" style="stop-color:#24411D"/>
		<stop  offset="1" style="stop-color:#23401C"/>
	</linearGradient>
	<rect x="4" y="4" fill="url(#SVGID_1_)" width="192" height="192"/>
</g>
<g id="Texte">
	<g>
		<path fill="#FFFFFF" d="M93.312,138.715h-15.8V67.798H54.655V52.559h61.513v15.239H93.312V138.715z"/>
		<path fill="#FFFFFF" d="M139.551,67.318h-14.746v-15.6h14.746V67.318z M139.551,74.877v63.837h-14.746V74.877H139.551z"/>
	</g>
	<g>
		<path fill="#FFFFFF" d="M175.023,18.628h2.24v3.941h3.922v2.24h-3.922v3.941h-2.24v-3.941h-3.92v-2.24h3.92V18.628z"/>
		<path fill="#FFFFFF" d="M192.506,25.609h-1.581v3.141h-2.801v-3.141h-5.601v-2.42l5.221-8.642h3.181v8.882h1.581V25.609z
			 M188.124,23.429c0-3.44,0.06-5.661,0.06-6.101h-0.039l-3.561,6.101H188.124z"/>
	</g>
	<g>
	</g>
	<g>
	</g>
	<g>
		<path fill="#FFFFFF" d="M9.075,148.477c0-6.93,4.451-7.529,6.11-7.529c3.582,0,6.426,2.399,6.426,6.72
			c0,3.659-2.081,5.52-3.898,6.93c-2.476,1.979-3.766,2.939-4.188,3.93h8.112v3.72H8.864c0.132-2.49,0.29-5.1,4.346-8.46
			c3.371-2.79,4.714-3.869,4.714-6.27c0-1.41-0.79-3.029-2.581-3.029c-2.581,0-2.66,2.43-2.687,3.989H9.075z"/>
		<path fill="#FFFFFF" d="M23.716,148.477c0-6.93,4.451-7.529,6.11-7.529c3.582,0,6.426,2.399,6.426,6.72
			c0,3.659-2.081,5.52-3.898,6.93c-2.476,1.979-3.766,2.939-4.188,3.93h8.112v3.72H23.505c0.132-2.49,0.29-5.1,4.346-8.46
			c3.371-2.79,4.714-3.869,4.714-6.27c0-1.41-0.79-3.029-2.581-3.029c-2.581,0-2.66,2.43-2.687,3.989H23.716z"/>
	</g>
	<g>
	</g>
	<g>
	</g>
	<g>
	</g>
	<g>
		<path fill="#FFFFFF" d="M21.954,26.343h-1.386v3.141h-2.457v-3.141h-4.914v-2.42l4.58-8.642h2.79v8.882h1.386V26.343z
			 M18.111,24.163c0-3.44,0.053-5.661,0.053-6.101h-0.035l-3.124,6.101H18.111z"/>
		<path fill="#FFFFFF" d="M30.872,17.681c-1.193,1.48-4.247,5.682-4.545,11.803H23.8c0.263-5.681,3.387-10.202,4.439-11.482h-6.194
			l0.053-2.48h8.774V17.681z"/>
		<path fill="#FFFFFF" d="M30.91,29.484h-2.632v-2.92h2.632V29.484z"/>
		<path fill="#FFFFFF" d="M36.035,29.864c-3.211,0-4.317-2.38-4.317-4.321c0-0.72,0-2.601,1.895-3.601
			c-0.982-0.56-1.509-1.46-1.509-2.781c0-2.42,1.702-3.881,3.878-3.881c2.58,0,3.948,1.74,3.948,3.701
			c0,1.22-0.439,2.261-1.439,2.861c1.193,0.68,1.86,1.58,1.86,3.421C40.352,27.063,39.334,29.864,36.035,29.864z M36,23.163
			c-0.895,0-1.755,0.66-1.755,2.2c0,1.36,0.685,2.261,1.808,2.261c1.281,0,1.772-1.26,1.772-2.241
			C37.825,24.383,37.369,23.163,36,23.163z M37.579,19.282c0-1.08-0.649-1.76-1.439-1.76c-1.105,0-1.685,0.72-1.685,1.76
			c0,0.84,0.544,1.76,1.597,1.76C37.018,21.042,37.579,20.302,37.579,19.282z"/>
		<path fill="#FFFFFF" d="M44.918,29.864c-3.211,0-4.317-2.38-4.317-4.321c0-0.72,0-2.601,1.895-3.601
			c-0.982-0.56-1.509-1.46-1.509-2.781c0-2.42,1.702-3.881,3.878-3.881c2.58,0,3.948,1.74,3.948,3.701
			c0,1.22-0.439,2.261-1.439,2.861c1.193,0.68,1.86,1.58,1.86,3.421C49.234,27.063,48.217,29.864,44.918,29.864z M44.883,23.163
			c-0.895,0-1.755,0.66-1.755,2.2c0,1.36,0.685,2.261,1.808,2.261c1.281,0,1.772-1.26,1.772-2.241
			C46.708,24.383,46.251,23.163,44.883,23.163z M46.462,19.282c0-1.08-0.649-1.76-1.439-1.76c-1.105,0-1.685,0.72-1.685,1.76
			c0,0.84,0.544,1.76,1.597,1.76C45.9,21.042,46.462,20.302,46.462,19.282z"/>
	</g>
	<g>
		<path fill="#FFFFFF" d="M10.127,175.113c0-4.851,3.115-5.271,4.276-5.271c2.507,0,4.497,1.68,4.497,4.703
			c0,2.562-1.456,3.863-2.728,4.851c-1.733,1.385-2.636,2.057-2.931,2.75h5.677v2.604H9.979c0.092-1.742,0.203-3.569,3.041-5.921
			c2.359-1.952,3.3-2.708,3.3-4.388c0-0.987-0.553-2.121-1.807-2.121c-1.807,0-1.862,1.701-1.88,2.793H10.127z"/>
		<path fill="#FFFFFF" d="M24.468,180.236h-5.143v-2.73h5.143V180.236z"/>
		<path fill="#FFFFFF" d="M29.168,185.148c-3.374,0-4.535-2.498-4.535-4.535c0-0.756,0-2.729,1.991-3.779
			c-1.032-0.588-1.585-1.532-1.585-2.918c0-2.541,1.788-4.073,4.073-4.073c2.71,0,4.147,1.827,4.147,3.884
			c0,1.281-0.461,2.373-1.512,3.003c1.254,0.714,1.954,1.659,1.954,3.591C33.702,182.209,32.633,185.148,29.168,185.148z
			 M29.131,178.115c-0.94,0-1.843,0.693-1.843,2.31c0,1.428,0.719,2.372,1.898,2.372c1.346,0,1.862-1.322,1.862-2.352
			C31.048,179.396,30.568,178.115,29.131,178.115z M30.79,174.042c0-1.134-0.682-1.848-1.512-1.848c-1.161,0-1.77,0.756-1.77,1.848
			c0,0.882,0.571,1.848,1.677,1.848C30.2,175.89,30.79,175.113,30.79,174.042z"/>
		<path fill="#FFFFFF" d="M39.011,180.236h-5.143v-2.73h5.143V180.236z"/>
		<path fill="#FFFFFF" d="M39.859,172.426h0.369c2.488,0,3.152-1.471,3.207-2.583h2.12v14.907h-2.581v-10.268h-3.115V172.426z"/>
		<path fill="#FFFFFF" d="M52.024,169.843c3.079,0,4.535,2.415,4.535,7.643s-1.456,7.663-4.535,7.663
			c-3.078,0-4.534-2.436-4.534-7.663S48.946,169.843,52.024,169.843z M52.024,182.797c1.475,0,1.88-1.469,1.88-5.312
			s-0.406-5.291-1.88-5.291s-1.88,1.448-1.88,5.291S50.55,182.797,52.024,182.797z"/>
		<path fill="#FFFFFF" d="M61.868,180.236h-5.143v-2.73h5.143V180.236z"/>
		<path fill="#FFFFFF" d="M62.07,175.113c0-4.851,3.115-5.271,4.276-5.271c2.507,0,4.498,1.68,4.498,4.703
			c0,2.562-1.457,3.863-2.729,4.851c-1.732,1.385-2.636,2.057-2.931,2.75h5.677v2.604h-8.94c0.092-1.742,0.203-3.569,3.042-5.921
			c2.359-1.952,3.299-2.708,3.299-4.388c0-0.987-0.553-2.121-1.806-2.121c-1.806,0-1.862,1.701-1.88,2.793H62.07z"/>
	</g>
	<g>
	</g>
	<g>
	</g>
	<g>
	</g>
	<g>
	</g>
	<g>
	</g>
	<g>
	</g>
</g>
</svg>
