<?xml version="1.0" encoding="utf-8"?>
<!-- Generator: Adobe Illustrator 16.0.0, SVG Export Plug-In . SVG Version: 6.00 Build 0)  -->
<!DOCTYPE svg PUBLIC "-//W3C//DTD SVG 1.1//EN" "http://www.w3.org/Graphics/SVG/1.1/DTD/svg11.dtd">
<svg version="1.1" xmlns="http://www.w3.org/2000/svg" xmlns:xlink="http://www.w3.org/1999/xlink" x="0px" y="0px" width="200px"
	 height="200px" viewBox="0 0 200 200" enable-background="new 0 0 200 200" xml:space="preserve">
<g id="Arriere-Plan">
	<rect fill="#FFFFFF" width="200" height="200"/>
</g>
<g id="Fond">
	<linearGradient id="SVGID_1_" gradientUnits="userSpaceOnUse" x1="-7.2217" y1="19.6768" x2="193.1594" y2="169.7889">
		<stop  offset="0" style="stop-color:#62B283"/>
		<stop  offset="0.1351" style="stop-color:#5FAA7C"/>
		<stop  offset="0.3166" style="stop-color:#589B6D"/>
		<stop  offset="0.5244" style="stop-color:#4C8256"/>
		<stop  offset="0.7519" style="stop-color:#3A633A"/>
		<stop  offset="0.9929" style="stop-color:#24411D"/>
		<stop  offset="1" style="stop-color:#23401C"/>
	</linearGradient>
	<rect x="4" y="4" fill="url(#SVGID_1_)" width="192" height="192"/>
</g>
<g id="Texte">
	<g>
		<path fill="#FFFFFF" d="M97.367,138.715H38.276v-15.239l39.078-55.678H39.33V52.559h57.827v14.159l-39.604,56.758h39.815V138.715z
			"/>
		<path fill="#FFFFFF" d="M157.51,138.715h-14.746V99.957c0-4.68-0.211-12.6-9.584-12.6c-6.531,0-11.588,5.04-11.588,14.759v36.599
			h-14.746V74.877h14.115v9.36h0.211c2-3.84,6.213-11.04,16.852-11.04c10.955,0,19.486,7.32,19.486,21.359V138.715z"/>
	</g>
	<g>
		<path fill="#FFFFFF" d="M175.023,18.628h2.24v3.941h3.922v2.24h-3.922v3.941h-2.24v-3.941h-3.92v-2.24h3.92V18.628z"/>
		<path fill="#FFFFFF" d="M182.663,19.568c0-4.621,3.381-5.021,4.642-5.021c2.72,0,4.881,1.601,4.881,4.481
			c0,2.44-1.58,3.681-2.961,4.621c-1.881,1.32-2.861,1.96-3.181,2.621h6.161v2.48h-9.702c0.101-1.66,0.22-3.401,3.301-5.641
			c2.561-1.86,3.581-2.581,3.581-4.181c0-0.94-0.601-2.021-1.961-2.021c-1.96,0-2.02,1.621-2.04,2.661H182.663z"/>
	</g>
	<g>
	</g>
	<g>
	</g>
	<g>
		<path fill="#FFFFFF" d="M13.79,149.917h0.579c1.106,0,3.134-0.12,3.134-2.88c0-0.78-0.316-2.73-2.344-2.73
			c-2.528,0-2.528,2.73-2.528,3.48H9.207c0-3.99,1.975-6.84,6.189-6.84c2.502,0,5.794,1.439,5.794,5.939
			c0,2.16-1.185,3.51-2.239,4.05v0.06c0.659,0.21,2.818,1.32,2.818,4.95c0,4.02-2.607,6.87-6.374,6.87
			c-1.765,0-6.505-0.45-6.505-7.11h3.608l-0.026,0.03c0,1.14,0.263,3.72,2.739,3.72c1.475,0,2.766-1.14,2.766-3.51
			c0-2.91-2.476-3.03-4.188-3.03V149.917z"/>
		<path fill="#FFFFFF" d="M30.143,140.947c4.398,0,6.479,3.449,6.479,10.919s-2.081,10.95-6.479,10.95
			c-4.398,0-6.479-3.48-6.479-10.95S25.744,140.947,30.143,140.947z M30.143,159.456c2.107,0,2.686-2.1,2.686-7.59
			c0-5.489-0.579-7.56-2.686-7.56s-2.687,2.07-2.687,7.56C27.456,157.356,28.036,159.456,30.143,159.456z"/>
	</g>
	<g>
	</g>
	<g>
	</g>
	<g>
	</g>
	<g>
		<path fill="#FFFFFF" d="M19.164,18.882c-0.07-0.8-0.526-1.36-1.439-1.36c-1.597,0-1.965,2.08-2.053,3.921l0.035,0.04
			c0.333-0.52,0.948-1.18,2.334-1.18c2.58,0,3.808,2.261,3.808,4.381c0,3.101-1.667,5.181-4.071,5.181
			c-3.773,0-4.51-3.601-4.51-7.141c0-2.701,0.316-7.442,4.633-7.442c0.509,0,1.93,0.22,2.544,0.92c0.684,0.76,0.93,1.18,1.158,2.681
			H19.164z M17.602,22.542c-0.93,0-1.878,0.66-1.878,2.44c0,1.541,0.772,2.641,1.948,2.641c0.895,0,1.72-0.78,1.72-2.701
			C19.392,23.123,18.374,22.542,17.602,22.542z"/>
		<path fill="#FFFFFF" d="M24.66,20.962c0.456-0.36,1.018-0.78,2.229-0.78c1.667,0,3.773,1.32,3.773,4.581
			c0,1.94-0.86,5.101-4.527,5.101c-1.948,0-3.931-1.32-4.054-4.181h2.457c0.105,1.16,0.649,1.94,1.737,1.94
			c1.176,0,1.86-1.14,1.86-2.661c0-1.26-0.526-2.541-1.825-2.541c-0.333,0-1.176,0.02-1.649,1.02l-2.193-0.12l0.86-7.802h6.843v2.36
			h-5.071L24.66,20.962z"/>
		<path fill="#FFFFFF" d="M34.245,29.484h-2.632v-2.92h2.632V29.484z"/>
		<path fill="#FFFFFF" d="M38.23,21.262h0.386c0.737,0,2.088-0.08,2.088-1.92c0-0.52-0.21-1.82-1.562-1.82
			c-1.685,0-1.685,1.82-1.685,2.32h-2.281c0-2.661,1.316-4.561,4.124-4.561c1.667,0,3.86,0.96,3.86,3.961
			c0,1.44-0.79,2.34-1.492,2.701v0.04c0.439,0.14,1.878,0.88,1.878,3.301c0,2.68-1.737,4.581-4.247,4.581
			c-1.176,0-4.334-0.3-4.334-4.741h2.404l-0.018,0.02c0,0.76,0.175,2.48,1.825,2.48c0.983,0,1.843-0.76,1.843-2.34
			c0-1.94-1.649-2.021-2.79-2.021V21.262z"/>
		<path fill="#FFFFFF" d="M46.586,26.203v0.02c0.14,0.98,0.684,1.4,1.438,1.4c1.018,0,2.036-0.98,2.053-3.961l-0.035-0.04
			c-0.562,0.96-1.526,1.2-2.369,1.2c-2.387,0-3.773-2.061-3.773-4.441c0-3.48,1.808-5.101,4.247-5.101
			c4.317,0,4.387,5.301,4.387,7.302c0,5.501-2.281,7.281-4.527,7.281c-2.123,0-3.649-1.4-3.86-3.661H46.586z M48.201,22.583
			c0.86,0,1.807-0.7,1.807-2.381c0-1.62-0.614-2.62-1.877-2.62c-0.632,0-1.772,0.36-1.772,2.4
			C46.358,22.123,47.271,22.583,48.201,22.583z"/>
	</g>
	<g>
		<path fill="#FFFFFF" d="M10.127,175.113c0-4.851,3.115-5.271,4.276-5.271c2.507,0,4.497,1.68,4.497,4.703
			c0,2.562-1.456,3.863-2.728,4.851c-1.733,1.385-2.636,2.057-2.931,2.75h5.677v2.604H9.979c0.092-1.742,0.203-3.569,3.041-5.921
			c2.359-1.952,3.3-2.708,3.3-4.388c0-0.987-0.553-2.121-1.807-2.121c-1.807,0-1.862,1.701-1.88,2.793H10.127z"/>
		<path fill="#FFFFFF" d="M24.468,180.236h-5.143v-2.73h5.143V180.236z"/>
		<path fill="#FFFFFF" d="M29.168,185.148c-3.374,0-4.535-2.498-4.535-4.535c0-0.756,0-2.729,1.991-3.779
			c-1.032-0.588-1.585-1.532-1.585-2.918c0-2.541,1.788-4.073,4.073-4.073c2.71,0,4.147,1.827,4.147,3.884
			c0,1.281-0.461,2.373-1.512,3.003c1.254,0.714,1.954,1.659,1.954,3.591C33.702,182.209,32.633,185.148,29.168,185.148z
			 M29.131,178.115c-0.94,0-1.843,0.693-1.843,2.31c0,1.428,0.719,2.372,1.898,2.372c1.346,0,1.862-1.322,1.862-2.352
			C31.048,179.396,30.568,178.115,29.131,178.115z M30.79,174.042c0-1.134-0.682-1.848-1.512-1.848c-1.161,0-1.77,0.756-1.77,1.848
			c0,0.882,0.571,1.848,1.677,1.848C30.2,175.89,30.79,175.113,30.79,174.042z"/>
		<path fill="#FFFFFF" d="M39.011,180.236h-5.143v-2.73h5.143V180.236z"/>
		<path fill="#FFFFFF" d="M39.859,172.426h0.369c2.488,0,3.152-1.471,3.207-2.583h2.12v14.907h-2.581v-10.268h-3.115V172.426z"/>
		<path fill="#FFFFFF" d="M52.394,185.148c-3.374,0-4.535-2.498-4.535-4.535c0-0.756,0-2.729,1.991-3.779
			c-1.032-0.588-1.585-1.532-1.585-2.918c0-2.541,1.788-4.073,4.073-4.073c2.71,0,4.147,1.827,4.147,3.884
			c0,1.281-0.461,2.373-1.512,3.003c1.254,0.714,1.954,1.659,1.954,3.591C56.928,182.209,55.858,185.148,52.394,185.148z
			 M52.356,178.115c-0.94,0-1.843,0.693-1.843,2.31c0,1.428,0.719,2.372,1.898,2.372c1.346,0,1.862-1.322,1.862-2.352
			C54.273,179.396,53.794,178.115,52.356,178.115z M54.016,174.042c0-1.134-0.682-1.848-1.512-1.848c-1.161,0-1.77,0.756-1.77,1.848
			c0,0.882,0.571,1.848,1.677,1.848C53.426,175.89,54.016,175.113,54.016,174.042z"/>
		<path fill="#FFFFFF" d="M62.236,180.236h-5.143v-2.73h5.143V180.236z"/>
		<path fill="#FFFFFF" d="M62.439,175.113c0-4.851,3.115-5.271,4.276-5.271c2.507,0,4.497,1.68,4.497,4.703
			c0,2.562-1.456,3.863-2.728,4.851c-1.733,1.385-2.636,2.057-2.931,2.75h5.677v2.604h-8.939c0.092-1.742,0.203-3.569,3.041-5.921
			c2.359-1.952,3.3-2.708,3.3-4.388c0-0.987-0.553-2.121-1.807-2.121c-1.807,0-1.862,1.701-1.88,2.793H62.439z"/>
	</g>
	<g>
	</g>
	<g>
	</g>
	<g>
	</g>
	<g>
	</g>
	<g>
	</g>
	<g>
	</g>
</g>
</svg>
