<?xml version="1.0" encoding="utf-8"?>
<!-- Generator: Adobe Illustrator 16.0.0, SVG Export Plug-In . SVG Version: 6.00 Build 0)  -->
<!DOCTYPE svg PUBLIC "-//W3C//DTD SVG 1.1//EN" "http://www.w3.org/Graphics/SVG/1.1/DTD/svg11.dtd">
<svg version="1.1" xmlns="http://www.w3.org/2000/svg" xmlns:xlink="http://www.w3.org/1999/xlink" x="0px" y="0px" width="200px"
	 height="200px" viewBox="0 0 200 200" enable-background="new 0 0 200 200" xml:space="preserve">
<g id="Arriere-Plan">
	<rect fill="#FFFFFF" width="200" height="200"/>
</g>
<g id="Fond">
	<linearGradient id="SVGID_1_" gradientUnits="userSpaceOnUse" x1="-7.2217" y1="19.6768" x2="193.1594" y2="169.7889">
		<stop  offset="0" style="stop-color:#62B283"/>
		<stop  offset="0.1351" style="stop-color:#5FAA7C"/>
		<stop  offset="0.3166" style="stop-color:#589B6D"/>
		<stop  offset="0.5244" style="stop-color:#4C8256"/>
		<stop  offset="0.7519" style="stop-color:#3A633A"/>
		<stop  offset="0.9929" style="stop-color:#24411D"/>
		<stop  offset="1" style="stop-color:#23401C"/>
	</linearGradient>
	<rect x="4" y="4" fill="url(#SVGID_1_)" width="192" height="192"/>
</g>
<g id="Texte">
	<g>
		<path fill="#FFFFFF" d="M73.247,92.277h31.599v46.438H94.313l-1.58-10.8c-4.003,5.28-9.796,13.08-23.594,13.08
			c-18.223,0-34.759-14.88-34.759-45.119c0-23.399,11.375-45.598,36.76-45.598h0.211c23.173,0,32.337,17.159,33.179,29.039H88.73
			c0-3.36-5.372-14.16-16.537-14.16c-11.271,0-21.698,8.88-21.698,30.959c0,23.519,11.27,29.639,22.014,29.639
			c3.476,0,15.063-1.561,18.328-18.96h-17.59V92.277z"/>
		<path fill="#FFFFFF" d="M163.936,126.235c0,7.56,1.475,9.239,3.266,9.96v2.52h-15.904c-0.844-3-1.053-3.96-1.369-7.56
			c-3.371,3.96-8.111,9.239-18.117,9.239c-8.428,0-17.064-5.399-17.064-18.599c0-12.479,6.953-18.84,16.326-20.399l13.271-2.28
			c2.318-0.36,5.162-1.439,5.162-5.04c0-7.08-5.898-7.44-9.691-7.44c-7.373,0-8.637,5.16-9.057,8.88h-14.221
			c1.686-19.559,13.588-22.319,25.068-22.319c7.9,0,22.33,2.76,22.33,18.479V126.235z M149.506,107.636
			c-1.475,1.32-3.896,2.4-10.006,3.48c-5.479,1.08-10.008,2.64-10.008,9.6c0,5.88,4.004,7.68,6.848,7.68
			c6.529,0,13.166-4.8,13.166-12.6V107.636z"/>
	</g>
	<g>
		<path fill="#FFFFFF" d="M175.023,18.628h2.24v3.941h3.922v2.24h-3.922v3.941h-2.24v-3.941h-3.92v-2.24h3.92V18.628z"/>
		<path fill="#FFFFFF" d="M186.244,20.528h0.439c0.84,0,2.381-0.08,2.381-1.92c0-0.52-0.24-1.82-1.78-1.82
			c-1.921,0-1.921,1.82-1.921,2.32h-2.6c0-2.661,1.5-4.561,4.7-4.561c1.9,0,4.401,0.96,4.401,3.961c0,1.44-0.9,2.34-1.701,2.701
			v0.04c0.5,0.14,2.141,0.88,2.141,3.301c0,2.68-1.98,4.581-4.841,4.581c-1.34,0-4.94-0.3-4.94-4.741h2.74l-0.02,0.02
			c0,0.76,0.199,2.48,2.08,2.48c1.12,0,2.1-0.76,2.1-2.34c0-1.94-1.88-2.021-3.18-2.021V20.528z"/>
	</g>
	<g>
	</g>
	<g>
	</g>
	<g>
		<path fill="#FFFFFF" d="M13.79,149.917h0.579c1.106,0,3.134-0.12,3.134-2.88c0-0.78-0.316-2.73-2.344-2.73
			c-2.528,0-2.528,2.73-2.528,3.48H9.207c0-3.99,1.975-6.84,6.189-6.84c2.502,0,5.794,1.439,5.794,5.939
			c0,2.16-1.185,3.51-2.239,4.05v0.06c0.659,0.21,2.818,1.32,2.818,4.95c0,4.02-2.607,6.87-6.374,6.87
			c-1.765,0-6.505-0.45-6.505-7.11h3.608l-0.026,0.03c0,1.14,0.263,3.72,2.739,3.72c1.475,0,2.766-1.14,2.766-3.51
			c0-2.91-2.476-3.03-4.188-3.03V149.917z"/>
		<path fill="#FFFFFF" d="M24.638,144.637h0.526c3.556,0,4.504-2.1,4.583-3.689h3.028v21.299h-3.687v-14.669h-4.451V144.637z"/>
	</g>
	<g>
	</g>
	<g>
	</g>
	<g>
	</g>
	<g>
		<path fill="#FFFFFF" d="M19.164,18.882c-0.07-0.8-0.526-1.36-1.439-1.36c-1.597,0-1.965,2.08-2.053,3.921l0.035,0.04
			c0.333-0.52,0.948-1.18,2.334-1.18c2.58,0,3.808,2.261,3.808,4.381c0,3.101-1.667,5.181-4.071,5.181
			c-3.773,0-4.51-3.601-4.51-7.141c0-2.701,0.316-7.442,4.633-7.442c0.509,0,1.93,0.22,2.544,0.92c0.684,0.76,0.93,1.18,1.158,2.681
			H19.164z M17.602,22.542c-0.93,0-1.878,0.66-1.878,2.44c0,1.541,0.772,2.641,1.948,2.641c0.895,0,1.72-0.78,1.72-2.701
			C19.392,23.123,18.374,22.542,17.602,22.542z"/>
		<path fill="#FFFFFF" d="M24.818,26.203v0.02c0.14,0.98,0.684,1.4,1.438,1.4c1.018,0,2.036-0.98,2.053-3.961l-0.035-0.04
			c-0.562,0.96-1.526,1.2-2.369,1.2c-2.387,0-3.773-2.061-3.773-4.441c0-3.48,1.808-5.101,4.247-5.101
			c4.317,0,4.387,5.301,4.387,7.302c0,5.501-2.281,7.281-4.527,7.281c-2.123,0-3.649-1.4-3.86-3.661H24.818z M26.432,22.583
			c0.86,0,1.807-0.7,1.807-2.381c0-1.62-0.614-2.62-1.877-2.62c-0.632,0-1.772,0.36-1.772,2.4
			C24.589,22.123,25.502,22.583,26.432,22.583z"/>
		<path fill="#FFFFFF" d="M34.245,29.484h-2.632v-2.92h2.632V29.484z"/>
		<path fill="#FFFFFF" d="M43.757,17.681c-1.193,1.48-4.247,5.682-4.545,11.803h-2.527c0.263-5.681,3.387-10.202,4.439-11.482
			h-6.194l0.053-2.48h8.774V17.681z"/>
		<path fill="#FFFFFF" d="M43.972,20.302c0-4.621,2.965-5.021,4.071-5.021c2.387,0,4.282,1.601,4.282,4.481
			c0,2.44-1.386,3.681-2.597,4.621c-1.649,1.32-2.509,1.96-2.79,2.621h5.405v2.48h-8.511c0.088-1.66,0.193-3.401,2.896-5.641
			c2.246-1.86,3.141-2.581,3.141-4.181c0-0.94-0.526-2.021-1.72-2.021c-1.72,0-1.772,1.621-1.79,2.661H43.972z"/>
		<path fill="#FFFFFF" d="M55.996,21.262h0.386c0.737,0,2.088-0.08,2.088-1.92c0-0.52-0.21-1.82-1.562-1.82
			c-1.685,0-1.685,1.82-1.685,2.32h-2.281c0-2.661,1.316-4.561,4.124-4.561c1.667,0,3.86,0.96,3.86,3.961
			c0,1.44-0.79,2.34-1.492,2.701v0.04c0.439,0.14,1.878,0.88,1.878,3.301c0,2.68-1.737,4.581-4.247,4.581
			c-1.176,0-4.334-0.3-4.334-4.741h2.404l-0.018,0.02c0,0.76,0.175,2.48,1.825,2.48c0.983,0,1.843-0.76,1.843-2.34
			c0-1.94-1.649-2.021-2.79-2.021V21.262z"/>
	</g>
	<g>
		<path fill="#FFFFFF" d="M10.127,175.113c0-4.851,3.115-5.271,4.276-5.271c2.507,0,4.497,1.68,4.497,4.703
			c0,2.562-1.456,3.863-2.728,4.851c-1.733,1.385-2.636,2.057-2.931,2.75h5.677v2.604H9.979c0.092-1.742,0.203-3.569,3.041-5.921
			c2.359-1.952,3.3-2.708,3.3-4.388c0-0.987-0.553-2.121-1.807-2.121c-1.807,0-1.862,1.701-1.88,2.793H10.127z"/>
		<path fill="#FFFFFF" d="M24.468,180.236h-5.143v-2.73h5.143V180.236z"/>
		<path fill="#FFFFFF" d="M29.168,185.148c-3.374,0-4.535-2.498-4.535-4.535c0-0.756,0-2.729,1.991-3.779
			c-1.032-0.588-1.585-1.532-1.585-2.918c0-2.541,1.788-4.073,4.073-4.073c2.71,0,4.147,1.827,4.147,3.884
			c0,1.281-0.461,2.373-1.512,3.003c1.254,0.714,1.954,1.659,1.954,3.591C33.702,182.209,32.633,185.148,29.168,185.148z
			 M29.131,178.115c-0.94,0-1.843,0.693-1.843,2.31c0,1.428,0.719,2.372,1.898,2.372c1.346,0,1.862-1.322,1.862-2.352
			C31.048,179.396,30.568,178.115,29.131,178.115z M30.79,174.042c0-1.134-0.682-1.848-1.512-1.848c-1.161,0-1.77,0.756-1.77,1.848
			c0,0.882,0.571,1.848,1.677,1.848C30.2,175.89,30.79,175.113,30.79,174.042z"/>
		<path fill="#FFFFFF" d="M39.011,180.236h-5.143v-2.73h5.143V180.236z"/>
		<path fill="#FFFFFF" d="M39.859,172.426h0.369c2.488,0,3.152-1.471,3.207-2.583h2.12v14.907h-2.581v-10.268h-3.115V172.426z"/>
		<path fill="#FFFFFF" d="M52.394,185.148c-3.374,0-4.535-2.498-4.535-4.535c0-0.756,0-2.729,1.991-3.779
			c-1.032-0.588-1.585-1.532-1.585-2.918c0-2.541,1.788-4.073,4.073-4.073c2.71,0,4.147,1.827,4.147,3.884
			c0,1.281-0.461,2.373-1.512,3.003c1.254,0.714,1.954,1.659,1.954,3.591C56.928,182.209,55.858,185.148,52.394,185.148z
			 M52.356,178.115c-0.94,0-1.843,0.693-1.843,2.31c0,1.428,0.719,2.372,1.898,2.372c1.346,0,1.862-1.322,1.862-2.352
			C54.273,179.396,53.794,178.115,52.356,178.115z M54.016,174.042c0-1.134-0.682-1.848-1.512-1.848c-1.161,0-1.77,0.756-1.77,1.848
			c0,0.882,0.571,1.848,1.677,1.848C53.426,175.89,54.016,175.113,54.016,174.042z"/>
		<path fill="#FFFFFF" d="M62.236,180.236h-5.143v-2.73h5.143V180.236z"/>
		<path fill="#FFFFFF" d="M65.739,176.121h0.405c0.774,0,2.194-0.084,2.194-2.016c0-0.547-0.222-1.911-1.641-1.911
			c-1.77,0-1.77,1.911-1.77,2.436h-2.396c0-2.792,1.383-4.787,4.332-4.787c1.751,0,4.055,1.008,4.055,4.157
			c0,1.512-0.829,2.457-1.566,2.834v0.043c0.461,0.146,1.972,0.924,1.972,3.464c0,2.813-1.825,4.808-4.46,4.808
			c-1.235,0-4.553-0.314-4.553-4.976h2.525l-0.019,0.021c0,0.799,0.185,2.604,1.917,2.604c1.032,0,1.936-0.797,1.936-2.456
			c0-2.036-1.733-2.12-2.931-2.12V176.121z"/>
	</g>
	<g>
	</g>
	<g>
	</g>
	<g>
	</g>
	<g>
	</g>
	<g>
	</g>
	<g>
	</g>
</g>
</svg>
