<?xml version="1.0" encoding="utf-8"?>
<!-- Generator: Adobe Illustrator 16.0.0, SVG Export Plug-In . SVG Version: 6.00 Build 0)  -->
<!DOCTYPE svg PUBLIC "-//W3C//DTD SVG 1.1//EN" "http://www.w3.org/Graphics/SVG/1.1/DTD/svg11.dtd">
<svg version="1.1" xmlns="http://www.w3.org/2000/svg" xmlns:xlink="http://www.w3.org/1999/xlink" x="0px" y="0px" width="200px"
	 height="200px" viewBox="0 0 200 200" enable-background="new 0 0 200 200" xml:space="preserve">
<g id="Arriere-Plan">
	<rect fill="#FFFFFF" width="200" height="200"/>
</g>
<g id="Fond">
	<linearGradient id="SVGID_1_" gradientUnits="userSpaceOnUse" x1="-7.2217" y1="19.6768" x2="193.1594" y2="169.7889">
		<stop  offset="0" style="stop-color:#62B283"/>
		<stop  offset="0.1351" style="stop-color:#5FAA7C"/>
		<stop  offset="0.3166" style="stop-color:#589B6D"/>
		<stop  offset="0.5244" style="stop-color:#4C8256"/>
		<stop  offset="0.7519" style="stop-color:#3A633A"/>
		<stop  offset="0.9929" style="stop-color:#24411D"/>
		<stop  offset="1" style="stop-color:#23401C"/>
	</linearGradient>
	<rect x="4" y="4" fill="url(#SVGID_1_)" width="192" height="192"/>
</g>
<g id="Texte">
	<g>
		<path fill="#FFFFFF" d="M37.803,52.559h38.235c20.118,0,23.804,16.919,23.804,24.359c0,9.479-4.213,17.639-11.691,20.519
			c6.215,3.12,9.585,5.76,9.585,21.839c0,12.6,0,15.72,3.372,17.159v2.28H83.622c-1.053-4.08-1.685-8.52-1.685-17.399
			c0-11.76-0.632-16.319-12.324-16.319H53.286v33.719H37.803V52.559z M71.825,90.477c8.216,0,12.218-3.24,12.218-11.759
			c0-4.56-1.791-11.28-11.06-11.28H53.286v23.039H71.825z"/>
		<path fill="#FFFFFF" d="M127.018,83.157h0.209c2.318-4.08,6.742-9.96,16.223-9.96c12.322,0,23.277,10.8,23.277,32.879
			c0,17.52-6.951,34.318-23.594,34.318c-6.109,0-12.641-2.52-16.221-9.72h-0.211v8.04H112.27V52.559h14.748V83.157z M139.025,87.717
			c-10.113,0-12.641,10.32-12.641,20.52c0,9.479,3.688,18.359,13.061,18.359c9.48,0,12.113-11.76,12.113-19.319
			C151.559,97.196,148.398,87.717,139.025,87.717z"/>
	</g>
	<g>
		<path fill="#FFFFFF" d="M175.023,18.628h2.24v3.941h3.922v2.24h-3.922v3.941h-2.24v-3.941h-3.92v-2.24h3.92V18.628z"/>
		<path fill="#FFFFFF" d="M183.363,17.007h0.4c2.7,0,3.42-1.4,3.48-2.46h2.301V28.75h-2.801v-9.782h-3.381V17.007z"/>
	</g>
	<g>
	</g>
	<g>
	</g>
	<g>
		<path fill="#FFFFFF" d="M13.79,149.917h0.579c1.106,0,3.134-0.12,3.134-2.88c0-0.78-0.316-2.73-2.344-2.73
			c-2.528,0-2.528,2.73-2.528,3.48H9.207c0-3.99,1.975-6.84,6.189-6.84c2.502,0,5.794,1.439,5.794,5.939
			c0,2.16-1.185,3.51-2.239,4.05v0.06c0.659,0.21,2.818,1.32,2.818,4.95c0,4.02-2.607,6.87-6.374,6.87
			c-1.765,0-6.505-0.45-6.505-7.11h3.608l-0.026,0.03c0,1.14,0.263,3.72,2.739,3.72c1.475,0,2.766-1.14,2.766-3.51
			c0-2.91-2.476-3.03-4.188-3.03V149.917z"/>
		<path fill="#FFFFFF" d="M36.727,144.547c-1.791,2.22-6.374,8.52-6.821,17.699h-3.792c0.395-8.52,5.083-15.3,6.663-17.22h-9.297
			l0.079-3.72h13.168V144.547z"/>
	</g>
	<g>
	</g>
	<g>
	</g>
	<g>
	</g>
	<g>
		<path fill="#FFFFFF" d="M17.602,29.864c-3.211,0-4.317-2.38-4.317-4.321c0-0.72,0-2.601,1.895-3.601
			c-0.982-0.56-1.509-1.46-1.509-2.781c0-2.42,1.702-3.881,3.878-3.881c2.58,0,3.948,1.74,3.948,3.701
			c0,1.22-0.439,2.261-1.439,2.861c1.193,0.68,1.86,1.58,1.86,3.421C21.918,27.063,20.901,29.864,17.602,29.864z M17.567,23.163
			c-0.895,0-1.755,0.66-1.755,2.2c0,1.36,0.685,2.261,1.808,2.261c1.281,0,1.772-1.26,1.772-2.241
			C19.392,24.383,18.936,23.163,17.567,23.163z M19.146,19.282c0-1.08-0.649-1.76-1.439-1.76c-1.105,0-1.685,0.72-1.685,1.76
			c0,0.84,0.544,1.76,1.597,1.76C18.584,21.042,19.146,20.302,19.146,19.282z"/>
		<path fill="#FFFFFF" d="M24.66,20.962c0.456-0.36,1.018-0.78,2.229-0.78c1.667,0,3.773,1.32,3.773,4.581
			c0,1.94-0.86,5.101-4.527,5.101c-1.948,0-3.931-1.32-4.054-4.181h2.457c0.105,1.16,0.649,1.94,1.737,1.94
			c1.176,0,1.86-1.14,1.86-2.661c0-1.26-0.526-2.541-1.825-2.541c-0.333,0-1.176,0.02-1.649,1.02l-2.193-0.12l0.86-7.802h6.843v2.36
			h-5.071L24.66,20.962z"/>
		<path fill="#FFFFFF" d="M34.245,29.484h-2.632v-2.92h2.632V29.484z"/>
		<path fill="#FFFFFF" d="M43.722,26.343h-1.386v3.141h-2.457v-3.141h-4.914v-2.42l4.58-8.642h2.79v8.882h1.386V26.343z
			 M39.879,24.163c0-3.44,0.053-5.661,0.053-6.101h-0.035l-3.124,6.101H39.879z"/>
		<path fill="#FFFFFF" d="M49.815,18.882c-0.07-0.8-0.526-1.36-1.439-1.36c-1.597,0-1.965,2.08-2.053,3.921l0.035,0.04
			c0.333-0.52,0.948-1.18,2.334-1.18c2.58,0,3.808,2.261,3.808,4.381c0,3.101-1.667,5.181-4.071,5.181
			c-3.773,0-4.51-3.601-4.51-7.141c0-2.701,0.316-7.442,4.633-7.442c0.509,0,1.93,0.22,2.544,0.92c0.684,0.76,0.93,1.18,1.158,2.681
			H49.815z M48.253,22.542c-0.93,0-1.878,0.66-1.878,2.44c0,1.541,0.772,2.641,1.948,2.641c0.895,0,1.72-0.78,1.72-2.701
			C50.043,23.123,49.025,22.542,48.253,22.542z"/>
		<path fill="#FFFFFF" d="M61.523,17.681c-1.193,1.48-4.247,5.682-4.545,11.803h-2.527c0.263-5.681,3.387-10.202,4.439-11.482
			h-6.194l0.053-2.48h8.774V17.681z"/>
		<path fill="#FFFFFF" d="M66.019,29.864c-3.211,0-4.317-2.38-4.317-4.321c0-0.72,0-2.601,1.895-3.601
			c-0.982-0.56-1.509-1.46-1.509-2.781c0-2.42,1.702-3.881,3.878-3.881c2.58,0,3.948,1.74,3.948,3.701
			c0,1.22-0.439,2.261-1.439,2.861c1.193,0.68,1.86,1.58,1.86,3.421C70.335,27.063,69.318,29.864,66.019,29.864z M65.984,23.163
			c-0.895,0-1.755,0.66-1.755,2.2c0,1.36,0.685,2.261,1.808,2.261c1.281,0,1.772-1.26,1.772-2.241
			C67.809,24.383,67.353,23.163,65.984,23.163z M67.563,19.282c0-1.08-0.649-1.76-1.439-1.76c-1.105,0-1.685,0.72-1.685,1.76
			c0,0.84,0.544,1.76,1.597,1.76C67.001,21.042,67.563,20.302,67.563,19.282z"/>
	</g>
	<g>
		<path fill="#FFFFFF" d="M10.127,175.113c0-4.851,3.115-5.271,4.276-5.271c2.507,0,4.497,1.68,4.497,4.703
			c0,2.562-1.456,3.863-2.728,4.851c-1.733,1.385-2.636,2.057-2.931,2.75h5.677v2.604H9.979c0.092-1.742,0.203-3.569,3.041-5.921
			c2.359-1.952,3.3-2.708,3.3-4.388c0-0.987-0.553-2.121-1.807-2.121c-1.807,0-1.862,1.701-1.88,2.793H10.127z"/>
		<path fill="#FFFFFF" d="M24.468,180.236h-5.143v-2.73h5.143V180.236z"/>
		<path fill="#FFFFFF" d="M29.168,185.148c-3.374,0-4.535-2.498-4.535-4.535c0-0.756,0-2.729,1.991-3.779
			c-1.032-0.588-1.585-1.532-1.585-2.918c0-2.541,1.788-4.073,4.073-4.073c2.71,0,4.147,1.827,4.147,3.884
			c0,1.281-0.461,2.373-1.512,3.003c1.254,0.714,1.954,1.659,1.954,3.591C33.702,182.209,32.633,185.148,29.168,185.148z
			 M29.131,178.115c-0.94,0-1.843,0.693-1.843,2.31c0,1.428,0.719,2.372,1.898,2.372c1.346,0,1.862-1.322,1.862-2.352
			C31.048,179.396,30.568,178.115,29.131,178.115z M30.79,174.042c0-1.134-0.682-1.848-1.512-1.848c-1.161,0-1.77,0.756-1.77,1.848
			c0,0.882,0.571,1.848,1.677,1.848C30.2,175.89,30.79,175.113,30.79,174.042z"/>
		<path fill="#FFFFFF" d="M39.011,180.236h-5.143v-2.73h5.143V180.236z"/>
		<path fill="#FFFFFF" d="M39.859,172.426h0.369c2.488,0,3.152-1.471,3.207-2.583h2.12v14.907h-2.581v-10.268h-3.115V172.426z"/>
		<path fill="#FFFFFF" d="M52.394,185.148c-3.374,0-4.535-2.498-4.535-4.535c0-0.756,0-2.729,1.991-3.779
			c-1.032-0.588-1.585-1.532-1.585-2.918c0-2.541,1.788-4.073,4.073-4.073c2.71,0,4.147,1.827,4.147,3.884
			c0,1.281-0.461,2.373-1.512,3.003c1.254,0.714,1.954,1.659,1.954,3.591C56.928,182.209,55.858,185.148,52.394,185.148z
			 M52.356,178.115c-0.94,0-1.843,0.693-1.843,2.31c0,1.428,0.719,2.372,1.898,2.372c1.346,0,1.862-1.322,1.862-2.352
			C54.273,179.396,53.794,178.115,52.356,178.115z M54.016,174.042c0-1.134-0.682-1.848-1.512-1.848c-1.161,0-1.77,0.756-1.77,1.848
			c0,0.882,0.571,1.848,1.677,1.848C53.426,175.89,54.016,175.113,54.016,174.042z"/>
		<path fill="#FFFFFF" d="M62.236,180.236h-5.143v-2.73h5.143V180.236z"/>
		<path fill="#FFFFFF" d="M66.937,185.148c-3.373,0-4.534-2.498-4.534-4.535c0-0.756,0-2.729,1.991-3.779
			c-1.032-0.588-1.585-1.532-1.585-2.918c0-2.541,1.788-4.073,4.074-4.073c2.709,0,4.147,1.827,4.147,3.884
			c0,1.281-0.461,2.373-1.511,3.003c1.253,0.714,1.954,1.659,1.954,3.591C71.471,182.209,70.402,185.148,66.937,185.148z
			 M66.9,178.115c-0.94,0-1.843,0.693-1.843,2.31c0,1.428,0.719,2.372,1.898,2.372c1.346,0,1.862-1.322,1.862-2.352
			C68.817,179.396,68.338,178.115,66.9,178.115z M68.559,174.042c0-1.134-0.682-1.848-1.511-1.848c-1.161,0-1.77,0.756-1.77,1.848
			c0,0.882,0.571,1.848,1.677,1.848C67.969,175.89,68.559,175.113,68.559,174.042z"/>
		<path fill="#FFFFFF" d="M76.78,180.236h-5.143v-2.73h5.143V180.236z"/>
		<path fill="#FFFFFF" d="M77.628,172.426h0.369c2.488,0,3.152-1.471,3.207-2.583h2.12v14.907h-2.58v-10.268h-3.115V172.426z"/>
	</g>
	<g>
	</g>
	<g>
	</g>
	<g>
	</g>
	<g>
	</g>
	<g>
	</g>
	<g>
	</g>
</g>
</svg>
