<?xml version="1.0" encoding="utf-8"?>
<!-- Generator: Adobe Illustrator 16.0.0, SVG Export Plug-In . SVG Version: 6.00 Build 0)  -->
<!DOCTYPE svg PUBLIC "-//W3C//DTD SVG 1.1//EN" "http://www.w3.org/Graphics/SVG/1.1/DTD/svg11.dtd">
<svg version="1.1" xmlns="http://www.w3.org/2000/svg" xmlns:xlink="http://www.w3.org/1999/xlink" x="0px" y="0px" width="200px"
	 height="200px" viewBox="0 0 200 200" enable-background="new 0 0 200 200" xml:space="preserve">
<g id="Arriere-Plan">
	<rect fill="#FFFFFF" width="200" height="200"/>
</g>
<g id="Fond">
	<linearGradient id="SVGID_1_" gradientUnits="userSpaceOnUse" x1="-7.2217" y1="19.6768" x2="193.1594" y2="169.7889">
		<stop  offset="0" style="stop-color:#62B283"/>
		<stop  offset="0.1351" style="stop-color:#5FAA7C"/>
		<stop  offset="0.3166" style="stop-color:#589B6D"/>
		<stop  offset="0.5244" style="stop-color:#4C8256"/>
		<stop  offset="0.7519" style="stop-color:#3A633A"/>
		<stop  offset="0.9929" style="stop-color:#24411D"/>
		<stop  offset="1" style="stop-color:#23401C"/>
	</linearGradient>
	<rect x="4" y="4" fill="url(#SVGID_1_)" width="192" height="192"/>
</g>
<g id="Texte">
	<g>
		<path fill="#FFFFFF" d="M83.938,52.559h14.747v86.156h-15.8L52.023,77.277h-0.211v61.438H37.066V52.559h16.642l30.02,59.997h0.21
			V52.559z"/>
		<path fill="#FFFFFF" d="M127.018,83.157h0.211c2.316-4.08,6.74-9.96,16.221-9.96c12.324,0,23.279,10.8,23.279,32.879
			c0,17.52-6.953,34.318-23.596,34.318c-6.109,0-12.639-2.52-16.221-9.72h-0.211v8.04h-14.43V52.559h14.746V83.157z M139.025,87.717
			c-10.111,0-12.639,10.32-12.639,20.52c0,9.479,3.686,18.359,13.061,18.359c9.479,0,12.113-11.76,12.113-19.319
			C151.561,97.196,148.4,87.717,139.025,87.717z"/>
	</g>
	<g>
		<path fill="#FFFFFF" d="M175.023,18.628h2.24v3.941h3.922v2.24h-3.922v3.941h-2.24v-3.941h-3.92v-2.24h3.92V18.628z"/>
		<path fill="#FFFFFF" d="M185.464,20.228c0.521-0.36,1.16-0.78,2.54-0.78c1.9,0,4.301,1.32,4.301,4.581
			c0,1.94-0.98,5.101-5.16,5.101c-2.221,0-4.481-1.32-4.621-4.181h2.801c0.119,1.16,0.74,1.94,1.98,1.94
			c1.34,0,2.119-1.14,2.119-2.661c0-1.26-0.6-2.541-2.08-2.541c-0.38,0-1.34,0.02-1.88,1.02l-2.501-0.12l0.98-7.802h7.802v2.36
			h-5.781L185.464,20.228z"/>
	</g>
	<g>
		<path fill="#FFFFFF" d="M175.023,38.628h2.24v3.941h3.922v2.24h-3.922v3.941h-2.24v-3.941h-3.92v-2.24h3.92V38.628z"/>
		<path fill="#FFFFFF" d="M186.244,40.528h0.439c0.84,0,2.381-0.08,2.381-1.92c0-0.52-0.24-1.82-1.78-1.82
			c-1.921,0-1.921,1.82-1.921,2.32h-2.6c0-2.661,1.5-4.561,4.7-4.561c1.9,0,4.401,0.96,4.401,3.961c0,1.44-0.9,2.34-1.701,2.701
			v0.04c0.5,0.14,2.141,0.88,2.141,3.301c0,2.68-1.98,4.581-4.841,4.581c-1.34,0-4.94-0.3-4.94-4.741h2.74l-0.02,0.02
			c0,0.76,0.199,2.48,2.08,2.48c1.12,0,2.1-0.76,2.1-2.34c0-1.94-1.88-2.021-3.18-2.021V40.528z"/>
	</g>
	<g>
	</g>
	<g>
		<path fill="#FFFFFF" d="M22.033,157.536h-2.081v4.71h-3.687v-4.71H8.891v-3.63l6.874-12.959h4.188v13.319h2.081V157.536z
			 M16.265,154.267c0-5.16,0.079-8.49,0.079-9.149h-0.053l-4.688,9.149H16.265z"/>
		<path fill="#FFFFFF" d="M24.638,144.637h0.526c3.556,0,4.504-2.1,4.583-3.689h3.028v21.299h-3.687v-14.669h-4.451V144.637z"/>
	</g>
	<g>
	</g>
	<g>
	</g>
	<g>
	</g>
	<g>
		<path fill="#FFFFFF" d="M15.935,26.203v0.02c0.14,0.98,0.684,1.4,1.438,1.4c1.018,0,2.036-0.98,2.053-3.961l-0.035-0.04
			c-0.562,0.96-1.526,1.2-2.369,1.2c-2.387,0-3.773-2.061-3.773-4.441c0-3.48,1.808-5.101,4.247-5.101
			c4.317,0,4.387,5.301,4.387,7.302c0,5.501-2.281,7.281-4.527,7.281c-2.123,0-3.649-1.4-3.86-3.661H15.935z M17.549,22.583
			c0.86,0,1.807-0.7,1.807-2.381c0-1.62-0.614-2.62-1.877-2.62c-0.632,0-1.772,0.36-1.772,2.4
			C15.707,22.123,16.619,22.583,17.549,22.583z"/>
		<path fill="#FFFFFF" d="M22.203,20.302c0-4.621,2.965-5.021,4.071-5.021c2.387,0,4.282,1.601,4.282,4.481
			c0,2.44-1.386,3.681-2.597,4.621c-1.649,1.32-2.509,1.96-2.79,2.621h5.405v2.48h-8.511c0.088-1.66,0.193-3.401,2.896-5.641
			c2.246-1.86,3.141-2.581,3.141-4.181c0-0.94-0.526-2.021-1.72-2.021c-1.72,0-1.772,1.621-1.79,2.661H22.203z"/>
		<path fill="#FFFFFF" d="M34.245,29.484h-2.632v-2.92h2.632V29.484z"/>
		<path fill="#FFFFFF" d="M37.704,26.203v0.02c0.14,0.98,0.684,1.4,1.438,1.4c1.018,0,2.036-0.98,2.053-3.961l-0.035-0.04
			c-0.562,0.96-1.526,1.2-2.369,1.2c-2.387,0-3.773-2.061-3.773-4.441c0-3.48,1.808-5.101,4.247-5.101
			c4.317,0,4.387,5.301,4.387,7.302c0,5.501-2.281,7.281-4.527,7.281c-2.123,0-3.649-1.4-3.86-3.661H37.704z M39.318,22.583
			c0.86,0,1.807-0.7,1.807-2.381c0-1.62-0.614-2.62-1.877-2.62c-0.632,0-1.772,0.36-1.772,2.4
			C37.475,22.123,38.388,22.583,39.318,22.583z"/>
		<path fill="#FFFFFF" d="M48.253,15.281c2.93,0,4.316,2.301,4.316,7.282s-1.386,7.301-4.316,7.301c-2.931,0-4.317-2.32-4.317-7.301
			S45.323,15.281,48.253,15.281z M48.253,27.624c1.404,0,1.79-1.4,1.79-5.061s-0.386-5.041-1.79-5.041s-1.79,1.38-1.79,5.041
			S46.85,27.624,48.253,27.624z"/>
		<path fill="#FFFFFF" d="M58.698,18.882c-0.07-0.8-0.526-1.36-1.439-1.36c-1.597,0-1.965,2.08-2.053,3.921l0.035,0.04
			c0.333-0.52,0.948-1.18,2.334-1.18c2.58,0,3.808,2.261,3.808,4.381c0,3.101-1.667,5.181-4.071,5.181
			c-3.773,0-4.51-3.601-4.51-7.141c0-2.701,0.316-7.442,4.633-7.442c0.509,0,1.93,0.22,2.544,0.92c0.684,0.76,0.93,1.18,1.158,2.681
			H58.698z M57.136,22.542c-0.93,0-1.878,0.66-1.878,2.44c0,1.541,0.772,2.641,1.948,2.641c0.895,0,1.72-0.78,1.72-2.701
			C58.926,23.123,57.908,22.542,57.136,22.542z"/>
		<path fill="#FFFFFF" d="M64.878,21.262h0.386c0.737,0,2.088-0.08,2.088-1.92c0-0.52-0.21-1.82-1.562-1.82
			c-1.685,0-1.685,1.82-1.685,2.32h-2.281c0-2.661,1.316-4.561,4.124-4.561c1.667,0,3.86,0.96,3.86,3.961
			c0,1.44-0.79,2.34-1.492,2.701v0.04c0.439,0.14,1.878,0.88,1.878,3.301c0,2.68-1.737,4.581-4.247,4.581
			c-1.176,0-4.334-0.3-4.334-4.741h2.404l-0.018,0.02c0,0.76,0.175,2.48,1.825,2.48c0.983,0,1.843-0.76,1.843-2.34
			c0-1.94-1.649-2.021-2.79-2.021V21.262z"/>
		<path fill="#FFFFFF" d="M74.902,29.864c-3.211,0-4.317-2.38-4.317-4.321c0-0.72,0-2.601,1.895-3.601
			c-0.982-0.56-1.509-1.46-1.509-2.781c0-2.42,1.702-3.881,3.878-3.881c2.58,0,3.948,1.74,3.948,3.701
			c0,1.22-0.439,2.261-1.439,2.861c1.193,0.68,1.86,1.58,1.86,3.421C79.219,27.063,78.201,29.864,74.902,29.864z M74.867,23.163
			c-0.895,0-1.755,0.66-1.755,2.2c0,1.36,0.685,2.261,1.808,2.261c1.281,0,1.772-1.26,1.772-2.241
			C76.692,24.383,76.236,23.163,74.867,23.163z M76.446,19.282c0-1.08-0.649-1.76-1.439-1.76c-1.105,0-1.685,0.72-1.685,1.76
			c0,0.84,0.544,1.76,1.597,1.76C75.885,21.042,76.446,20.302,76.446,19.282z"/>
	</g>
	<g>
		<path fill="#FFFFFF" d="M10.127,175.113c0-4.851,3.115-5.271,4.276-5.271c2.507,0,4.497,1.68,4.497,4.703
			c0,2.562-1.456,3.863-2.728,4.851c-1.733,1.385-2.636,2.057-2.931,2.75h5.677v2.604H9.979c0.092-1.742,0.203-3.569,3.041-5.921
			c2.359-1.952,3.3-2.708,3.3-4.388c0-0.987-0.553-2.121-1.807-2.121c-1.807,0-1.862,1.701-1.88,2.793H10.127z"/>
		<path fill="#FFFFFF" d="M24.468,180.236h-5.143v-2.73h5.143V180.236z"/>
		<path fill="#FFFFFF" d="M29.168,185.148c-3.374,0-4.535-2.498-4.535-4.535c0-0.756,0-2.729,1.991-3.779
			c-1.032-0.588-1.585-1.532-1.585-2.918c0-2.541,1.788-4.073,4.073-4.073c2.71,0,4.147,1.827,4.147,3.884
			c0,1.281-0.461,2.373-1.512,3.003c1.254,0.714,1.954,1.659,1.954,3.591C33.702,182.209,32.633,185.148,29.168,185.148z
			 M29.131,178.115c-0.94,0-1.843,0.693-1.843,2.31c0,1.428,0.719,2.372,1.898,2.372c1.346,0,1.862-1.322,1.862-2.352
			C31.048,179.396,30.568,178.115,29.131,178.115z M30.79,174.042c0-1.134-0.682-1.848-1.512-1.848c-1.161,0-1.77,0.756-1.77,1.848
			c0,0.882,0.571,1.848,1.677,1.848C30.2,175.89,30.79,175.113,30.79,174.042z"/>
		<path fill="#FFFFFF" d="M39.011,180.236h-5.143v-2.73h5.143V180.236z"/>
		<path fill="#FFFFFF" d="M39.859,172.426h0.369c2.488,0,3.152-1.471,3.207-2.583h2.12v14.907h-2.581v-10.268h-3.115V172.426z"/>
		<path fill="#FFFFFF" d="M52.394,185.148c-3.374,0-4.535-2.498-4.535-4.535c0-0.756,0-2.729,1.991-3.779
			c-1.032-0.588-1.585-1.532-1.585-2.918c0-2.541,1.788-4.073,4.073-4.073c2.71,0,4.147,1.827,4.147,3.884
			c0,1.281-0.461,2.373-1.512,3.003c1.254,0.714,1.954,1.659,1.954,3.591C56.928,182.209,55.858,185.148,52.394,185.148z
			 M52.356,178.115c-0.94,0-1.843,0.693-1.843,2.31c0,1.428,0.719,2.372,1.898,2.372c1.346,0,1.862-1.322,1.862-2.352
			C54.273,179.396,53.794,178.115,52.356,178.115z M54.016,174.042c0-1.134-0.682-1.848-1.512-1.848c-1.161,0-1.77,0.756-1.77,1.848
			c0,0.882,0.571,1.848,1.677,1.848C53.426,175.89,54.016,175.113,54.016,174.042z"/>
		<path fill="#FFFFFF" d="M62.236,180.236h-5.143v-2.73h5.143V180.236z"/>
		<path fill="#FFFFFF" d="M63.084,172.426h0.369c2.488,0,3.152-1.471,3.207-2.583h2.12v14.907h-2.581v-10.268h-3.115V172.426z"/>
		<path fill="#FFFFFF" d="M71.121,175.113c0-4.851,3.115-5.271,4.276-5.271c2.507,0,4.498,1.68,4.498,4.703
			c0,2.562-1.457,3.863-2.729,4.851c-1.732,1.385-2.636,2.057-2.931,2.75h5.677v2.604h-8.94c0.092-1.742,0.203-3.569,3.042-5.921
			c2.359-1.952,3.299-2.708,3.299-4.388c0-0.987-0.553-2.121-1.806-2.121c-1.806,0-1.862,1.701-1.88,2.793H71.121z"/>
		<path fill="#FFFFFF" d="M85.462,180.236h-5.143v-2.73h5.143V180.236z"/>
		<path fill="#FFFFFF" d="M86.31,172.426h0.369c2.488,0,3.152-1.471,3.207-2.583h2.12v14.907h-2.581v-10.268H86.31V172.426z"/>
	</g>
	<g>
	</g>
	<g>
	</g>
	<g>
	</g>
	<g>
	</g>
	<g>
	</g>
	<g>
	</g>
</g>
</svg>
