<?xml version="1.0" encoding="utf-8"?>
<!-- Generator: Adobe Illustrator 16.0.0, SVG Export Plug-In . SVG Version: 6.00 Build 0)  -->
<!DOCTYPE svg PUBLIC "-//W3C//DTD SVG 1.1//EN" "http://www.w3.org/Graphics/SVG/1.1/DTD/svg11.dtd">
<svg version="1.1" xmlns="http://www.w3.org/2000/svg" xmlns:xlink="http://www.w3.org/1999/xlink" x="0px" y="0px" width="200px"
	 height="200px" viewBox="0 0 200 200" enable-background="new 0 0 200 200" xml:space="preserve">
<g id="Arriere-Plan">
	<rect fill="#FFFFFF" width="200" height="200"/>
</g>
<g id="Fond">
	<linearGradient id="SVGID_1_" gradientUnits="userSpaceOnUse" x1="-7.2217" y1="19.6768" x2="193.1594" y2="169.7889">
		<stop  offset="0" style="stop-color:#62B283"/>
		<stop  offset="0.1351" style="stop-color:#5FAA7C"/>
		<stop  offset="0.3166" style="stop-color:#589B6D"/>
		<stop  offset="0.5244" style="stop-color:#4C8256"/>
		<stop  offset="0.7519" style="stop-color:#3A633A"/>
		<stop  offset="0.9929" style="stop-color:#24411D"/>
		<stop  offset="1" style="stop-color:#23401C"/>
	</linearGradient>
	<rect x="4" y="4" fill="url(#SVGID_1_)" width="192" height="192"/>
</g>
<g id="Texte">
	<g>
		<path fill="#FFFFFF" d="M38.855,52.559h38.235c20.118,0,23.804,16.919,23.804,24.359c0,9.479-4.213,17.639-11.691,20.519
			c6.215,3.12,9.585,5.76,9.585,21.839c0,12.6,0,15.72,3.372,17.159v2.28H84.674c-1.053-4.08-1.685-8.52-1.685-17.399
			c0-11.76-0.632-16.319-12.324-16.319H54.339v33.719H38.855V52.559z M72.877,90.477c8.216,0,12.218-3.24,12.218-11.759
			c0-4.56-1.791-11.28-11.06-11.28H54.339v23.039H72.877z"/>
		<path fill="#FFFFFF" d="M162.197,138.715h-14.113v-9h-0.211c-3.371,6.84-9.27,10.68-17.064,10.68
			c-11.059,0-19.064-7.199-19.064-23.519V74.877h14.746v39.598c0,9.84,5.057,11.76,9.586,11.76c4.846,0,11.375-3.12,11.375-14.52
			V74.877h14.746V138.715z"/>
	</g>
	<g>
		<path fill="#FFFFFF" d="M146.648,18.628h2.24v3.941h3.922v2.24h-3.922v3.941h-2.24v-3.941h-3.92v-2.24h3.92V18.628z"/>
		<path fill="#FFFFFF" d="M154.288,19.568c0-4.621,3.381-5.021,4.642-5.021c2.72,0,4.881,1.601,4.881,4.481
			c0,2.44-1.58,3.681-2.961,4.621c-1.881,1.32-2.861,1.96-3.181,2.621h6.161v2.48h-9.702c0.101-1.66,0.22-3.401,3.301-5.641
			c2.561-1.86,3.581-2.581,3.581-4.181c0-0.94-0.601-2.021-1.961-2.021c-1.96,0-2.02,1.621-2.04,2.661H154.288z"/>
		<path fill="#FFFFFF" d="M175.009,18.628h2.24v3.941h3.921v2.24h-3.921v3.941h-2.24v-3.941h-3.921v-2.24h3.921V18.628z"/>
		<path fill="#FFFFFF" d="M186.229,20.528h0.44c0.84,0,2.38-0.08,2.38-1.92c0-0.52-0.239-1.82-1.78-1.82
			c-1.92,0-1.92,1.82-1.92,2.32h-2.601c0-2.661,1.5-4.561,4.701-4.561c1.9,0,4.4,0.96,4.4,3.961c0,1.44-0.9,2.34-1.7,2.701v0.04
			c0.5,0.14,2.141,0.88,2.141,3.301c0,2.68-1.98,4.581-4.841,4.581c-1.341,0-4.941-0.3-4.941-4.741h2.74l-0.02,0.02
			c0,0.76,0.2,2.48,2.08,2.48c1.12,0,2.101-0.76,2.101-2.34c0-1.94-1.88-2.021-3.181-2.021V20.528z"/>
	</g>
	<g>
		<path fill="#FFFFFF" d="M146.67,38.628h2.24v3.941h3.922v2.24h-3.922v3.941h-2.24v-3.941h-3.92v-2.24h3.92V38.628z"/>
		<path fill="#FFFFFF" d="M164.152,45.609h-1.581v3.141h-2.801v-3.141h-5.601v-2.42l5.221-8.642h3.181v8.882h1.581V45.609z
			 M159.771,43.429c0-3.44,0.06-5.661,0.06-6.101h-0.039l-3.561,6.101H159.771z"/>
		<path fill="#FFFFFF" d="M175.03,38.628h2.24v3.941h3.921v2.24h-3.921v3.941h-2.24v-3.941h-3.921v-2.24h3.921V38.628z"/>
		<path fill="#FFFFFF" d="M189.331,38.148c-0.08-0.8-0.601-1.36-1.641-1.36c-1.82,0-2.24,2.08-2.341,3.921l0.041,0.04
			c0.379-0.52,1.08-1.18,2.66-1.18c2.94,0,4.341,2.261,4.341,4.381c0,3.101-1.9,5.181-4.642,5.181c-4.301,0-5.141-3.601-5.141-7.141
			c0-2.701,0.359-7.442,5.281-7.442c0.58,0,2.2,0.22,2.9,0.92c0.78,0.76,1.061,1.18,1.32,2.681H189.331z M187.551,41.809
			c-1.061,0-2.141,0.66-2.141,2.44c0,1.541,0.88,2.641,2.221,2.641c1.02,0,1.96-0.78,1.96-2.701
			C189.591,42.389,188.431,41.809,187.551,41.809z"/>
	</g>
	<g>
		<path fill="#FFFFFF" d="M175.023,58.239h2.24v3.941h3.922v2.24h-3.922v3.941h-2.24V64.42h-3.92v-2.24h3.92V58.239z"/>
		<path fill="#FFFFFF" d="M187.544,68.741c-3.661,0-4.921-2.38-4.921-4.321c0-0.72,0-2.601,2.16-3.601
			c-1.12-0.56-1.721-1.46-1.721-2.781c0-2.42,1.941-3.881,4.422-3.881c2.94,0,4.5,1.74,4.5,3.701c0,1.22-0.5,2.261-1.64,2.861
			c1.36,0.68,2.12,1.58,2.12,3.421C192.465,65.941,191.305,68.741,187.544,68.741z M187.504,62.04c-1.02,0-2,0.66-2,2.2
			c0,1.36,0.779,2.261,2.061,2.261c1.46,0,2.02-1.26,2.02-2.241C189.584,63.26,189.064,62.04,187.504,62.04z M189.305,58.159
			c0-1.08-0.74-1.76-1.641-1.76c-1.26,0-1.92,0.72-1.92,1.76c0,0.84,0.619,1.76,1.82,1.76
			C188.664,59.919,189.305,59.179,189.305,58.159z"/>
	</g>
	<g>
		<path fill="#FFFFFF" d="M22.033,157.536h-2.081v4.71h-3.687v-4.71H8.891v-3.63l6.874-12.959h4.188v13.319h2.081V157.536z
			 M16.265,154.267c0-5.16,0.079-8.49,0.079-9.149h-0.053l-4.688,9.149H16.265z"/>
		<path fill="#FFFFFF" d="M36.674,157.536h-2.081v4.71h-3.687v-4.71h-7.375v-3.63l6.874-12.959h4.188v13.319h2.081V157.536z
			 M30.906,154.267c0-5.16,0.079-8.49,0.079-9.149h-0.053l-4.688,9.149H30.906z"/>
	</g>
	<g>
	</g>
	<g>
	</g>
	<g>
	</g>
	<g>
		<path fill="#FFFFFF" d="M13.935,17.741h0.351c2.369,0,3.001-1.4,3.054-2.46h2.018v14.203H16.9v-9.782h-2.965V17.741z"/>
		<path fill="#FFFFFF" d="M25.52,15.281c2.93,0,4.316,2.301,4.316,7.282s-1.386,7.301-4.316,7.301c-2.931,0-4.317-2.32-4.317-7.301
			S22.589,15.281,25.52,15.281z M25.52,27.624c1.404,0,1.79-1.4,1.79-5.061s-0.386-5.041-1.79-5.041s-1.79,1.38-1.79,5.041
			S24.116,27.624,25.52,27.624z"/>
		<path fill="#FFFFFF" d="M29.77,17.741h0.351c2.369,0,3.001-1.4,3.054-2.46h2.018v14.203h-2.457v-9.782H29.77V17.741z"/>
		<path fill="#FFFFFF" d="M39.002,29.484H36.37v-2.92h2.632V29.484z"/>
		<path fill="#FFFFFF" d="M44.128,15.281c2.93,0,4.316,2.301,4.316,7.282s-1.386,7.301-4.316,7.301c-2.931,0-4.317-2.32-4.317-7.301
			S41.197,15.281,44.128,15.281z M44.128,27.624c1.404,0,1.79-1.4,1.79-5.061s-0.386-5.041-1.79-5.041s-1.79,1.38-1.79,5.041
			S42.724,27.624,44.128,27.624z"/>
		<path fill="#FFFFFF" d="M57.398,17.681c-1.193,1.48-4.247,5.682-4.545,11.803h-2.527c0.263-5.681,3.387-10.202,4.439-11.482
			h-6.194l0.053-2.48h8.774V17.681z"/>
	</g>
	<g>
		<path fill="#FFFFFF" d="M10.127,175.113c0-4.851,3.115-5.271,4.276-5.271c2.507,0,4.497,1.68,4.497,4.703
			c0,2.562-1.456,3.863-2.728,4.851c-1.733,1.385-2.636,2.057-2.931,2.75h5.677v2.604H9.979c0.092-1.742,0.203-3.569,3.041-5.921
			c2.359-1.952,3.3-2.708,3.3-4.388c0-0.987-0.553-2.121-1.807-2.121c-1.807,0-1.862,1.701-1.88,2.793H10.127z"/>
		<path fill="#FFFFFF" d="M24.468,180.236h-5.143v-2.73h5.143V180.236z"/>
		<path fill="#FFFFFF" d="M29.168,185.148c-3.374,0-4.535-2.498-4.535-4.535c0-0.756,0-2.729,1.991-3.779
			c-1.032-0.588-1.585-1.532-1.585-2.918c0-2.541,1.788-4.073,4.073-4.073c2.71,0,4.147,1.827,4.147,3.884
			c0,1.281-0.461,2.373-1.512,3.003c1.254,0.714,1.954,1.659,1.954,3.591C33.702,182.209,32.633,185.148,29.168,185.148z
			 M29.131,178.115c-0.94,0-1.843,0.693-1.843,2.31c0,1.428,0.719,2.372,1.898,2.372c1.346,0,1.862-1.322,1.862-2.352
			C31.048,179.396,30.568,178.115,29.131,178.115z M30.79,174.042c0-1.134-0.682-1.848-1.512-1.848c-1.161,0-1.77,0.756-1.77,1.848
			c0,0.882,0.571,1.848,1.677,1.848C30.2,175.89,30.79,175.113,30.79,174.042z"/>
		<path fill="#FFFFFF" d="M39.011,180.236h-5.143v-2.73h5.143V180.236z"/>
		<path fill="#FFFFFF" d="M39.859,172.426h0.369c2.488,0,3.152-1.471,3.207-2.583h2.12v14.907h-2.581v-10.268h-3.115V172.426z"/>
		<path fill="#FFFFFF" d="M52.394,185.148c-3.374,0-4.535-2.498-4.535-4.535c0-0.756,0-2.729,1.991-3.779
			c-1.032-0.588-1.585-1.532-1.585-2.918c0-2.541,1.788-4.073,4.073-4.073c2.71,0,4.147,1.827,4.147,3.884
			c0,1.281-0.461,2.373-1.512,3.003c1.254,0.714,1.954,1.659,1.954,3.591C56.928,182.209,55.858,185.148,52.394,185.148z
			 M52.356,178.115c-0.94,0-1.843,0.693-1.843,2.31c0,1.428,0.719,2.372,1.898,2.372c1.346,0,1.862-1.322,1.862-2.352
			C54.273,179.396,53.794,178.115,52.356,178.115z M54.016,174.042c0-1.134-0.682-1.848-1.512-1.848c-1.161,0-1.77,0.756-1.77,1.848
			c0,0.882,0.571,1.848,1.677,1.848C53.426,175.89,54.016,175.113,54.016,174.042z"/>
		<path fill="#FFFFFF" d="M62.236,180.236h-5.143v-2.73h5.143V180.236z"/>
		<path fill="#FFFFFF" d="M63.084,172.426h0.369c2.488,0,3.152-1.471,3.207-2.583h2.12v14.907h-2.581v-10.268h-3.115V172.426z"/>
		<path fill="#FFFFFF" d="M73.702,175.806c0.479-0.378,1.069-0.819,2.341-0.819c1.751,0,3.963,1.387,3.963,4.809
			c0,2.037-0.903,5.354-4.756,5.354c-2.046,0-4.129-1.385-4.258-4.388h2.581c0.111,1.218,0.682,2.036,1.825,2.036
			c1.235,0,1.954-1.196,1.954-2.792c0-1.323-0.553-2.667-1.917-2.667c-0.35,0-1.235,0.021-1.732,1.071l-2.304-0.126l0.903-8.188
			h7.189v2.478h-5.327L73.702,175.806z"/>
		<path fill="#FFFFFF" d="M85.462,180.236h-5.143v-2.73h5.143V180.236z"/>
		<path fill="#FFFFFF" d="M86.31,172.426h0.369c2.488,0,3.152-1.471,3.207-2.583h2.12v14.907h-2.581v-10.268H86.31V172.426z"/>
	</g>
	<g>
	</g>
	<g>
	</g>
	<g>
	</g>
	<g>
	</g>
	<g>
	</g>
	<g>
	</g>
</g>
</svg>
