<?xml version="1.0" encoding="utf-8"?>
<!-- Generator: Adobe Illustrator 16.0.0, SVG Export Plug-In . SVG Version: 6.00 Build 0)  -->
<!DOCTYPE svg PUBLIC "-//W3C//DTD SVG 1.1//EN" "http://www.w3.org/Graphics/SVG/1.1/DTD/svg11.dtd">
<svg version="1.1" xmlns="http://www.w3.org/2000/svg" xmlns:xlink="http://www.w3.org/1999/xlink" x="0px" y="0px" width="200px"
	 height="200px" viewBox="0 0 200 200" enable-background="new 0 0 200 200" xml:space="preserve">
<g id="Arriere-Plan">
	<rect fill="#FFFFFF" width="200" height="200"/>
</g>
<g id="Fond">
	<linearGradient id="SVGID_1_" gradientUnits="userSpaceOnUse" x1="-7.2217" y1="19.6768" x2="193.1594" y2="169.7889">
		<stop  offset="0" style="stop-color:#62B283"/>
		<stop  offset="0.1351" style="stop-color:#5FAA7C"/>
		<stop  offset="0.3166" style="stop-color:#589B6D"/>
		<stop  offset="0.5244" style="stop-color:#4C8256"/>
		<stop  offset="0.7519" style="stop-color:#3A633A"/>
		<stop  offset="0.9929" style="stop-color:#24411D"/>
		<stop  offset="1" style="stop-color:#23401C"/>
	</linearGradient>
	<rect x="4" y="4" fill="url(#SVGID_1_)" width="192" height="192"/>
</g>
<g id="Texte">
	<g>
		<path fill="#FFFFFF" d="M56.5,138.715H40.7V52.559h34.548c14.641,0,23.489,10.679,23.489,27.599c0,7.8-3.792,27.479-24.121,27.479
			H56.5V138.715z M71.141,92.757c11.797,0,11.797-9.6,11.797-13.439c0-8.4-4.108-11.88-13.904-11.88H56.5v25.319H71.141z"/>
		<path fill="#FFFFFF" d="M160.988,138.715h-14.432v-8.04h-0.211c-3.58,7.2-10.111,9.72-16.221,9.72
			c-16.643,0-23.594-16.799-23.594-34.318c0-22.079,10.955-32.879,23.277-32.879c9.48,0,13.904,5.88,16.221,9.96h0.211V52.559
			h14.748V138.715z M133.813,126.596c9.373,0,13.061-8.88,13.061-18.359c0-10.2-2.527-20.52-12.641-20.52
			c-9.373,0-12.533,9.479-12.533,19.56C121.699,114.836,124.332,126.596,133.813,126.596z"/>
	</g>
	<g>
		<path fill="#FFFFFF" d="M130.816,14.531c3.342,0,4.922,2.301,4.922,7.282s-1.58,7.301-4.922,7.301c-3.34,0-4.92-2.32-4.92-7.301
			S127.477,14.531,130.816,14.531z M130.816,26.874c1.602,0,2.041-1.4,2.041-5.061s-0.439-5.041-2.041-5.041
			c-1.6,0-2.04,1.38-2.04,5.041S129.217,26.874,130.816,26.874z"/>
		<path fill="#FFFFFF" d="M146.657,18.612h2.24v3.941h3.921v2.24h-3.921v3.941h-2.24v-3.941h-3.921v-2.24h3.921V18.612z"/>
		<path fill="#FFFFFF" d="M154.996,16.992h0.4c2.7,0,3.42-1.4,3.48-2.46h2.301v14.203h-2.801v-9.782h-3.381V16.992z"/>
		<path fill="#FFFFFF" d="M175.017,18.612h2.241v3.941h3.92v2.24h-3.92v3.941h-2.241v-3.941h-3.921v-2.24h3.921V18.612z"/>
		<path fill="#FFFFFF" d="M182.655,19.552c0-4.621,3.381-5.021,4.642-5.021c2.721,0,4.881,1.601,4.881,4.481
			c0,2.44-1.58,3.681-2.961,4.621c-1.88,1.32-2.86,1.96-3.181,2.621h6.162v2.48h-9.702c0.1-1.66,0.22-3.401,3.301-5.641
			c2.561-1.86,3.58-2.581,3.58-4.181c0-0.94-0.6-2.021-1.96-2.021c-1.961,0-2.021,1.621-2.041,2.661H182.655z"/>
	</g>
	<g>
		<path fill="#FFFFFF" d="M146.67,38.628h2.24v3.941h3.922v2.24h-3.922v3.941h-2.24v-3.941h-3.92v-2.24h3.92V38.628z"/>
		<path fill="#FFFFFF" d="M164.152,45.609h-1.581v3.141h-2.801v-3.141h-5.601v-2.42l5.221-8.642h3.181v8.882h1.581V45.609z
			 M159.771,43.429c0-3.44,0.06-5.661,0.06-6.101h-0.039l-3.561,6.101H159.771z"/>
		<path fill="#FFFFFF" d="M175.03,38.628h2.24v3.941h3.921v2.24h-3.921v3.941h-2.24v-3.941h-3.921v-2.24h3.921V38.628z"/>
		<path fill="#FFFFFF" d="M189.331,38.148c-0.08-0.8-0.601-1.36-1.641-1.36c-1.82,0-2.24,2.08-2.341,3.921l0.041,0.04
			c0.379-0.52,1.08-1.18,2.66-1.18c2.94,0,4.341,2.261,4.341,4.381c0,3.101-1.9,5.181-4.642,5.181c-4.301,0-5.141-3.601-5.141-7.141
			c0-2.701,0.359-7.442,5.281-7.442c0.58,0,2.2,0.22,2.9,0.92c0.78,0.76,1.061,1.18,1.32,2.681H189.331z M187.551,41.809
			c-1.061,0-2.141,0.66-2.141,2.44c0,1.541,0.88,2.641,2.221,2.641c1.02,0,1.96-0.78,1.96-2.701
			C189.591,42.389,188.431,41.809,187.551,41.809z"/>
	</g>
	<g>
	</g>
	<g>
		<path fill="#FFFFFF" d="M22.033,157.536h-2.081v4.71h-3.687v-4.71H8.891v-3.63l6.874-12.959h4.188v13.319h2.081V157.536z
			 M16.265,154.267c0-5.16,0.079-8.49,0.079-9.149h-0.053l-4.688,9.149H16.265z"/>
		<path fill="#FFFFFF" d="M32.486,146.347c-0.105-1.2-0.79-2.04-2.16-2.04c-2.396,0-2.95,3.12-3.082,5.88l0.053,0.061
			c0.5-0.78,1.422-1.771,3.503-1.771c3.872,0,5.715,3.39,5.715,6.569c0,4.65-2.502,7.771-6.11,7.771c-5.663,0-6.769-5.4-6.769-10.71
			c0-4.05,0.474-11.159,6.953-11.159c0.764,0,2.897,0.33,3.819,1.38c1.027,1.14,1.396,1.77,1.738,4.02H32.486z M30.143,151.837
			c-1.396,0-2.818,0.989-2.818,3.659c0,2.311,1.159,3.96,2.923,3.96c1.343,0,2.581-1.17,2.581-4.05
			C32.829,152.706,31.301,151.837,30.143,151.837z"/>
	</g>
	<g>
	</g>
	<g>
	</g>
	<g>
	</g>
	<g>
		<path fill="#FFFFFF" d="M13.935,17.741h0.351c2.369,0,3.001-1.4,3.054-2.46h2.018v14.203H16.9v-9.782h-2.965V17.741z"/>
		<path fill="#FFFFFF" d="M25.52,15.281c2.93,0,4.316,2.301,4.316,7.282s-1.386,7.301-4.316,7.301c-2.931,0-4.317-2.32-4.317-7.301
			S22.589,15.281,25.52,15.281z M25.52,27.624c1.404,0,1.79-1.4,1.79-5.061s-0.386-5.041-1.79-5.041s-1.79,1.38-1.79,5.041
			S24.116,27.624,25.52,27.624z"/>
		<path fill="#FFFFFF" d="M35.964,18.882c-0.07-0.8-0.526-1.36-1.439-1.36c-1.597,0-1.965,2.08-2.053,3.921l0.035,0.04
			c0.333-0.52,0.948-1.18,2.334-1.18c2.58,0,3.808,2.261,3.808,4.381c0,3.101-1.667,5.181-4.071,5.181
			c-3.773,0-4.51-3.601-4.51-7.141c0-2.701,0.316-7.442,4.633-7.442c0.509,0,1.93,0.22,2.544,0.92c0.685,0.76,0.93,1.18,1.158,2.681
			H35.964z M34.402,22.542c-0.93,0-1.878,0.66-1.878,2.44c0,1.541,0.772,2.641,1.948,2.641c0.895,0,1.72-0.78,1.72-2.701
			C36.192,23.123,35.174,22.542,34.402,22.542z"/>
		<path fill="#FFFFFF" d="M42.163,29.484H39.53v-2.92h2.632V29.484z"/>
		<path fill="#FFFFFF" d="M51.64,26.343h-1.386v3.141h-2.457v-3.141h-4.914v-2.42l4.58-8.642h2.79v8.882h1.386V26.343z
			 M47.797,24.163c0-3.44,0.053-5.661,0.053-6.101h-0.035l-3.124,6.101H47.797z"/>
		<path fill="#FFFFFF" d="M51.889,20.302c0-4.621,2.965-5.021,4.071-5.021c2.387,0,4.282,1.601,4.282,4.481
			c0,2.44-1.386,3.681-2.597,4.621c-1.649,1.32-2.509,1.96-2.79,2.621h5.405v2.48h-8.511c0.088-1.66,0.193-3.401,2.896-5.641
			c2.246-1.86,3.141-2.581,3.141-4.181c0-0.94-0.526-2.021-1.72-2.021c-1.72,0-1.772,1.621-1.79,2.661H51.889z"/>
	</g>
	<g>
		<path fill="#FFFFFF" d="M10.127,175.113c0-4.851,3.115-5.271,4.276-5.271c2.507,0,4.497,1.68,4.497,4.703
			c0,2.562-1.456,3.863-2.728,4.851c-1.733,1.385-2.636,2.057-2.931,2.75h5.677v2.604H9.979c0.092-1.742,0.203-3.569,3.041-5.921
			c2.359-1.952,3.3-2.708,3.3-4.388c0-0.987-0.553-2.121-1.807-2.121c-1.807,0-1.862,1.701-1.88,2.793H10.127z"/>
		<path fill="#FFFFFF" d="M24.468,180.236h-5.143v-2.73h5.143V180.236z"/>
		<path fill="#FFFFFF" d="M29.168,185.148c-3.374,0-4.535-2.498-4.535-4.535c0-0.756,0-2.729,1.991-3.779
			c-1.032-0.588-1.585-1.532-1.585-2.918c0-2.541,1.788-4.073,4.073-4.073c2.71,0,4.147,1.827,4.147,3.884
			c0,1.281-0.461,2.373-1.512,3.003c1.254,0.714,1.954,1.659,1.954,3.591C33.702,182.209,32.633,185.148,29.168,185.148z
			 M29.131,178.115c-0.94,0-1.843,0.693-1.843,2.31c0,1.428,0.719,2.372,1.898,2.372c1.346,0,1.862-1.322,1.862-2.352
			C31.048,179.396,30.568,178.115,29.131,178.115z M30.79,174.042c0-1.134-0.682-1.848-1.512-1.848c-1.161,0-1.77,0.756-1.77,1.848
			c0,0.882,0.571,1.848,1.677,1.848C30.2,175.89,30.79,175.113,30.79,174.042z"/>
		<path fill="#FFFFFF" d="M39.011,180.236h-5.143v-2.73h5.143V180.236z"/>
		<path fill="#FFFFFF" d="M39.859,172.426h0.369c2.488,0,3.152-1.471,3.207-2.583h2.12v14.907h-2.581v-10.268h-3.115V172.426z"/>
		<path fill="#FFFFFF" d="M52.394,185.148c-3.374,0-4.535-2.498-4.535-4.535c0-0.756,0-2.729,1.991-3.779
			c-1.032-0.588-1.585-1.532-1.585-2.918c0-2.541,1.788-4.073,4.073-4.073c2.71,0,4.147,1.827,4.147,3.884
			c0,1.281-0.461,2.373-1.512,3.003c1.254,0.714,1.954,1.659,1.954,3.591C56.928,182.209,55.858,185.148,52.394,185.148z
			 M52.356,178.115c-0.94,0-1.843,0.693-1.843,2.31c0,1.428,0.719,2.372,1.898,2.372c1.346,0,1.862-1.322,1.862-2.352
			C54.273,179.396,53.794,178.115,52.356,178.115z M54.016,174.042c0-1.134-0.682-1.848-1.512-1.848c-1.161,0-1.77,0.756-1.77,1.848
			c0,0.882,0.571,1.848,1.677,1.848C53.426,175.89,54.016,175.113,54.016,174.042z"/>
		<path fill="#FFFFFF" d="M62.236,180.236h-5.143v-2.73h5.143V180.236z"/>
		<path fill="#FFFFFF" d="M63.084,172.426h0.369c2.488,0,3.152-1.471,3.207-2.583h2.12v14.907h-2.581v-10.268h-3.115V172.426z"/>
		<path fill="#FFFFFF" d="M75.619,185.148c-3.374,0-4.535-2.498-4.535-4.535c0-0.756,0-2.729,1.991-3.779
			c-1.032-0.588-1.585-1.532-1.585-2.918c0-2.541,1.788-4.073,4.073-4.073c2.71,0,4.147,1.827,4.147,3.884
			c0,1.281-0.461,2.373-1.512,3.003c1.254,0.714,1.954,1.659,1.954,3.591C80.153,182.209,79.084,185.148,75.619,185.148z
			 M75.582,178.115c-0.94,0-1.843,0.693-1.843,2.31c0,1.428,0.719,2.372,1.898,2.372c1.346,0,1.862-1.322,1.862-2.352
			C77.499,179.396,77.02,178.115,75.582,178.115z M77.241,174.042c0-1.134-0.682-1.848-1.512-1.848c-1.161,0-1.77,0.756-1.77,1.848
			c0,0.882,0.571,1.848,1.677,1.848C76.651,175.89,77.241,175.113,77.241,174.042z"/>
		<path fill="#FFFFFF" d="M85.462,180.236h-5.143v-2.73h5.143V180.236z"/>
		<path fill="#FFFFFF" d="M90.162,169.843c3.079,0,4.535,2.415,4.535,7.643s-1.456,7.663-4.535,7.663
			c-3.078,0-4.534-2.436-4.534-7.663S87.084,169.843,90.162,169.843z M90.162,182.797c1.475,0,1.88-1.469,1.88-5.312
			s-0.406-5.291-1.88-5.291s-1.88,1.448-1.88,5.291S88.688,182.797,90.162,182.797z"/>
	</g>
	<g>
	</g>
	<g>
	</g>
	<g>
	</g>
	<g>
	</g>
	<g>
	</g>
	<g>
	</g>
</g>
</svg>
