<?xml version="1.0" encoding="utf-8"?>
<!-- Generator: Adobe Illustrator 16.0.0, SVG Export Plug-In . SVG Version: 6.00 Build 0)  -->
<!DOCTYPE svg PUBLIC "-//W3C//DTD SVG 1.1//EN" "http://www.w3.org/Graphics/SVG/1.1/DTD/svg11.dtd">
<svg version="1.1" xmlns="http://www.w3.org/2000/svg" xmlns:xlink="http://www.w3.org/1999/xlink" x="0px" y="0px" width="200px"
	 height="200px" viewBox="0 0 200 200" enable-background="new 0 0 200 200" xml:space="preserve">
<g id="Arriere-Plan">
	<rect fill="#FFFFFF" width="200" height="200"/>
</g>
<g id="Fond">
	<linearGradient id="SVGID_1_" gradientUnits="userSpaceOnUse" x1="-7.2217" y1="19.6768" x2="193.1594" y2="169.7889">
		<stop  offset="0" style="stop-color:#62B283"/>
		<stop  offset="0.1351" style="stop-color:#5FAA7C"/>
		<stop  offset="0.3166" style="stop-color:#589B6D"/>
		<stop  offset="0.5244" style="stop-color:#4C8256"/>
		<stop  offset="0.7519" style="stop-color:#3A633A"/>
		<stop  offset="0.9929" style="stop-color:#24411D"/>
		<stop  offset="1" style="stop-color:#23401C"/>
	</linearGradient>
	<rect x="4" y="4" fill="url(#SVGID_1_)" width="192" height="192"/>
</g>
<g id="Texte">
	<g>
		<path fill="#FFFFFF" d="M86.045,80.757c-1.264-5.16-3.687-14.879-16.748-14.879c-7.584,0-18.749,5.76-18.749,30.119
			c0,15.479,5.372,29.399,18.749,29.399c8.742,0,14.852-5.64,16.748-16.199h15.8c-3.161,18.719-13.904,31.799-32.864,31.799
			c-20.118,0-34.548-15.479-34.548-45.238c0-30.119,15.273-45.479,34.759-45.479c22.646,0,31.81,17.759,32.653,30.479H86.045z"/>
		<path fill="#FFFFFF" d="M163.885,138.715h-14.432v-8.04h-0.211c-3.58,7.2-10.111,9.72-16.221,9.72
			c-16.643,0-23.594-16.799-23.594-34.318c0-22.079,10.955-32.879,23.277-32.879c9.48,0,13.904,5.88,16.221,9.96h0.211V52.559
			h14.748V138.715z M136.709,126.596c9.373,0,13.061-8.88,13.061-18.359c0-10.2-2.527-20.52-12.641-20.52
			c-9.373,0-12.533,9.479-12.533,19.56C124.596,114.836,127.229,126.596,136.709,126.596z"/>
	</g>
	<g>
		<path fill="#FFFFFF" d="M175.023,18.628h2.24v3.941h3.922v2.24h-3.922v3.941h-2.24v-3.941h-3.92v-2.24h3.92V18.628z"/>
		<path fill="#FFFFFF" d="M182.663,19.568c0-4.621,3.381-5.021,4.642-5.021c2.72,0,4.881,1.601,4.881,4.481
			c0,2.44-1.58,3.681-2.961,4.621c-1.881,1.32-2.861,1.96-3.181,2.621h6.161v2.48h-9.702c0.101-1.66,0.22-3.401,3.301-5.641
			c2.561-1.86,3.581-2.581,3.581-4.181c0-0.94-0.601-2.021-1.961-2.021c-1.96,0-2.02,1.621-2.04,2.661H182.663z"/>
	</g>
	<g>
	</g>
	<g>
	</g>
	<g>
		<path fill="#FFFFFF" d="M22.033,157.536h-2.081v4.71h-3.687v-4.71H8.891v-3.63l6.874-12.959h4.188v13.319h2.081V157.536z
			 M16.265,154.267c0-5.16,0.079-8.49,0.079-9.149h-0.053l-4.688,9.149H16.265z"/>
		<path fill="#FFFFFF" d="M30.143,162.816c-4.82,0-6.479-3.57-6.479-6.48c0-1.079,0-3.899,2.844-5.399
			c-1.475-0.84-2.265-2.189-2.265-4.17c0-3.63,2.555-5.819,5.82-5.819c3.872,0,5.926,2.609,5.926,5.55c0,1.83-0.659,3.39-2.16,4.289
			c1.791,1.021,2.792,2.37,2.792,5.13C36.621,158.616,35.094,162.816,30.143,162.816z M30.09,152.767c-1.343,0-2.634,0.99-2.634,3.3
			c0,2.04,1.027,3.39,2.713,3.39c1.922,0,2.66-1.89,2.66-3.359C32.829,154.597,32.144,152.767,30.09,152.767z M32.46,146.946
			c0-1.619-0.975-2.64-2.16-2.64c-1.659,0-2.528,1.08-2.528,2.64c0,1.261,0.816,2.641,2.397,2.641
			C31.617,149.587,32.46,148.477,32.46,146.946z"/>
	</g>
	<g>
	</g>
	<g>
	</g>
	<g>
	</g>
	<g>
		<path fill="#FFFFFF" d="M13.935,17.741h0.351c2.369,0,3.001-1.4,3.054-2.46h2.018v14.203H16.9v-9.782h-2.965V17.741z"/>
		<path fill="#FFFFFF" d="M21.15,17.741H21.5c2.369,0,3.001-1.4,3.054-2.46h2.018v14.203h-2.457v-9.782H21.15V17.741z"/>
		<path fill="#FFFFFF" d="M28.804,20.302c0-4.621,2.965-5.021,4.071-5.021c2.387,0,4.282,1.601,4.282,4.481
			c0,2.44-1.386,3.681-2.597,4.621c-1.649,1.32-2.509,1.96-2.79,2.621h5.405v2.48h-8.511c0.088-1.66,0.193-3.401,2.896-5.641
			c2.246-1.86,3.141-2.581,3.141-4.181c0-0.94-0.526-2.021-1.72-2.021c-1.72,0-1.772,1.621-1.79,2.661H28.804z"/>
		<path fill="#FFFFFF" d="M40.846,29.484h-2.632v-2.92h2.632V29.484z"/>
		<path fill="#FFFFFF" d="M50.323,26.343h-1.386v3.141H46.48v-3.141h-4.914v-2.42l4.58-8.642h2.79v8.882h1.386V26.343z
			 M46.48,24.163c0-3.44,0.053-5.661,0.053-6.101h-0.035l-3.124,6.101H46.48z"/>
		<path fill="#FFFFFF" d="M51.187,17.741h0.351c2.369,0,3.001-1.4,3.054-2.46h2.018v14.203h-2.457v-9.782h-2.965V17.741z"/>
		<path fill="#FFFFFF" d="M58.402,17.741h0.351c2.369,0,3.001-1.4,3.054-2.46h2.018v14.203h-2.457v-9.782h-2.965V17.741z"/>
	</g>
	<g>
		<path fill="#FFFFFF" d="M10.127,175.113c0-4.851,3.115-5.271,4.276-5.271c2.507,0,4.497,1.68,4.497,4.703
			c0,2.562-1.456,3.863-2.728,4.851c-1.733,1.385-2.636,2.057-2.931,2.75h5.677v2.604H9.979c0.092-1.742,0.203-3.569,3.041-5.921
			c2.359-1.952,3.3-2.708,3.3-4.388c0-0.987-0.553-2.121-1.807-2.121c-1.807,0-1.862,1.701-1.88,2.793H10.127z"/>
		<path fill="#FFFFFF" d="M24.468,180.236h-5.143v-2.73h5.143V180.236z"/>
		<path fill="#FFFFFF" d="M29.168,185.148c-3.374,0-4.535-2.498-4.535-4.535c0-0.756,0-2.729,1.991-3.779
			c-1.032-0.588-1.585-1.532-1.585-2.918c0-2.541,1.788-4.073,4.073-4.073c2.71,0,4.147,1.827,4.147,3.884
			c0,1.281-0.461,2.373-1.512,3.003c1.254,0.714,1.954,1.659,1.954,3.591C33.702,182.209,32.633,185.148,29.168,185.148z
			 M29.131,178.115c-0.94,0-1.843,0.693-1.843,2.31c0,1.428,0.719,2.372,1.898,2.372c1.346,0,1.862-1.322,1.862-2.352
			C31.048,179.396,30.568,178.115,29.131,178.115z M30.79,174.042c0-1.134-0.682-1.848-1.512-1.848c-1.161,0-1.77,0.756-1.77,1.848
			c0,0.882,0.571,1.848,1.677,1.848C30.2,175.89,30.79,175.113,30.79,174.042z"/>
		<path fill="#FFFFFF" d="M39.011,180.236h-5.143v-2.73h5.143V180.236z"/>
		<path fill="#FFFFFF" d="M39.859,172.426h0.369c2.488,0,3.152-1.471,3.207-2.583h2.12v14.907h-2.581v-10.268h-3.115V172.426z"/>
		<path fill="#FFFFFF" d="M52.394,185.148c-3.374,0-4.535-2.498-4.535-4.535c0-0.756,0-2.729,1.991-3.779
			c-1.032-0.588-1.585-1.532-1.585-2.918c0-2.541,1.788-4.073,4.073-4.073c2.71,0,4.147,1.827,4.147,3.884
			c0,1.281-0.461,2.373-1.512,3.003c1.254,0.714,1.954,1.659,1.954,3.591C56.928,182.209,55.858,185.148,52.394,185.148z
			 M52.356,178.115c-0.94,0-1.843,0.693-1.843,2.31c0,1.428,0.719,2.372,1.898,2.372c1.346,0,1.862-1.322,1.862-2.352
			C54.273,179.396,53.794,178.115,52.356,178.115z M54.016,174.042c0-1.134-0.682-1.848-1.512-1.848c-1.161,0-1.77,0.756-1.77,1.848
			c0,0.882,0.571,1.848,1.677,1.848C53.426,175.89,54.016,175.113,54.016,174.042z"/>
		<path fill="#FFFFFF" d="M62.236,180.236h-5.143v-2.73h5.143V180.236z"/>
		<path fill="#FFFFFF" d="M63.084,172.426h0.369c2.488,0,3.152-1.471,3.207-2.583h2.12v14.907h-2.581v-10.268h-3.115V172.426z"/>
		<path fill="#FFFFFF" d="M75.619,185.148c-3.374,0-4.535-2.498-4.535-4.535c0-0.756,0-2.729,1.991-3.779
			c-1.032-0.588-1.585-1.532-1.585-2.918c0-2.541,1.788-4.073,4.073-4.073c2.71,0,4.147,1.827,4.147,3.884
			c0,1.281-0.461,2.373-1.512,3.003c1.254,0.714,1.954,1.659,1.954,3.591C80.153,182.209,79.084,185.148,75.619,185.148z
			 M75.582,178.115c-0.94,0-1.843,0.693-1.843,2.31c0,1.428,0.719,2.372,1.898,2.372c1.346,0,1.862-1.322,1.862-2.352
			C77.499,179.396,77.02,178.115,75.582,178.115z M77.241,174.042c0-1.134-0.682-1.848-1.512-1.848c-1.161,0-1.77,0.756-1.77,1.848
			c0,0.882,0.571,1.848,1.677,1.848C76.651,175.89,77.241,175.113,77.241,174.042z"/>
		<path fill="#FFFFFF" d="M85.462,180.236h-5.143v-2.73h5.143V180.236z"/>
		<path fill="#FFFFFF" d="M85.665,175.113c0-4.851,3.115-5.271,4.276-5.271c2.507,0,4.497,1.68,4.497,4.703
			c0,2.562-1.456,3.863-2.728,4.851c-1.733,1.385-2.636,2.057-2.931,2.75h5.677v2.604h-8.939c0.092-1.742,0.203-3.569,3.041-5.921
			c2.359-1.952,3.3-2.708,3.3-4.388c0-0.987-0.553-2.121-1.807-2.121c-1.807,0-1.862,1.701-1.88,2.793H85.665z"/>
	</g>
	<g>
	</g>
	<g>
	</g>
	<g>
	</g>
	<g>
	</g>
	<g>
	</g>
	<g>
	</g>
</g>
</svg>
