<?xml version="1.0" encoding="utf-8"?>
<!-- Generator: Adobe Illustrator 16.0.0, SVG Export Plug-In . SVG Version: 6.00 Build 0)  -->
<!DOCTYPE svg PUBLIC "-//W3C//DTD SVG 1.1//EN" "http://www.w3.org/Graphics/SVG/1.1/DTD/svg11.dtd">
<svg version="1.1" xmlns="http://www.w3.org/2000/svg" xmlns:xlink="http://www.w3.org/1999/xlink" x="0px" y="0px" width="200px"
	 height="200px" viewBox="0 0 200 200" enable-background="new 0 0 200 200" xml:space="preserve">
<g id="Arriere-Plan">
	<rect fill="#FFFFFF" width="200" height="200"/>
</g>
<g id="Fond">
	<linearGradient id="SVGID_1_" gradientUnits="userSpaceOnUse" x1="-7.2217" y1="19.6768" x2="193.1594" y2="169.7889">
		<stop  offset="0" style="stop-color:#62B283"/>
		<stop  offset="0.1351" style="stop-color:#5FAA7C"/>
		<stop  offset="0.3166" style="stop-color:#589B6D"/>
		<stop  offset="0.5244" style="stop-color:#4C8256"/>
		<stop  offset="0.7519" style="stop-color:#3A633A"/>
		<stop  offset="0.9929" style="stop-color:#24411D"/>
		<stop  offset="1" style="stop-color:#23401C"/>
	</linearGradient>
	<rect x="4" y="4" fill="url(#SVGID_1_)" width="192" height="192"/>
</g>
<g id="Texte">
	<g>
		<path fill="#FFFFFF" d="M58.605,138.715H42.806V52.559h34.548c14.641,0,23.489,10.679,23.489,27.599
			c0,7.8-3.792,27.479-24.121,27.479H58.605V138.715z M73.246,92.757c11.797,0,11.797-9.6,11.797-13.439
			c0-8.4-4.108-11.88-13.904-11.88H58.605v25.319H73.246z"/>
		<path fill="#FFFFFF" d="M133.074,140.395c-15.063,0-28.65-10.56-28.65-33.599s13.588-33.599,28.65-33.599
			s28.65,10.56,28.65,33.599S148.137,140.395,133.074,140.395z M133.074,87.357c-11.375,0-13.482,11.28-13.482,19.439
			c0,8.16,2.107,19.439,13.482,19.439c11.377,0,13.482-11.279,13.482-19.439C146.557,98.637,144.451,87.357,133.074,87.357z"/>
	</g>
	<g>
		<path fill="#FFFFFF" d="M175.023,18.628h2.24v3.941h3.922v2.24h-3.922v3.941h-2.24v-3.941h-3.92v-2.24h3.92V18.628z"/>
		<path fill="#FFFFFF" d="M192.506,25.609h-1.581v3.141h-2.801v-3.141h-5.601v-2.42l5.221-8.642h3.181v8.882h1.581V25.609z
			 M188.124,23.429c0-3.44,0.06-5.661,0.06-6.101h-0.039l-3.561,6.101H188.124z"/>
	</g>
	<g>
		<path fill="#FFFFFF" d="M175.023,38.628h2.24v3.941h3.922v2.24h-3.922v3.941h-2.24v-3.941h-3.92v-2.24h3.92V38.628z"/>
		<path fill="#FFFFFF" d="M182.663,39.568c0-4.621,3.381-5.021,4.642-5.021c2.72,0,4.881,1.601,4.881,4.481
			c0,2.44-1.58,3.681-2.961,4.621c-1.881,1.32-2.861,1.96-3.181,2.621h6.161v2.48h-9.702c0.101-1.66,0.22-3.401,3.301-5.641
			c2.561-1.86,3.581-2.581,3.581-4.181c0-0.94-0.601-2.021-1.961-2.021c-1.96,0-2.02,1.621-2.04,2.661H182.663z"/>
	</g>
	<g>
	</g>
	<g>
		<path fill="#FFFFFF" d="M15.501,162.816c-4.82,0-6.479-3.57-6.479-6.48c0-1.079,0-3.899,2.844-5.399
			c-1.475-0.84-2.265-2.189-2.265-4.17c0-3.63,2.555-5.819,5.82-5.819c3.872,0,5.926,2.609,5.926,5.55c0,1.83-0.659,3.39-2.16,4.289
			c1.791,1.021,2.792,2.37,2.792,5.13C21.98,158.616,20.453,162.816,15.501,162.816z M15.449,152.767c-1.343,0-2.634,0.99-2.634,3.3
			c0,2.04,1.027,3.39,2.713,3.39c1.922,0,2.66-1.89,2.66-3.359C18.188,154.597,17.503,152.767,15.449,152.767z M17.819,146.946
			c0-1.619-0.975-2.64-2.16-2.64c-1.659,0-2.528,1.08-2.528,2.64c0,1.261,0.816,2.641,2.397,2.641
			C16.976,149.587,17.819,148.477,17.819,146.946z"/>
		<path fill="#FFFFFF" d="M36.674,157.536h-2.081v4.71h-3.687v-4.71h-7.375v-3.63l6.874-12.959h4.188v13.319h2.081V157.536z
			 M30.906,154.267c0-5.16,0.079-8.49,0.079-9.149h-0.053l-4.688,9.149H30.906z"/>
	</g>
	<g>
	</g>
	<g>
	</g>
	<g>
	</g>
	<g>
		<path fill="#FFFFFF" d="M13.32,20.302c0-4.621,2.965-5.021,4.071-5.021c2.387,0,4.282,1.601,4.282,4.481
			c0,2.44-1.386,3.681-2.597,4.621c-1.649,1.32-2.509,1.96-2.79,2.621h5.405v2.48H13.18c0.088-1.66,0.193-3.401,2.896-5.641
			c2.246-1.86,3.141-2.581,3.141-4.181c0-0.94-0.526-2.021-1.72-2.021c-1.72,0-1.772,1.621-1.79,2.661H13.32z"/>
		<path fill="#FFFFFF" d="M26.485,15.281c2.93,0,4.316,2.301,4.316,7.282s-1.386,7.301-4.316,7.301c-2.931,0-4.317-2.32-4.317-7.301
			S23.554,15.281,26.485,15.281z M26.485,27.624c1.404,0,1.79-1.4,1.79-5.061s-0.386-5.041-1.79-5.041s-1.79,1.38-1.79,5.041
			S25.081,27.624,26.485,27.624z"/>
		<path fill="#FFFFFF" d="M33.701,26.203v0.02c0.14,0.98,0.684,1.4,1.438,1.4c1.018,0,2.036-0.98,2.053-3.961l-0.035-0.04
			c-0.562,0.96-1.526,1.2-2.369,1.2c-2.387,0-3.773-2.061-3.773-4.441c0-3.48,1.808-5.101,4.247-5.101
			c4.317,0,4.387,5.301,4.387,7.302c0,5.501-2.281,7.281-4.527,7.281c-2.123,0-3.649-1.4-3.86-3.661H33.701z M35.315,22.583
			c0.86,0,1.807-0.7,1.807-2.381c0-1.62-0.614-2.62-1.877-2.62c-0.632,0-1.772,0.36-1.772,2.4
			C33.472,22.123,34.385,22.583,35.315,22.583z"/>
	</g>
	<g>
		<path fill="#FFFFFF" d="M10.127,175.113c0-4.851,3.115-5.271,4.276-5.271c2.507,0,4.497,1.68,4.497,4.703
			c0,2.562-1.456,3.863-2.728,4.851c-1.733,1.385-2.636,2.057-2.931,2.75h5.677v2.604H9.979c0.092-1.742,0.203-3.569,3.041-5.921
			c2.359-1.952,3.3-2.708,3.3-4.388c0-0.987-0.553-2.121-1.807-2.121c-1.807,0-1.862,1.701-1.88,2.793H10.127z"/>
		<path fill="#FFFFFF" d="M24.468,180.236h-5.143v-2.73h5.143V180.236z"/>
		<path fill="#FFFFFF" d="M29.168,185.148c-3.374,0-4.535-2.498-4.535-4.535c0-0.756,0-2.729,1.991-3.779
			c-1.032-0.588-1.585-1.532-1.585-2.918c0-2.541,1.788-4.073,4.073-4.073c2.71,0,4.147,1.827,4.147,3.884
			c0,1.281-0.461,2.373-1.512,3.003c1.254,0.714,1.954,1.659,1.954,3.591C33.702,182.209,32.633,185.148,29.168,185.148z
			 M29.131,178.115c-0.94,0-1.843,0.693-1.843,2.31c0,1.428,0.719,2.372,1.898,2.372c1.346,0,1.862-1.322,1.862-2.352
			C31.048,179.396,30.568,178.115,29.131,178.115z M30.79,174.042c0-1.134-0.682-1.848-1.512-1.848c-1.161,0-1.77,0.756-1.77,1.848
			c0,0.882,0.571,1.848,1.677,1.848C30.2,175.89,30.79,175.113,30.79,174.042z"/>
		<path fill="#FFFFFF" d="M39.011,180.236h-5.143v-2.73h5.143V180.236z"/>
		<path fill="#FFFFFF" d="M39.859,172.426h0.369c2.488,0,3.152-1.471,3.207-2.583h2.12v14.907h-2.581v-10.268h-3.115V172.426z"/>
		<path fill="#FFFFFF" d="M52.394,185.148c-3.374,0-4.535-2.498-4.535-4.535c0-0.756,0-2.729,1.991-3.779
			c-1.032-0.588-1.585-1.532-1.585-2.918c0-2.541,1.788-4.073,4.073-4.073c2.71,0,4.147,1.827,4.147,3.884
			c0,1.281-0.461,2.373-1.512,3.003c1.254,0.714,1.954,1.659,1.954,3.591C56.928,182.209,55.858,185.148,52.394,185.148z
			 M52.356,178.115c-0.94,0-1.843,0.693-1.843,2.31c0,1.428,0.719,2.372,1.898,2.372c1.346,0,1.862-1.322,1.862-2.352
			C54.273,179.396,53.794,178.115,52.356,178.115z M54.016,174.042c0-1.134-0.682-1.848-1.512-1.848c-1.161,0-1.77,0.756-1.77,1.848
			c0,0.882,0.571,1.848,1.677,1.848C53.426,175.89,54.016,175.113,54.016,174.042z"/>
		<path fill="#FFFFFF" d="M62.236,180.236h-5.143v-2.73h5.143V180.236z"/>
		<path fill="#FFFFFF" d="M65.739,176.121h0.405c0.774,0,2.194-0.084,2.194-2.016c0-0.547-0.222-1.911-1.641-1.911
			c-1.77,0-1.77,1.911-1.77,2.436h-2.396c0-2.792,1.383-4.787,4.332-4.787c1.751,0,4.055,1.008,4.055,4.157
			c0,1.512-0.829,2.457-1.566,2.834v0.043c0.461,0.146,1.972,0.924,1.972,3.464c0,2.813-1.825,4.808-4.46,4.808
			c-1.235,0-4.553-0.314-4.553-4.976h2.525l-0.019,0.021c0,0.799,0.185,2.604,1.917,2.604c1.032,0,1.936-0.797,1.936-2.456
			c0-2.036-1.733-2.12-2.931-2.12V176.121z"/>
		<path fill="#FFFFFF" d="M71.767,175.113c0-4.851,3.115-5.271,4.276-5.271c2.507,0,4.497,1.68,4.497,4.703
			c0,2.562-1.456,3.863-2.728,4.851c-1.733,1.385-2.636,2.057-2.931,2.75h5.677v2.604h-8.939c0.092-1.742,0.203-3.569,3.041-5.921
			c2.359-1.952,3.3-2.708,3.3-4.388c0-0.987-0.553-2.121-1.807-2.121c-1.807,0-1.862,1.701-1.88,2.793H71.767z"/>
		<path fill="#FFFFFF" d="M86.107,180.236h-5.143v-2.73h5.143V180.236z"/>
		<path fill="#FFFFFF" d="M86.955,172.426h0.369c2.488,0,3.152-1.471,3.207-2.583h2.12v14.907h-2.58v-10.268h-3.115V172.426z"/>
		<path fill="#FFFFFF" d="M99.489,185.148c-3.373,0-4.534-2.498-4.534-4.535c0-0.756,0-2.729,1.991-3.779
			c-1.032-0.588-1.585-1.532-1.585-2.918c0-2.541,1.788-4.073,4.074-4.073c2.709,0,4.147,1.827,4.147,3.884
			c0,1.281-0.461,2.373-1.512,3.003c1.253,0.714,1.953,1.659,1.953,3.591C104.023,182.209,102.955,185.148,99.489,185.148z
			 M99.453,178.115c-0.94,0-1.844,0.693-1.844,2.31c0,1.428,0.719,2.372,1.898,2.372c1.346,0,1.861-1.322,1.861-2.352
			C101.369,179.396,100.891,178.115,99.453,178.115z M101.111,174.042c0-1.134-0.682-1.848-1.512-1.848
			c-1.161,0-1.77,0.756-1.77,1.848c0,0.882,0.572,1.848,1.678,1.848C100.521,175.89,101.111,175.113,101.111,174.042z"/>
		<path fill="#FFFFFF" d="M109.333,180.236h-5.143v-2.73h5.143V180.236z"/>
		<path fill="#FFFFFF" d="M115.673,173.622c-0.073-0.84-0.553-1.428-1.512-1.428c-1.677,0-2.064,2.184-2.156,4.115l0.037,0.042
			c0.35-0.546,0.995-1.238,2.451-1.238c2.71,0,4,2.372,4,4.598c0,3.254-1.751,5.438-4.276,5.438c-3.963,0-4.737-3.779-4.737-7.495
			c0-2.835,0.332-7.811,4.866-7.811c0.535,0,2.027,0.231,2.673,0.966c0.719,0.798,0.977,1.238,1.217,2.813H115.673z
			 M114.032,177.465c-0.977,0-1.972,0.692-1.972,2.561c0,1.617,0.811,2.771,2.046,2.771c0.939,0,1.806-0.818,1.806-2.834
			C115.912,178.073,114.844,177.465,114.032,177.465z"/>
	</g>
	<g>
	</g>
	<g>
	</g>
	<g>
	</g>
	<g>
	</g>
	<g>
	</g>
	<g>
	</g>
</g>
</svg>
