<?xml version="1.0" encoding="utf-8"?>
<!-- Generator: Adobe Illustrator 16.0.0, SVG Export Plug-In . SVG Version: 6.00 Build 0)  -->
<!DOCTYPE svg PUBLIC "-//W3C//DTD SVG 1.1//EN" "http://www.w3.org/Graphics/SVG/1.1/DTD/svg11.dtd">
<svg version="1.1" xmlns="http://www.w3.org/2000/svg" xmlns:xlink="http://www.w3.org/1999/xlink" x="0px" y="0px" width="200px"
	 height="200px" viewBox="0 0 200 200" enable-background="new 0 0 200 200" xml:space="preserve">
<g id="Arriere-Plan">
	<rect fill="#FFFFFF" width="200" height="200"/>
</g>
<g id="Fond">
	<linearGradient id="SVGID_1_" gradientUnits="userSpaceOnUse" x1="-7.2217" y1="19.6768" x2="193.1594" y2="169.7889">
		<stop  offset="0" style="stop-color:#62B283"/>
		<stop  offset="0.1351" style="stop-color:#5FAA7C"/>
		<stop  offset="0.3166" style="stop-color:#589B6D"/>
		<stop  offset="0.5244" style="stop-color:#4C8256"/>
		<stop  offset="0.7519" style="stop-color:#3A633A"/>
		<stop  offset="0.9929" style="stop-color:#24411D"/>
		<stop  offset="1" style="stop-color:#23401C"/>
	</linearGradient>
	<rect x="4" y="4" fill="url(#SVGID_1_)" width="192" height="192"/>
</g>
<g id="Texte">
	<g>
		<path fill="#FFFFFF" d="M63.188,138.715H46.545L73.51,52.559h18.223l26.648,86.156h-17.168l-4.846-17.76H68.455L63.188,138.715z
			 M72.668,106.076h19.275l-9.375-34.079h-0.21L72.668,106.076z"/>
		<path fill="#FFFFFF" d="M143.871,74.877h9.164v12h-9.164v34.679c0,3.72,0.105,5.159,6.109,5.159c0.947,0,2-0.119,3.055-0.239
			v12.72c-2.318,0.119-4.635,0.239-6.953,0.239h-1.896c-12.744,0-15.063-5.52-15.063-13.799V86.877h-7.582v-12h7.582V57.598h14.748
			V74.877z"/>
	</g>
	<g>
		<path fill="#FFFFFF" d="M175.023,18.628h2.24v2.5h3.922v2.24h-3.922v2.521h-2.24v-2.521h-3.92v-2.24h3.92V18.628z M171.104,26.51
			h10.082v2.24h-10.082V26.51z"/>
		<path fill="#FFFFFF" d="M183.363,17.007h0.4c2.7,0,3.42-1.4,3.48-2.46h2.301V28.75h-2.801v-9.782h-3.381V17.007z"/>
	</g>
	<g>
		<path fill="#FFFFFF" d="M175.023,38.628h2.24v3.941h3.922v2.24h-3.922v3.941h-2.24v-3.941h-3.92v-2.24h3.92V38.628z"/>
		<path fill="#FFFFFF" d="M186.244,40.528h0.439c0.84,0,2.381-0.08,2.381-1.92c0-0.52-0.24-1.82-1.78-1.82
			c-1.921,0-1.921,1.82-1.921,2.32h-2.6c0-2.661,1.5-4.561,4.7-4.561c1.9,0,4.401,0.96,4.401,3.961c0,1.44-0.9,2.34-1.701,2.701
			v0.04c0.5,0.14,2.141,0.88,2.141,3.301c0,2.68-1.98,4.581-4.841,4.581c-1.34,0-4.94-0.3-4.94-4.741h2.74l-0.02,0.02
			c0,0.76,0.199,2.48,2.08,2.48c1.12,0,2.1-0.76,2.1-2.34c0-1.94-1.88-2.021-3.18-2.021V40.528z"/>
	</g>
	<g>
		<path fill="#FFFFFF" d="M175.023,58.239h2.24v3.941h3.922v2.24h-3.922v3.941h-2.24V64.42h-3.92v-2.24h3.92V58.239z"/>
		<path fill="#FFFFFF" d="M185.464,59.839c0.521-0.36,1.16-0.78,2.54-0.78c1.9,0,4.301,1.32,4.301,4.581
			c0,1.94-0.98,5.101-5.16,5.101c-2.221,0-4.481-1.32-4.621-4.181h2.801c0.119,1.16,0.74,1.94,1.98,1.94
			c1.34,0,2.119-1.14,2.119-2.661c0-1.26-0.6-2.541-2.08-2.541c-0.38,0-1.34,0.02-1.88,1.02l-2.501-0.12l0.98-7.802h7.802v2.36
			h-5.781L185.464,59.839z"/>
	</g>
	<g>
		<path fill="#FFFFFF" d="M15.501,162.816c-4.82,0-6.479-3.57-6.479-6.48c0-1.079,0-3.899,2.844-5.399
			c-1.475-0.84-2.265-2.189-2.265-4.17c0-3.63,2.555-5.819,5.82-5.819c3.872,0,5.926,2.609,5.926,5.55c0,1.83-0.659,3.39-2.16,4.289
			c1.791,1.021,2.792,2.37,2.792,5.13C21.98,158.616,20.453,162.816,15.501,162.816z M15.449,152.767c-1.343,0-2.634,0.99-2.634,3.3
			c0,2.04,1.027,3.39,2.713,3.39c1.922,0,2.66-1.89,2.66-3.359C18.188,154.597,17.503,152.767,15.449,152.767z M17.819,146.946
			c0-1.619-0.975-2.64-2.16-2.64c-1.659,0-2.528,1.08-2.528,2.64c0,1.261,0.816,2.641,2.397,2.641
			C16.976,149.587,17.819,148.477,17.819,146.946z"/>
		<path fill="#FFFFFF" d="M27.403,149.467c0.685-0.54,1.527-1.17,3.345-1.17c2.502,0,5.663,1.979,5.663,6.869
			c0,2.91-1.291,7.65-6.795,7.65c-2.923,0-5.899-1.98-6.084-6.271h3.688c0.158,1.74,0.974,2.91,2.607,2.91
			c1.765,0,2.792-1.71,2.792-3.989c0-1.891-0.79-3.811-2.739-3.811c-0.5,0-1.765,0.03-2.476,1.53l-3.292-0.18l1.291-11.7h10.271
			v3.54h-7.611L27.403,149.467z"/>
	</g>
	<g>
		<path fill="#FFFFFF" d="M175.023,78.362h2.24v3.941h3.922v2.24h-3.922v3.941h-2.24v-3.941h-3.92v-2.24h3.92V78.362z"/>
		<path fill="#FFFFFF" d="M192.545,76.682c-1.359,1.48-4.841,5.682-5.181,11.803h-2.881c0.3-5.681,3.86-10.202,5.062-11.482h-7.063
			l0.061-2.48h10.002V76.682z"/>
	</g>
	<g>
	</g>
	<g>
	</g>
	<g>
		<path fill="#FFFFFF" d="M13.32,20.302c0-4.621,2.965-5.021,4.071-5.021c2.387,0,4.282,1.601,4.282,4.481
			c0,2.44-1.386,3.681-2.597,4.621c-1.649,1.32-2.509,1.96-2.79,2.621h5.405v2.48H13.18c0.088-1.66,0.193-3.401,2.896-5.641
			c2.246-1.86,3.141-2.581,3.141-4.181c0-0.94-0.526-2.021-1.72-2.021c-1.72,0-1.772,1.621-1.79,2.661H13.32z"/>
		<path fill="#FFFFFF" d="M22.817,17.741h0.351c2.369,0,3.001-1.4,3.054-2.46h2.018v14.203h-2.457v-9.782h-2.965V17.741z"/>
		<path fill="#FFFFFF" d="M34.402,15.281c2.93,0,4.316,2.301,4.316,7.282s-1.386,7.301-4.316,7.301c-2.931,0-4.317-2.32-4.317-7.301
			S31.472,15.281,34.402,15.281z M34.402,27.624c1.404,0,1.79-1.4,1.79-5.061s-0.386-5.041-1.79-5.041s-1.79,1.38-1.79,5.041
			S32.999,27.624,34.402,27.624z"/>
	</g>
	<g>
		<path fill="#FFFFFF" d="M10.127,175.113c0-4.851,3.115-5.271,4.276-5.271c2.507,0,4.497,1.68,4.497,4.703
			c0,2.562-1.456,3.863-2.728,4.851c-1.733,1.385-2.636,2.057-2.931,2.75h5.677v2.604H9.979c0.092-1.742,0.203-3.569,3.041-5.921
			c2.359-1.952,3.3-2.708,3.3-4.388c0-0.987-0.553-2.121-1.807-2.121c-1.807,0-1.862,1.701-1.88,2.793H10.127z"/>
		<path fill="#FFFFFF" d="M24.468,180.236h-5.143v-2.73h5.143V180.236z"/>
		<path fill="#FFFFFF" d="M29.168,185.148c-3.374,0-4.535-2.498-4.535-4.535c0-0.756,0-2.729,1.991-3.779
			c-1.032-0.588-1.585-1.532-1.585-2.918c0-2.541,1.788-4.073,4.073-4.073c2.71,0,4.147,1.827,4.147,3.884
			c0,1.281-0.461,2.373-1.512,3.003c1.254,0.714,1.954,1.659,1.954,3.591C33.702,182.209,32.633,185.148,29.168,185.148z
			 M29.131,178.115c-0.94,0-1.843,0.693-1.843,2.31c0,1.428,0.719,2.372,1.898,2.372c1.346,0,1.862-1.322,1.862-2.352
			C31.048,179.396,30.568,178.115,29.131,178.115z M30.79,174.042c0-1.134-0.682-1.848-1.512-1.848c-1.161,0-1.77,0.756-1.77,1.848
			c0,0.882,0.571,1.848,1.677,1.848C30.2,175.89,30.79,175.113,30.79,174.042z"/>
		<path fill="#FFFFFF" d="M39.011,180.236h-5.143v-2.73h5.143V180.236z"/>
		<path fill="#FFFFFF" d="M39.859,172.426h0.369c2.488,0,3.152-1.471,3.207-2.583h2.12v14.907h-2.581v-10.268h-3.115V172.426z"/>
		<path fill="#FFFFFF" d="M52.394,185.148c-3.374,0-4.535-2.498-4.535-4.535c0-0.756,0-2.729,1.991-3.779
			c-1.032-0.588-1.585-1.532-1.585-2.918c0-2.541,1.788-4.073,4.073-4.073c2.71,0,4.147,1.827,4.147,3.884
			c0,1.281-0.461,2.373-1.512,3.003c1.254,0.714,1.954,1.659,1.954,3.591C56.928,182.209,55.858,185.148,52.394,185.148z
			 M52.356,178.115c-0.94,0-1.843,0.693-1.843,2.31c0,1.428,0.719,2.372,1.898,2.372c1.346,0,1.862-1.322,1.862-2.352
			C54.273,179.396,53.794,178.115,52.356,178.115z M54.016,174.042c0-1.134-0.682-1.848-1.512-1.848c-1.161,0-1.77,0.756-1.77,1.848
			c0,0.882,0.571,1.848,1.677,1.848C53.426,175.89,54.016,175.113,54.016,174.042z"/>
		<path fill="#FFFFFF" d="M62.236,180.236h-5.143v-2.73h5.143V180.236z"/>
		<path fill="#FFFFFF" d="M65.739,176.121h0.405c0.774,0,2.194-0.084,2.194-2.016c0-0.547-0.222-1.911-1.641-1.911
			c-1.77,0-1.77,1.911-1.77,2.436h-2.396c0-2.792,1.383-4.787,4.332-4.787c1.751,0,4.055,1.008,4.055,4.157
			c0,1.512-0.829,2.457-1.566,2.834v0.043c0.461,0.146,1.972,0.924,1.972,3.464c0,2.813-1.825,4.808-4.46,4.808
			c-1.235,0-4.553-0.314-4.553-4.976h2.525l-0.019,0.021c0,0.799,0.185,2.604,1.917,2.604c1.032,0,1.936-0.797,1.936-2.456
			c0-2.036-1.733-2.12-2.931-2.12V176.121z"/>
		<path fill="#FFFFFF" d="M71.767,175.113c0-4.851,3.115-5.271,4.276-5.271c2.507,0,4.497,1.68,4.497,4.703
			c0,2.562-1.456,3.863-2.728,4.851c-1.733,1.385-2.636,2.057-2.931,2.75h5.677v2.604h-8.939c0.092-1.742,0.203-3.569,3.041-5.921
			c2.359-1.952,3.3-2.708,3.3-4.388c0-0.987-0.553-2.121-1.807-2.121c-1.807,0-1.862,1.701-1.88,2.793H71.767z"/>
		<path fill="#FFFFFF" d="M86.107,180.236h-5.143v-2.73h5.143V180.236z"/>
		<path fill="#FFFFFF" d="M86.955,172.426h0.369c2.488,0,3.152-1.471,3.207-2.583h2.12v14.907h-2.58v-10.268h-3.115V172.426z"/>
		<path fill="#FFFFFF" d="M99.489,185.148c-3.373,0-4.534-2.498-4.534-4.535c0-0.756,0-2.729,1.991-3.779
			c-1.032-0.588-1.585-1.532-1.585-2.918c0-2.541,1.788-4.073,4.074-4.073c2.709,0,4.147,1.827,4.147,3.884
			c0,1.281-0.461,2.373-1.512,3.003c1.253,0.714,1.953,1.659,1.953,3.591C104.023,182.209,102.955,185.148,99.489,185.148z
			 M99.453,178.115c-0.94,0-1.844,0.693-1.844,2.31c0,1.428,0.719,2.372,1.898,2.372c1.346,0,1.861-1.322,1.861-2.352
			C101.369,179.396,100.891,178.115,99.453,178.115z M101.111,174.042c0-1.134-0.682-1.848-1.512-1.848
			c-1.161,0-1.77,0.756-1.77,1.848c0,0.882,0.572,1.848,1.678,1.848C100.521,175.89,101.111,175.113,101.111,174.042z"/>
		<path fill="#FFFFFF" d="M109.333,180.236h-5.143v-2.73h5.143V180.236z"/>
		<path fill="#FFFFFF" d="M118.641,172.362c-1.254,1.554-4.461,5.963-4.774,12.388h-2.654c0.276-5.963,3.558-10.708,4.664-12.052
			h-6.507l0.055-2.604h9.217V172.362z"/>
	</g>
	<g>
	</g>
	<g>
	</g>
	<g>
	</g>
	<g>
	</g>
	<g>
	</g>
	<g>
	</g>
</g>
</svg>
