<?xml version="1.0" encoding="utf-8"?>
<!-- Generator: Adobe Illustrator 16.0.0, SVG Export Plug-In . SVG Version: 6.00 Build 0)  -->
<!DOCTYPE svg PUBLIC "-//W3C//DTD SVG 1.1//EN" "http://www.w3.org/Graphics/SVG/1.1/DTD/svg11.dtd">
<svg version="1.1" xmlns="http://www.w3.org/2000/svg" xmlns:xlink="http://www.w3.org/1999/xlink" x="0px" y="0px" width="200px"
	 height="200px" viewBox="0 0 200 200" enable-background="new 0 0 200 200" xml:space="preserve">
<g id="Arriere-Plan">
	<rect fill="#FFFFFF" width="200" height="200"/>
</g>
<g id="Fond">
	<linearGradient id="SVGID_1_" gradientUnits="userSpaceOnUse" x1="-7.2217" y1="19.6768" x2="193.1594" y2="169.7889">
		<stop  offset="0" style="stop-color:#62B283"/>
		<stop  offset="0.1351" style="stop-color:#5FAA7C"/>
		<stop  offset="0.3166" style="stop-color:#589B6D"/>
		<stop  offset="0.5244" style="stop-color:#4C8256"/>
		<stop  offset="0.7519" style="stop-color:#3A633A"/>
		<stop  offset="0.9929" style="stop-color:#24411D"/>
		<stop  offset="1" style="stop-color:#23401C"/>
	</linearGradient>
	<rect x="4" y="4" fill="url(#SVGID_1_)" width="192" height="192"/>
</g>
<g id="Texte">
	<g>
		<path fill="#FFFFFF" d="M130.547,108.596c0,22.68-12.008,32.399-31.073,32.399c-6.952,0-17.274-1.92-24.016-10.44
			c-4.108-5.279-5.688-12.239-5.898-20.879V52.559h16.116v55.918c0,11.999,6.109,17.279,13.482,17.279
			c10.85,0,15.273-6,15.273-16.439V52.559h16.115V108.596z"/>
	</g>
	<g>
		<path fill="#FFFFFF" d="M175.023,18.628h2.24v3.941h3.922v2.24h-3.922v3.941h-2.24v-3.941h-3.92v-2.24h3.92V18.628z"/>
		<path fill="#FFFFFF" d="M186.244,20.528h0.439c0.84,0,2.381-0.08,2.381-1.92c0-0.52-0.24-1.82-1.78-1.82
			c-1.921,0-1.921,1.82-1.921,2.32h-2.6c0-2.661,1.5-4.561,4.7-4.561c1.9,0,4.401,0.96,4.401,3.961c0,1.44-0.9,2.34-1.701,2.701
			v0.04c0.5,0.14,2.141,0.88,2.141,3.301c0,2.68-1.98,4.581-4.841,4.581c-1.34,0-4.94-0.3-4.94-4.741h2.74l-0.02,0.02
			c0,0.76,0.199,2.48,2.08,2.48c1.12,0,2.1-0.76,2.1-2.34c0-1.94-1.88-2.021-3.18-2.021V20.528z"/>
	</g>
	<g>
		<path fill="#FFFFFF" d="M175.023,38.628h2.24v3.941h3.922v2.24h-3.922v3.941h-2.24v-3.941h-3.92v-2.24h3.92V38.628z"/>
		<path fill="#FFFFFF" d="M192.506,45.609h-1.581v3.141h-2.801v-3.141h-5.601v-2.42l5.221-8.642h3.181v8.882h1.581V45.609z
			 M188.124,43.429c0-3.44,0.06-5.661,0.06-6.101h-0.039l-3.561,6.101H188.124z"/>
	</g>
	<g>
		<path fill="#FFFFFF" d="M175.023,58.239h2.24v3.941h3.922v2.24h-3.922v3.941h-2.24V64.42h-3.92v-2.24h3.92V58.239z"/>
		<path fill="#FFFFFF" d="M185.464,59.839c0.521-0.36,1.16-0.78,2.54-0.78c1.9,0,4.301,1.32,4.301,4.581
			c0,1.94-0.98,5.101-5.16,5.101c-2.221,0-4.481-1.32-4.621-4.181h2.801c0.119,1.16,0.74,1.94,1.98,1.94
			c1.34,0,2.119-1.14,2.119-2.661c0-1.26-0.6-2.541-2.08-2.541c-0.38,0-1.34,0.02-1.88,1.02l-2.501-0.12l0.98-7.802h7.802v2.36
			h-5.781L185.464,59.839z"/>
	</g>
	<g>
		<path fill="#FFFFFF" d="M13,157.326v0.03c0.21,1.47,1.027,2.1,2.159,2.1c1.528,0,3.055-1.47,3.082-5.939l-0.053-0.061
			c-0.843,1.44-2.291,1.801-3.555,1.801c-3.582,0-5.663-3.09-5.663-6.66c0-5.22,2.713-7.649,6.374-7.649
			c6.479,0,6.584,7.949,6.584,10.949c0,8.25-3.423,10.92-6.794,10.92c-3.187,0-5.479-2.101-5.794-5.49H13z M15.422,151.896
			c1.291,0,2.712-1.05,2.712-3.569c0-2.431-0.921-3.931-2.818-3.931c-0.948,0-2.66,0.54-2.66,3.601
			C12.657,151.206,14.026,151.896,15.422,151.896z"/>
		<path fill="#FFFFFF" d="M23.716,148.477c0-6.93,4.451-7.529,6.11-7.529c3.582,0,6.426,2.399,6.426,6.72
			c0,3.659-2.081,5.52-3.898,6.93c-2.476,1.979-3.766,2.939-4.188,3.93h8.112v3.72H23.505c0.132-2.49,0.29-5.1,4.346-8.46
			c3.371-2.79,4.714-3.869,4.714-6.27c0-1.41-0.79-3.029-2.581-3.029c-2.581,0-2.66,2.43-2.687,3.989H23.716z"/>
	</g>
	<g>
		<path fill="#FFFFFF" d="M175.023,78.362h2.24v3.941h3.922v2.24h-3.922v3.941h-2.24v-3.941h-3.92v-2.24h3.92V78.362z"/>
		<path fill="#FFFFFF" d="M189.324,77.882c-0.08-0.8-0.6-1.36-1.641-1.36c-1.82,0-2.24,2.08-2.34,3.921l0.04,0.04
			c0.38-0.52,1.08-1.18,2.661-1.18c2.939,0,4.34,2.261,4.34,4.381c0,3.101-1.9,5.181-4.641,5.181c-4.301,0-5.141-3.601-5.141-7.141
			c0-2.701,0.359-7.442,5.281-7.442c0.58,0,2.199,0.22,2.9,0.92c0.779,0.76,1.061,1.18,1.32,2.681H189.324z M187.544,81.543
			c-1.06,0-2.14,0.66-2.14,2.44c0,1.541,0.879,2.641,2.22,2.641c1.021,0,1.96-0.78,1.96-2.701
			C189.584,82.123,188.424,81.543,187.544,81.543z"/>
	</g>
	<g>
	</g>
	<g>
	</g>
	<g>
		<path fill="#FFFFFF" d="M13.32,20.302c0-4.621,2.965-5.021,4.071-5.021c2.387,0,4.282,1.601,4.282,4.481
			c0,2.44-1.386,3.681-2.597,4.621c-1.649,1.32-2.509,1.96-2.79,2.621h5.405v2.48H13.18c0.088-1.66,0.193-3.401,2.896-5.641
			c2.246-1.86,3.141-2.581,3.141-4.181c0-0.94-0.526-2.021-1.72-2.021c-1.72,0-1.772,1.621-1.79,2.661H13.32z"/>
		<path fill="#FFFFFF" d="M25.344,21.262h0.386c0.737,0,2.088-0.08,2.088-1.92c0-0.52-0.21-1.82-1.562-1.82
			c-1.685,0-1.685,1.82-1.685,2.32h-2.281c0-2.661,1.316-4.561,4.124-4.561c1.667,0,3.86,0.96,3.86,3.961
			c0,1.44-0.79,2.34-1.492,2.701v0.04c0.439,0.14,1.878,0.88,1.878,3.301c0,2.68-1.737,4.581-4.247,4.581
			c-1.176,0-4.334-0.3-4.334-4.741h2.404l-0.018,0.02c0,0.76,0.175,2.48,1.825,2.48c0.983,0,1.843-0.76,1.843-2.34
			c0-1.94-1.649-2.021-2.79-2.021V21.262z"/>
		<path fill="#FFFFFF" d="M35.368,29.864c-3.211,0-4.317-2.38-4.317-4.321c0-0.72,0-2.601,1.895-3.601
			c-0.982-0.56-1.509-1.46-1.509-2.781c0-2.42,1.702-3.881,3.878-3.881c2.58,0,3.948,1.74,3.948,3.701
			c0,1.22-0.439,2.261-1.439,2.861c1.193,0.68,1.86,1.58,1.86,3.421C39.684,27.063,38.667,29.864,35.368,29.864z M35.333,23.163
			c-0.895,0-1.755,0.66-1.755,2.2c0,1.36,0.685,2.261,1.808,2.261c1.281,0,1.772-1.26,1.772-2.241
			C37.157,24.383,36.701,23.163,35.333,23.163z M36.912,19.282c0-1.08-0.649-1.76-1.439-1.76c-1.105,0-1.685,0.72-1.685,1.76
			c0,0.84,0.544,1.76,1.597,1.76C36.35,21.042,36.912,20.302,36.912,19.282z"/>
		<path fill="#FFFFFF" d="M43.128,29.484h-2.632v-2.92h2.632V29.484z"/>
		<path fill="#FFFFFF" d="M48.253,15.281c2.93,0,4.316,2.301,4.316,7.282s-1.386,7.301-4.316,7.301c-2.931,0-4.317-2.32-4.317-7.301
			S45.323,15.281,48.253,15.281z M48.253,27.624c1.404,0,1.79-1.4,1.79-5.061s-0.386-5.041-1.79-5.041s-1.79,1.38-1.79,5.041
			S46.85,27.624,48.253,27.624z"/>
		<path fill="#FFFFFF" d="M52.854,20.302c0-4.621,2.965-5.021,4.071-5.021c2.387,0,4.282,1.601,4.282,4.481
			c0,2.44-1.386,3.681-2.597,4.621c-1.649,1.32-2.509,1.96-2.79,2.621h5.405v2.48h-8.511c0.088-1.66,0.193-3.401,2.896-5.641
			c2.246-1.86,3.141-2.581,3.141-4.181c0-0.94-0.526-2.021-1.72-2.021c-1.72,0-1.772,1.621-1.79,2.661H52.854z"/>
		<path fill="#FFFFFF" d="M66.019,29.864c-3.211,0-4.317-2.38-4.317-4.321c0-0.72,0-2.601,1.895-3.601
			c-0.982-0.56-1.509-1.46-1.509-2.781c0-2.42,1.702-3.881,3.878-3.881c2.58,0,3.948,1.74,3.948,3.701
			c0,1.22-0.439,2.261-1.439,2.861c1.193,0.68,1.86,1.58,1.86,3.421C70.335,27.063,69.318,29.864,66.019,29.864z M65.984,23.163
			c-0.895,0-1.755,0.66-1.755,2.2c0,1.36,0.685,2.261,1.808,2.261c1.281,0,1.772-1.26,1.772-2.241
			C67.809,24.383,67.353,23.163,65.984,23.163z M67.563,19.282c0-1.08-0.649-1.76-1.439-1.76c-1.105,0-1.685,0.72-1.685,1.76
			c0,0.84,0.544,1.76,1.597,1.76C67.001,21.042,67.563,20.302,67.563,19.282z"/>
		<path fill="#FFFFFF" d="M73.235,26.203v0.02c0.14,0.98,0.684,1.4,1.438,1.4c1.018,0,2.036-0.98,2.053-3.961l-0.035-0.04
			c-0.562,0.96-1.526,1.2-2.369,1.2c-2.387,0-3.773-2.061-3.773-4.441c0-3.48,1.808-5.101,4.247-5.101
			c4.317,0,4.387,5.301,4.387,7.302c0,5.501-2.281,7.281-4.527,7.281c-2.124,0-3.65-1.4-3.861-3.661H73.235z M74.85,22.583
			c0.86,0,1.807-0.7,1.807-2.381c0-1.62-0.614-2.62-1.877-2.62c-0.632,0-1.772,0.36-1.772,2.4
			C73.007,22.123,73.919,22.583,74.85,22.583z"/>
	</g>
	<g>
		<path fill="#FFFFFF" d="M10.127,175.113c0-4.851,3.115-5.271,4.276-5.271c2.507,0,4.497,1.68,4.497,4.703
			c0,2.562-1.456,3.863-2.728,4.851c-1.733,1.385-2.636,2.057-2.931,2.75h5.677v2.604H9.979c0.092-1.742,0.203-3.569,3.041-5.921
			c2.359-1.952,3.3-2.708,3.3-4.388c0-0.987-0.553-2.121-1.807-2.121c-1.807,0-1.862,1.701-1.88,2.793H10.127z"/>
		<path fill="#FFFFFF" d="M24.468,180.236h-5.143v-2.73h5.143V180.236z"/>
		<path fill="#FFFFFF" d="M29.168,185.148c-3.374,0-4.535-2.498-4.535-4.535c0-0.756,0-2.729,1.991-3.779
			c-1.032-0.588-1.585-1.532-1.585-2.918c0-2.541,1.788-4.073,4.073-4.073c2.71,0,4.147,1.827,4.147,3.884
			c0,1.281-0.461,2.373-1.512,3.003c1.254,0.714,1.954,1.659,1.954,3.591C33.702,182.209,32.633,185.148,29.168,185.148z
			 M29.131,178.115c-0.94,0-1.843,0.693-1.843,2.31c0,1.428,0.719,2.372,1.898,2.372c1.346,0,1.862-1.322,1.862-2.352
			C31.048,179.396,30.568,178.115,29.131,178.115z M30.79,174.042c0-1.134-0.682-1.848-1.512-1.848c-1.161,0-1.77,0.756-1.77,1.848
			c0,0.882,0.571,1.848,1.677,1.848C30.2,175.89,30.79,175.113,30.79,174.042z"/>
		<path fill="#FFFFFF" d="M39.011,180.236h-5.143v-2.73h5.143V180.236z"/>
		<path fill="#FFFFFF" d="M39.859,172.426h0.369c2.488,0,3.152-1.471,3.207-2.583h2.12v14.907h-2.581v-10.268h-3.115V172.426z"/>
		<path fill="#FFFFFF" d="M52.394,185.148c-3.374,0-4.535-2.498-4.535-4.535c0-0.756,0-2.729,1.991-3.779
			c-1.032-0.588-1.585-1.532-1.585-2.918c0-2.541,1.788-4.073,4.073-4.073c2.71,0,4.147,1.827,4.147,3.884
			c0,1.281-0.461,2.373-1.512,3.003c1.254,0.714,1.954,1.659,1.954,3.591C56.928,182.209,55.858,185.148,52.394,185.148z
			 M52.356,178.115c-0.94,0-1.843,0.693-1.843,2.31c0,1.428,0.719,2.372,1.898,2.372c1.346,0,1.862-1.322,1.862-2.352
			C54.273,179.396,53.794,178.115,52.356,178.115z M54.016,174.042c0-1.134-0.682-1.848-1.512-1.848c-1.161,0-1.77,0.756-1.77,1.848
			c0,0.882,0.571,1.848,1.677,1.848C53.426,175.89,54.016,175.113,54.016,174.042z"/>
		<path fill="#FFFFFF" d="M62.236,180.236h-5.143v-2.73h5.143V180.236z"/>
		<path fill="#FFFFFF" d="M65.739,176.121h0.405c0.774,0,2.194-0.084,2.194-2.016c0-0.547-0.222-1.911-1.641-1.911
			c-1.77,0-1.77,1.911-1.77,2.436h-2.396c0-2.792,1.383-4.787,4.332-4.787c1.751,0,4.055,1.008,4.055,4.157
			c0,1.512-0.829,2.457-1.566,2.834v0.043c0.461,0.146,1.972,0.924,1.972,3.464c0,2.813-1.825,4.808-4.46,4.808
			c-1.235,0-4.553-0.314-4.553-4.976h2.525l-0.019,0.021c0,0.799,0.185,2.604,1.917,2.604c1.032,0,1.936-0.797,1.936-2.456
			c0-2.036-1.733-2.12-2.931-2.12V176.121z"/>
		<path fill="#FFFFFF" d="M71.767,175.113c0-4.851,3.115-5.271,4.276-5.271c2.507,0,4.497,1.68,4.497,4.703
			c0,2.562-1.456,3.863-2.728,4.851c-1.733,1.385-2.636,2.057-2.931,2.75h5.677v2.604h-8.939c0.092-1.742,0.203-3.569,3.041-5.921
			c2.359-1.952,3.3-2.708,3.3-4.388c0-0.987-0.553-2.121-1.807-2.121c-1.807,0-1.862,1.701-1.88,2.793H71.767z"/>
		<path fill="#FFFFFF" d="M86.107,180.236h-5.143v-2.73h5.143V180.236z"/>
		<path fill="#FFFFFF" d="M86.31,175.113c0-4.851,3.115-5.271,4.276-5.271c2.507,0,4.498,1.68,4.498,4.703
			c0,2.562-1.457,3.863-2.729,4.851c-1.732,1.385-2.636,2.057-2.931,2.75h5.677v2.604h-8.94c0.092-1.742,0.203-3.569,3.042-5.921
			c2.359-1.952,3.299-2.708,3.299-4.388c0-0.987-0.553-2.121-1.806-2.121c-1.806,0-1.862,1.701-1.88,2.793H86.31z"/>
		<path fill="#FFFFFF" d="M96.282,172.426h0.369c2.488,0,3.152-1.471,3.208-2.583h2.119v14.907h-2.58v-10.268h-3.115V172.426z"/>
		<path fill="#FFFFFF" d="M108.596,180.236h-5.143v-2.73h5.143V180.236z"/>
		<path fill="#FFFFFF" d="M111.544,181.307v0.021c0.147,1.028,0.719,1.469,1.512,1.469c1.069,0,2.138-1.028,2.156-4.156
			l-0.036-0.043c-0.59,1.008-1.604,1.26-2.489,1.26c-2.507,0-3.963-2.162-3.963-4.66c0-3.654,1.898-5.354,4.461-5.354
			c4.534,0,4.608,5.563,4.608,7.663c0,5.774-2.396,7.643-4.756,7.643c-2.23,0-3.834-1.469-4.055-3.842H111.544z M113.24,177.506
			c0.902,0,1.898-0.734,1.898-2.498c0-1.701-0.646-2.75-1.973-2.75c-0.663,0-1.861,0.377-1.861,2.52
			C111.305,177.023,112.263,177.506,113.24,177.506z"/>
		<path fill="#FFFFFF" d="M123.139,180.236h-5.143v-2.73h5.143V180.236z"/>
		<path fill="#FFFFFF" d="M123.342,175.113c0-4.851,3.115-5.271,4.276-5.271c2.507,0,4.497,1.68,4.497,4.703
			c0,2.562-1.456,3.863-2.728,4.851c-1.733,1.385-2.636,2.057-2.931,2.75h5.677v2.604h-8.939c0.092-1.742,0.202-3.569,3.041-5.921
			c2.359-1.952,3.3-2.708,3.3-4.388c0-0.987-0.553-2.121-1.807-2.121c-1.807,0-1.861,1.701-1.88,2.793H123.342z"/>
	</g>
	<g>
	</g>
	<g>
	</g>
	<g>
	</g>
	<g>
	</g>
	<g>
	</g>
	<g>
	</g>
</g>
</svg>
