<?xml version="1.0" encoding="utf-8"?>
<!-- Generator: Adobe Illustrator 16.0.0, SVG Export Plug-In . SVG Version: 6.00 Build 0)  -->
<!DOCTYPE svg PUBLIC "-//W3C//DTD SVG 1.1//EN" "http://www.w3.org/Graphics/SVG/1.1/DTD/svg11.dtd">
<svg version="1.1" xmlns="http://www.w3.org/2000/svg" xmlns:xlink="http://www.w3.org/1999/xlink" x="0px" y="0px" width="200px"
	 height="200px" viewBox="0 0 200 200" enable-background="new 0 0 200 200" xml:space="preserve">
<g id="Arriere-Plan">
	<rect fill="#FFFFFF" width="200" height="200"/>
</g>
<g id="Fond">
	<linearGradient id="SVGID_1_" gradientUnits="userSpaceOnUse" x1="-7.2217" y1="19.6768" x2="193.1594" y2="169.7889">
		<stop  offset="0" style="stop-color:#62B283"/>
		<stop  offset="0.1351" style="stop-color:#5FAA7C"/>
		<stop  offset="0.3166" style="stop-color:#589B6D"/>
		<stop  offset="0.5244" style="stop-color:#4C8256"/>
		<stop  offset="0.7519" style="stop-color:#3A633A"/>
		<stop  offset="0.9929" style="stop-color:#24411D"/>
		<stop  offset="1" style="stop-color:#23401C"/>
	</linearGradient>
	<rect x="4" y="4" fill="url(#SVGID_1_)" width="192" height="192"/>
</g>
<g id="Texte">
	<g>
		<path fill="#FFFFFF" d="M57.551,138.715H41.752V52.559H76.3c14.641,0,23.489,10.679,23.489,27.599
			c0,7.8-3.792,27.479-24.121,27.479H57.551V138.715z M72.192,92.757c11.797,0,11.797-9.6,11.797-13.439
			c0-8.4-4.108-11.88-13.904-11.88H57.551v25.319H72.192z"/>
		<path fill="#FFFFFF" d="M159.301,138.715h-14.113v-9h-0.211c-3.371,6.84-9.27,10.68-17.064,10.68
			c-11.059,0-19.064-7.199-19.064-23.519V74.877h14.746v39.598c0,9.84,5.057,11.76,9.586,11.76c4.846,0,11.375-3.12,11.375-14.52
			V74.877h14.746V138.715z"/>
	</g>
	<g>
		<path fill="#FFFFFF" d="M146.648,18.628h2.24v3.941h3.922v2.24h-3.922v3.941h-2.24v-3.941h-3.92v-2.24h3.92V18.628z"/>
		<path fill="#FFFFFF" d="M160.949,18.148c-0.08-0.8-0.6-1.36-1.641-1.36c-1.82,0-2.24,2.08-2.34,3.921l0.04,0.04
			c0.38-0.52,1.08-1.18,2.661-1.18c2.939,0,4.34,2.261,4.34,4.381c0,3.101-1.9,5.181-4.641,5.181c-4.301,0-5.141-3.601-5.141-7.141
			c0-2.701,0.359-7.442,5.281-7.442c0.58,0,2.199,0.22,2.9,0.92c0.779,0.76,1.061,1.18,1.32,2.681H160.949z M159.169,21.809
			c-1.06,0-2.14,0.66-2.14,2.44c0,1.541,0.879,2.641,2.22,2.641c1.021,0,1.96-0.78,1.96-2.701
			C161.209,22.389,160.049,21.809,159.169,21.809z"/>
		<path fill="#FFFFFF" d="M175.009,18.628h2.24v3.941h3.921v2.24h-3.921v3.941h-2.24v-3.941h-3.921v-2.24h3.921V18.628z"/>
		<path fill="#FFFFFF" d="M185.449,20.228c0.52-0.36,1.159-0.78,2.54-0.78c1.9,0,4.301,1.32,4.301,4.581
			c0,1.94-0.98,5.101-5.161,5.101c-2.221,0-4.48-1.32-4.621-4.181h2.801c0.12,1.16,0.74,1.94,1.98,1.94c1.34,0,2.12-1.14,2.12-2.661
			c0-1.26-0.6-2.541-2.08-2.541c-0.38,0-1.341,0.02-1.88,1.02l-2.502-0.12l0.98-7.802h7.802v2.36h-5.781L185.449,20.228z"/>
	</g>
	<g>
		<path fill="#FFFFFF" d="M146.67,38.628h2.24v3.941h3.92v2.24h-3.92v3.941h-2.24v-3.941h-3.922v-2.24h3.922V38.628z"/>
		<path fill="#FFFFFF" d="M164.15,45.609h-1.58v3.141h-2.801v-3.141h-5.602v-2.42l5.222-8.642h3.181v8.882h1.58V45.609z
			 M159.77,43.429c0-3.44,0.061-5.661,0.061-6.101h-0.041l-3.561,6.101H159.77z"/>
		<path fill="#FFFFFF" d="M175.029,38.628h2.24v3.941h3.921v2.24h-3.921v3.941h-2.24v-3.941h-3.921v-2.24h3.921V38.628z"/>
		<path fill="#FFFFFF" d="M186.249,40.528h0.44c0.84,0,2.38-0.08,2.38-1.92c0-0.52-0.239-1.82-1.78-1.82
			c-1.92,0-1.92,1.82-1.92,2.32h-2.601c0-2.661,1.5-4.561,4.701-4.561c1.9,0,4.4,0.96,4.4,3.961c0,1.44-0.9,2.34-1.7,2.701v0.04
			c0.5,0.14,2.141,0.88,2.141,3.301c0,2.68-1.98,4.581-4.841,4.581c-1.341,0-4.941-0.3-4.941-4.741h2.741l-0.021,0.02
			c0,0.76,0.2,2.48,2.08,2.48c1.12,0,2.101-0.76,2.101-2.34c0-1.94-1.88-2.021-3.181-2.021V40.528z"/>
	</g>
	<g>
	</g>
	<g>
		<path fill="#FFFFFF" d="M13,157.326v0.03c0.21,1.47,1.027,2.1,2.159,2.1c1.528,0,3.055-1.47,3.082-5.939l-0.053-0.061
			c-0.843,1.44-2.291,1.801-3.555,1.801c-3.582,0-5.663-3.09-5.663-6.66c0-5.22,2.713-7.649,6.374-7.649
			c6.479,0,6.584,7.949,6.584,10.949c0,8.25-3.423,10.92-6.794,10.92c-3.187,0-5.479-2.101-5.794-5.49H13z M15.422,151.896
			c1.291,0,2.712-1.05,2.712-3.569c0-2.431-0.921-3.931-2.818-3.931c-0.948,0-2.66,0.54-2.66,3.601
			C12.657,151.206,14.026,151.896,15.422,151.896z"/>
		<path fill="#FFFFFF" d="M36.674,157.536h-2.081v4.71h-3.687v-4.71h-7.375v-3.63l6.874-12.959h4.188v13.319h2.081V157.536z
			 M30.906,154.267c0-5.16,0.079-8.49,0.079-9.149h-0.053l-4.688,9.149H30.906z"/>
	</g>
	<g>
	</g>
	<g>
	</g>
	<g>
	</g>
	<g>
		<path fill="#FFFFFF" d="M13.32,20.302c0-4.621,2.965-5.021,4.071-5.021c2.387,0,4.282,1.601,4.282,4.481
			c0,2.44-1.386,3.681-2.597,4.621c-1.649,1.32-2.509,1.96-2.79,2.621h5.405v2.48H13.18c0.088-1.66,0.193-3.401,2.896-5.641
			c2.246-1.86,3.141-2.581,3.141-4.181c0-0.94-0.526-2.021-1.72-2.021c-1.72,0-1.772,1.621-1.79,2.661H13.32z"/>
		<path fill="#FFFFFF" d="M30.836,26.343H29.45v3.141h-2.457v-3.141H22.08v-2.42l4.58-8.642h2.79v8.882h1.386V26.343z
			 M26.994,24.163c0-3.44,0.053-5.661,0.053-6.101h-0.035l-3.124,6.101H26.994z"/>
		<path fill="#FFFFFF" d="M39.719,26.343h-1.386v3.141h-2.457v-3.141h-4.914v-2.42l4.58-8.642h2.79v8.882h1.386V26.343z
			 M35.876,24.163c0-3.44,0.053-5.661,0.053-6.101h-0.035l-3.124,6.101H35.876z"/>
	</g>
	<g>
		<path fill="#FFFFFF" d="M10.127,175.113c0-4.851,3.115-5.271,4.276-5.271c2.507,0,4.497,1.68,4.497,4.703
			c0,2.562-1.456,3.863-2.728,4.851c-1.733,1.385-2.636,2.057-2.931,2.75h5.677v2.604H9.979c0.092-1.742,0.203-3.569,3.041-5.921
			c2.359-1.952,3.3-2.708,3.3-4.388c0-0.987-0.553-2.121-1.807-2.121c-1.807,0-1.862,1.701-1.88,2.793H10.127z"/>
		<path fill="#FFFFFF" d="M24.468,180.236h-5.143v-2.73h5.143V180.236z"/>
		<path fill="#FFFFFF" d="M29.168,185.148c-3.374,0-4.535-2.498-4.535-4.535c0-0.756,0-2.729,1.991-3.779
			c-1.032-0.588-1.585-1.532-1.585-2.918c0-2.541,1.788-4.073,4.073-4.073c2.71,0,4.147,1.827,4.147,3.884
			c0,1.281-0.461,2.373-1.512,3.003c1.254,0.714,1.954,1.659,1.954,3.591C33.702,182.209,32.633,185.148,29.168,185.148z
			 M29.131,178.115c-0.94,0-1.843,0.693-1.843,2.31c0,1.428,0.719,2.372,1.898,2.372c1.346,0,1.862-1.322,1.862-2.352
			C31.048,179.396,30.568,178.115,29.131,178.115z M30.79,174.042c0-1.134-0.682-1.848-1.512-1.848c-1.161,0-1.77,0.756-1.77,1.848
			c0,0.882,0.571,1.848,1.677,1.848C30.2,175.89,30.79,175.113,30.79,174.042z"/>
		<path fill="#FFFFFF" d="M39.011,180.236h-5.143v-2.73h5.143V180.236z"/>
		<path fill="#FFFFFF" d="M39.859,172.426h0.369c2.488,0,3.152-1.471,3.207-2.583h2.12v14.907h-2.581v-10.268h-3.115V172.426z"/>
		<path fill="#FFFFFF" d="M52.394,185.148c-3.374,0-4.535-2.498-4.535-4.535c0-0.756,0-2.729,1.991-3.779
			c-1.032-0.588-1.585-1.532-1.585-2.918c0-2.541,1.788-4.073,4.073-4.073c2.71,0,4.147,1.827,4.147,3.884
			c0,1.281-0.461,2.373-1.512,3.003c1.254,0.714,1.954,1.659,1.954,3.591C56.928,182.209,55.858,185.148,52.394,185.148z
			 M52.356,178.115c-0.94,0-1.843,0.693-1.843,2.31c0,1.428,0.719,2.372,1.898,2.372c1.346,0,1.862-1.322,1.862-2.352
			C54.273,179.396,53.794,178.115,52.356,178.115z M54.016,174.042c0-1.134-0.682-1.848-1.512-1.848c-1.161,0-1.77,0.756-1.77,1.848
			c0,0.882,0.571,1.848,1.677,1.848C53.426,175.89,54.016,175.113,54.016,174.042z"/>
		<path fill="#FFFFFF" d="M62.236,180.236h-5.143v-2.73h5.143V180.236z"/>
		<path fill="#FFFFFF" d="M65.739,176.121h0.405c0.774,0,2.194-0.084,2.194-2.016c0-0.547-0.222-1.911-1.641-1.911
			c-1.77,0-1.77,1.911-1.77,2.436h-2.396c0-2.792,1.383-4.787,4.332-4.787c1.751,0,4.055,1.008,4.055,4.157
			c0,1.512-0.829,2.457-1.566,2.834v0.043c0.461,0.146,1.972,0.924,1.972,3.464c0,2.813-1.825,4.808-4.46,4.808
			c-1.235,0-4.553-0.314-4.553-4.976h2.525l-0.019,0.021c0,0.799,0.185,2.604,1.917,2.604c1.032,0,1.936-0.797,1.936-2.456
			c0-2.036-1.733-2.12-2.931-2.12V176.121z"/>
		<path fill="#FFFFFF" d="M71.767,175.113c0-4.851,3.115-5.271,4.276-5.271c2.507,0,4.497,1.68,4.497,4.703
			c0,2.562-1.456,3.863-2.728,4.851c-1.733,1.385-2.636,2.057-2.931,2.75h5.677v2.604h-8.939c0.092-1.742,0.203-3.569,3.041-5.921
			c2.359-1.952,3.3-2.708,3.3-4.388c0-0.987-0.553-2.121-1.807-2.121c-1.807,0-1.862,1.701-1.88,2.793H71.767z"/>
		<path fill="#FFFFFF" d="M86.107,180.236h-5.143v-2.73h5.143V180.236z"/>
		<path fill="#FFFFFF" d="M86.31,175.113c0-4.851,3.115-5.271,4.276-5.271c2.507,0,4.498,1.68,4.498,4.703
			c0,2.562-1.457,3.863-2.729,4.851c-1.732,1.385-2.636,2.057-2.931,2.75h5.677v2.604h-8.94c0.092-1.742,0.203-3.569,3.042-5.921
			c2.359-1.952,3.299-2.708,3.299-4.388c0-0.987-0.553-2.121-1.806-2.121c-1.806,0-1.862,1.701-1.88,2.793H86.31z"/>
		<path fill="#FFFFFF" d="M104.706,181.453h-1.456v3.297h-2.581v-3.297h-5.161v-2.54l4.811-9.07h2.932v9.322h1.456V181.453z
			 M100.669,179.165c0-3.611,0.056-5.942,0.056-6.403h-0.037l-3.281,6.403H100.669z"/>
		<path fill="#FFFFFF" d="M109.978,180.236h-5.143v-2.73h5.143V180.236z"/>
		<path fill="#FFFFFF" d="M114.678,185.148c-3.373,0-4.534-2.498-4.534-4.535c0-0.756,0-2.729,1.991-3.779
			c-1.033-0.588-1.586-1.532-1.586-2.918c0-2.541,1.788-4.073,4.074-4.073c2.709,0,4.146,1.827,4.146,3.884
			c0,1.281-0.46,2.373-1.511,3.003c1.253,0.714,1.954,1.659,1.954,3.591C119.213,182.209,118.144,185.148,114.678,185.148z
			 M114.641,178.115c-0.939,0-1.843,0.693-1.843,2.31c0,1.428,0.719,2.372,1.898,2.372c1.346,0,1.862-1.322,1.862-2.352
			C116.559,179.396,116.079,178.115,114.641,178.115z M116.3,174.042c0-1.134-0.682-1.848-1.511-1.848
			c-1.162,0-1.77,0.756-1.77,1.848c0,0.882,0.571,1.848,1.677,1.848C115.71,175.89,116.3,175.113,116.3,174.042z"/>
		<path fill="#FFFFFF" d="M124.521,180.236h-5.143v-2.73h5.143V180.236z"/>
		<path fill="#FFFFFF" d="M124.724,175.113c0-4.851,3.115-5.271,4.276-5.271c2.507,0,4.497,1.68,4.497,4.703
			c0,2.562-1.456,3.863-2.728,4.851c-1.732,1.385-2.636,2.057-2.931,2.75h5.677v2.604h-8.939c0.092-1.742,0.202-3.569,3.041-5.921
			c2.359-1.952,3.3-2.708,3.3-4.388c0-0.987-0.554-2.121-1.807-2.121c-1.807,0-1.861,1.701-1.88,2.793H124.724z"/>
	</g>
	<g>
	</g>
	<g>
	</g>
	<g>
	</g>
	<g>
	</g>
	<g>
	</g>
	<g>
	</g>
</g>
</svg>
