<?xml version="1.0" encoding="utf-8"?>
<!-- Generator: Adobe Illustrator 16.0.0, SVG Export Plug-In . SVG Version: 6.00 Build 0)  -->
<!DOCTYPE svg PUBLIC "-//W3C//DTD SVG 1.1//EN" "http://www.w3.org/Graphics/SVG/1.1/DTD/svg11.dtd">
<svg version="1.1" xmlns="http://www.w3.org/2000/svg" xmlns:xlink="http://www.w3.org/1999/xlink" x="0px" y="0px" width="200px"
	 height="200px" viewBox="0 0 200 200" enable-background="new 0 0 200 200" xml:space="preserve">
<g id="Arriere-Plan">
	<rect fill="#FFFFFF" width="200" height="200"/>
</g>
<g id="Fond">
	<linearGradient id="SVGID_1_" gradientUnits="userSpaceOnUse" x1="-7.2217" y1="19.6768" x2="193.1594" y2="169.7889">
		<stop  offset="0" style="stop-color:#62B283"/>
		<stop  offset="0.1351" style="stop-color:#5FAA7C"/>
		<stop  offset="0.3166" style="stop-color:#589B6D"/>
		<stop  offset="0.5244" style="stop-color:#4C8256"/>
		<stop  offset="0.7519" style="stop-color:#3A633A"/>
		<stop  offset="0.9929" style="stop-color:#24411D"/>
		<stop  offset="1" style="stop-color:#23401C"/>
	</linearGradient>
	<rect x="4" y="4" fill="url(#SVGID_1_)" width="192" height="192"/>
</g>
<g id="Texte">
	<g>
		<path fill="#FFFFFF" d="M71.404,80.757c-1.264-5.16-3.687-14.879-16.748-14.879c-7.584,0-18.749,5.76-18.749,30.119
			c0,15.479,5.372,29.399,18.749,29.399c8.742,0,14.852-5.64,16.748-16.199h15.8c-3.16,18.719-13.904,31.799-32.864,31.799
			c-20.118,0-34.548-15.479-34.548-45.238c0-30.119,15.273-45.479,34.759-45.479c22.646,0,31.81,17.759,32.653,30.479H71.404z"/>
		<path fill="#FFFFFF" d="M178.209,138.715h-14.746V99.957c0-9.48-3.688-12.6-8.006-12.6c-7.373,0-10.006,5.52-10.006,13.08v38.278
			h-14.748v-38.398c0-5.4,0-12.959-8.848-12.959c-6.951,0-9.164,5.52-9.164,12.479v38.878H97.946V74.877h14.115v9.36h0.211
			c1.895-4.2,6.004-11.04,15.904-11.04c8.111,0,11.797,3.36,15.59,10.2c1.895-3.12,6.004-10.2,14.957-10.2
			c10.953,0,19.486,7.32,19.486,21.359V138.715z"/>
	</g>
	<g>
		<path fill="#FFFFFF" d="M175.023,18.628h2.24v3.941h3.922v2.24h-3.922v3.941h-2.24v-3.941h-3.92v-2.24h3.92V18.628z"/>
		<path fill="#FFFFFF" d="M186.244,20.528h0.439c0.84,0,2.381-0.08,2.381-1.92c0-0.52-0.24-1.82-1.78-1.82
			c-1.921,0-1.921,1.82-1.921,2.32h-2.6c0-2.661,1.5-4.561,4.7-4.561c1.9,0,4.401,0.96,4.401,3.961c0,1.44-0.9,2.34-1.701,2.701
			v0.04c0.5,0.14,2.141,0.88,2.141,3.301c0,2.68-1.98,4.581-4.841,4.581c-1.34,0-4.94-0.3-4.94-4.741h2.74l-0.02,0.02
			c0,0.76,0.199,2.48,2.08,2.48c1.12,0,2.1-0.76,2.1-2.34c0-1.94-1.88-2.021-3.18-2.021V20.528z"/>
	</g>
	<g>
	</g>
	<g>
	</g>
	<g>
		<path fill="#FFFFFF" d="M13,157.326v0.03c0.21,1.47,1.027,2.1,2.159,2.1c1.528,0,3.055-1.47,3.082-5.939l-0.053-0.061
			c-0.843,1.44-2.291,1.801-3.555,1.801c-3.582,0-5.663-3.09-5.663-6.66c0-5.22,2.713-7.649,6.374-7.649
			c6.479,0,6.584,7.949,6.584,10.949c0,8.25-3.423,10.92-6.794,10.92c-3.187,0-5.479-2.101-5.794-5.49H13z M15.422,151.896
			c1.291,0,2.712-1.05,2.712-3.569c0-2.431-0.921-3.931-2.818-3.931c-0.948,0-2.66,0.54-2.66,3.601
			C12.657,151.206,14.026,151.896,15.422,151.896z"/>
		<path fill="#FFFFFF" d="M32.486,146.347c-0.105-1.2-0.79-2.04-2.16-2.04c-2.396,0-2.95,3.12-3.082,5.88l0.053,0.061
			c0.5-0.78,1.422-1.771,3.503-1.771c3.872,0,5.715,3.39,5.715,6.569c0,4.65-2.502,7.771-6.11,7.771c-5.663,0-6.769-5.4-6.769-10.71
			c0-4.05,0.474-11.159,6.953-11.159c0.764,0,2.897,0.33,3.819,1.38c1.027,1.14,1.396,1.77,1.738,4.02H32.486z M30.143,151.837
			c-1.396,0-2.818,0.989-2.818,3.659c0,2.311,1.159,3.96,2.923,3.96c1.343,0,2.581-1.17,2.581-4.05
			C32.829,152.706,31.301,151.837,30.143,151.837z"/>
	</g>
	<g>
	</g>
	<g>
	</g>
	<g>
	</g>
	<g>
		<path fill="#FFFFFF" d="M13.32,20.302c0-4.621,2.965-5.021,4.071-5.021c2.387,0,4.282,1.601,4.282,4.481
			c0,2.44-1.386,3.681-2.597,4.621c-1.649,1.32-2.509,1.96-2.79,2.621h5.405v2.48H13.18c0.088-1.66,0.193-3.401,2.896-5.641
			c2.246-1.86,3.141-2.581,3.141-4.181c0-0.94-0.526-2.021-1.72-2.021c-1.72,0-1.772,1.621-1.79,2.661H13.32z"/>
		<path fill="#FFFFFF" d="M30.836,26.343H29.45v3.141h-2.457v-3.141H22.08v-2.42l4.58-8.642h2.79v8.882h1.386V26.343z
			 M26.994,24.163c0-3.44,0.053-5.661,0.053-6.101h-0.035l-3.124,6.101H26.994z"/>
		<path fill="#FFFFFF" d="M39.754,17.681c-1.193,1.48-4.247,5.682-4.545,11.803h-2.527c0.263-5.681,3.387-10.202,4.439-11.482
			h-6.194l0.053-2.48h8.774V17.681z"/>
	</g>
	<g>
		<path fill="#FFFFFF" d="M10.127,175.113c0-4.851,3.115-5.271,4.276-5.271c2.507,0,4.497,1.68,4.497,4.703
			c0,2.562-1.456,3.863-2.728,4.851c-1.733,1.385-2.636,2.057-2.931,2.75h5.677v2.604H9.979c0.092-1.742,0.203-3.569,3.041-5.921
			c2.359-1.952,3.3-2.708,3.3-4.388c0-0.987-0.553-2.121-1.807-2.121c-1.807,0-1.862,1.701-1.88,2.793H10.127z"/>
		<path fill="#FFFFFF" d="M24.468,180.236h-5.143v-2.73h5.143V180.236z"/>
		<path fill="#FFFFFF" d="M29.168,185.148c-3.374,0-4.535-2.498-4.535-4.535c0-0.756,0-2.729,1.991-3.779
			c-1.032-0.588-1.585-1.532-1.585-2.918c0-2.541,1.788-4.073,4.073-4.073c2.71,0,4.147,1.827,4.147,3.884
			c0,1.281-0.461,2.373-1.512,3.003c1.254,0.714,1.954,1.659,1.954,3.591C33.702,182.209,32.633,185.148,29.168,185.148z
			 M29.131,178.115c-0.94,0-1.843,0.693-1.843,2.31c0,1.428,0.719,2.372,1.898,2.372c1.346,0,1.862-1.322,1.862-2.352
			C31.048,179.396,30.568,178.115,29.131,178.115z M30.79,174.042c0-1.134-0.682-1.848-1.512-1.848c-1.161,0-1.77,0.756-1.77,1.848
			c0,0.882,0.571,1.848,1.677,1.848C30.2,175.89,30.79,175.113,30.79,174.042z"/>
		<path fill="#FFFFFF" d="M39.011,180.236h-5.143v-2.73h5.143V180.236z"/>
		<path fill="#FFFFFF" d="M39.859,172.426h0.369c2.488,0,3.152-1.471,3.207-2.583h2.12v14.907h-2.581v-10.268h-3.115V172.426z"/>
		<path fill="#FFFFFF" d="M52.394,185.148c-3.374,0-4.535-2.498-4.535-4.535c0-0.756,0-2.729,1.991-3.779
			c-1.032-0.588-1.585-1.532-1.585-2.918c0-2.541,1.788-4.073,4.073-4.073c2.71,0,4.147,1.827,4.147,3.884
			c0,1.281-0.461,2.373-1.512,3.003c1.254,0.714,1.954,1.659,1.954,3.591C56.928,182.209,55.858,185.148,52.394,185.148z
			 M52.356,178.115c-0.94,0-1.843,0.693-1.843,2.31c0,1.428,0.719,2.372,1.898,2.372c1.346,0,1.862-1.322,1.862-2.352
			C54.273,179.396,53.794,178.115,52.356,178.115z M54.016,174.042c0-1.134-0.682-1.848-1.512-1.848c-1.161,0-1.77,0.756-1.77,1.848
			c0,0.882,0.571,1.848,1.677,1.848C53.426,175.89,54.016,175.113,54.016,174.042z"/>
		<path fill="#FFFFFF" d="M62.236,180.236h-5.143v-2.73h5.143V180.236z"/>
		<path fill="#FFFFFF" d="M65.739,176.121h0.405c0.774,0,2.194-0.084,2.194-2.016c0-0.547-0.222-1.911-1.641-1.911
			c-1.77,0-1.77,1.911-1.77,2.436h-2.396c0-2.792,1.383-4.787,4.332-4.787c1.751,0,4.055,1.008,4.055,4.157
			c0,1.512-0.829,2.457-1.566,2.834v0.043c0.461,0.146,1.972,0.924,1.972,3.464c0,2.813-1.825,4.808-4.46,4.808
			c-1.235,0-4.553-0.314-4.553-4.976h2.525l-0.019,0.021c0,0.799,0.185,2.604,1.917,2.604c1.032,0,1.936-0.797,1.936-2.456
			c0-2.036-1.733-2.12-2.931-2.12V176.121z"/>
		<path fill="#FFFFFF" d="M71.767,175.113c0-4.851,3.115-5.271,4.276-5.271c2.507,0,4.497,1.68,4.497,4.703
			c0,2.562-1.456,3.863-2.728,4.851c-1.733,1.385-2.636,2.057-2.931,2.75h5.677v2.604h-8.939c0.092-1.742,0.203-3.569,3.041-5.921
			c2.359-1.952,3.3-2.708,3.3-4.388c0-0.987-0.553-2.121-1.807-2.121c-1.807,0-1.862,1.701-1.88,2.793H71.767z"/>
		<path fill="#FFFFFF" d="M86.107,180.236h-5.143v-2.73h5.143V180.236z"/>
		<path fill="#FFFFFF" d="M86.31,175.113c0-4.851,3.115-5.271,4.276-5.271c2.507,0,4.498,1.68,4.498,4.703
			c0,2.562-1.457,3.863-2.729,4.851c-1.732,1.385-2.636,2.057-2.931,2.75h5.677v2.604h-8.94c0.092-1.742,0.203-3.569,3.042-5.921
			c2.359-1.952,3.299-2.708,3.299-4.388c0-0.987-0.553-2.121-1.806-2.121c-1.806,0-1.862,1.701-1.88,2.793H86.31z"/>
		<path fill="#FFFFFF" d="M98.218,175.806c0.479-0.378,1.069-0.819,2.341-0.819c1.751,0,3.963,1.387,3.963,4.809
			c0,2.037-0.903,5.354-4.756,5.354c-2.046,0-4.129-1.385-4.258-4.388h2.581c0.11,1.218,0.682,2.036,1.824,2.036
			c1.235,0,1.954-1.196,1.954-2.792c0-1.323-0.553-2.667-1.917-2.667c-0.351,0-1.235,0.021-1.732,1.071l-2.304-0.126l0.903-8.188
			h7.189v2.478h-5.327L98.218,175.806z"/>
		<path fill="#FFFFFF" d="M109.978,180.236h-5.143v-2.73h5.143V180.236z"/>
		<path fill="#FFFFFF" d="M112.927,181.307v0.021c0.147,1.028,0.719,1.469,1.512,1.469c1.069,0,2.138-1.028,2.156-4.156
			l-0.036-0.043c-0.59,1.008-1.604,1.26-2.489,1.26c-2.507,0-3.963-2.162-3.963-4.66c0-3.654,1.898-5.354,4.461-5.354
			c4.534,0,4.608,5.563,4.608,7.663c0,5.774-2.396,7.643-4.756,7.643c-2.23,0-3.834-1.469-4.055-3.842H112.927z M114.623,177.506
			c0.902,0,1.898-0.734,1.898-2.498c0-1.701-0.646-2.75-1.973-2.75c-0.663,0-1.861,0.377-1.861,2.52
			C112.688,177.023,113.646,177.506,114.623,177.506z"/>
		<path fill="#FFFFFF" d="M124.521,180.236h-5.143v-2.73h5.143V180.236z"/>
		<path fill="#FFFFFF" d="M124.724,175.113c0-4.851,3.115-5.271,4.276-5.271c2.507,0,4.497,1.68,4.497,4.703
			c0,2.562-1.456,3.863-2.728,4.851c-1.732,1.385-2.636,2.057-2.931,2.75h5.677v2.604h-8.939c0.092-1.742,0.202-3.569,3.041-5.921
			c2.359-1.952,3.3-2.708,3.3-4.388c0-0.987-0.554-2.121-1.807-2.121c-1.807,0-1.861,1.701-1.88,2.793H124.724z"/>
	</g>
	<g>
	</g>
	<g>
	</g>
	<g>
	</g>
	<g>
	</g>
	<g>
	</g>
	<g>
	</g>
</g>
</svg>
