<?xml version="1.0" encoding="utf-8"?>
<!-- Generator: Adobe Illustrator 16.0.0, SVG Export Plug-In . SVG Version: 6.00 Build 0)  -->
<!DOCTYPE svg PUBLIC "-//W3C//DTD SVG 1.1//EN" "http://www.w3.org/Graphics/SVG/1.1/DTD/svg11.dtd">
<svg version="1.1" xmlns="http://www.w3.org/2000/svg" xmlns:xlink="http://www.w3.org/1999/xlink" x="0px" y="0px" width="200px"
	 height="200px" viewBox="0 0 200 200" enable-background="new 0 0 200 200" xml:space="preserve">
<g id="Arriere-Plan">
	<rect fill="#FFFFFF" width="200" height="200"/>
</g>
<g id="Fond">
	<linearGradient id="SVGID_1_" gradientUnits="userSpaceOnUse" x1="-7.2217" y1="19.6768" x2="193.1594" y2="169.7889">
		<stop  offset="0" style="stop-color:#62B283"/>
		<stop  offset="0.1351" style="stop-color:#5FAA7C"/>
		<stop  offset="0.3166" style="stop-color:#589B6D"/>
		<stop  offset="0.5244" style="stop-color:#4C8256"/>
		<stop  offset="0.7519" style="stop-color:#3A633A"/>
		<stop  offset="0.9929" style="stop-color:#24411D"/>
		<stop  offset="1" style="stop-color:#23401C"/>
	</linearGradient>
	<rect x="4" y="4" fill="url(#SVGID_1_)" width="192" height="192"/>
</g>
<g id="Texte">
	<g>
		<path fill="#FFFFFF" d="M81.152,107.098c0,22.302-11.808,31.859-30.556,31.859c-6.836,0-16.986-1.889-23.615-10.266
			c-4.04-5.192-5.593-12.036-5.8-20.531V51.994h15.847v54.986c0,11.8,6.007,16.992,13.258,16.992c10.668,0,15.019-5.9,15.019-16.166
			V51.994h15.848V107.098z"/>
		<path fill="#FFFFFF" d="M109.322,82.083h0.207c2.279-4.012,6.629-9.793,15.951-9.793c12.119,0,22.891,10.62,22.891,32.331
			c0,17.228-6.836,33.747-23.201,33.747c-6.008,0-12.43-2.479-15.951-9.558h-0.207v7.905h-14.19V51.994h14.5V82.083z
			 M121.131,86.566c-9.943,0-12.43,10.148-12.43,20.178c0,9.321,3.625,18.053,12.844,18.053c9.322,0,11.91-11.563,11.91-18.997
			C133.455,95.888,130.348,86.566,121.131,86.566z"/>
		<path fill="#FFFFFF" d="M174.781,73.941h9.012V85.74h-9.012v34.102c0,3.657,0.104,5.073,6.008,5.073
			c0.932,0,1.969-0.118,3.004-0.235v12.507c-2.279,0.118-4.557,0.236-6.836,0.236h-1.865c-12.533,0-14.811-5.428-14.811-13.569
			V85.74h-7.457V73.941h7.457V56.949h14.5V73.941z"/>
	</g>
	<g>
	</g>
	<g>
	</g>
	<g>
	</g>
	<g>
		<path fill="#FFFFFF" d="M9.997,144.637h0.526c3.556,0,4.504-2.1,4.583-3.689h3.028v21.299h-3.687v-14.669H9.997V144.637z"/>
		<path fill="#FFFFFF" d="M22.795,148.477c0-6.93,4.451-7.529,6.11-7.529c3.582,0,6.426,2.399,6.426,6.72
			c0,3.659-2.081,5.52-3.898,6.93c-2.476,1.979-3.766,2.939-4.188,3.93h8.112v3.72H22.584c0.132-2.49,0.29-5.1,4.346-8.46
			c3.371-2.79,4.714-3.869,4.714-6.27c0-1.41-0.79-3.029-2.581-3.029c-2.581,0-2.66,2.43-2.687,3.989H22.795z"/>
		<path fill="#FFFFFF" d="M42.15,149.917h0.579c1.106,0,3.134-0.12,3.134-2.88c0-0.78-0.316-2.73-2.344-2.73
			c-2.528,0-2.528,2.73-2.528,3.48h-3.423c0-3.99,1.975-6.84,6.189-6.84c2.502,0,5.794,1.439,5.794,5.939
			c0,2.16-1.185,3.51-2.239,4.05v0.06c0.659,0.21,2.818,1.32,2.818,4.95c0,4.02-2.607,6.87-6.374,6.87
			c-1.765,0-6.505-0.45-6.505-7.11h3.608l-0.026,0.03c0,1.14,0.263,3.72,2.739,3.72c1.475,0,2.766-1.14,2.766-3.51
			c0-2.91-2.476-3.03-4.188-3.03V149.917z"/>
	</g>
	<g>
	</g>
	<g>
	</g>
	<g>
	</g>
	<g>
	</g>
	<g>
		<path fill="#FFFFFF" d="M10.127,175.113c0-4.851,3.115-5.271,4.276-5.271c2.507,0,4.497,1.68,4.497,4.703
			c0,2.562-1.456,3.863-2.728,4.851c-1.733,1.385-2.636,2.057-2.931,2.75h5.677v2.604H9.979c0.092-1.742,0.203-3.569,3.041-5.921
			c2.359-1.952,3.3-2.708,3.3-4.388c0-0.987-0.553-2.121-1.807-2.121c-1.807,0-1.862,1.701-1.88,2.793H10.127z"/>
		<path fill="#FFFFFF" d="M24.468,180.236h-5.143v-2.73h5.143V180.236z"/>
		<path fill="#FFFFFF" d="M29.168,185.148c-3.374,0-4.535-2.498-4.535-4.535c0-0.756,0-2.729,1.991-3.779
			c-1.032-0.588-1.585-1.532-1.585-2.918c0-2.541,1.788-4.073,4.073-4.073c2.71,0,4.147,1.827,4.147,3.884
			c0,1.281-0.461,2.373-1.512,3.003c1.254,0.714,1.954,1.659,1.954,3.591C33.702,182.209,32.633,185.148,29.168,185.148z
			 M29.131,178.115c-0.94,0-1.843,0.693-1.843,2.31c0,1.428,0.719,2.372,1.898,2.372c1.346,0,1.862-1.322,1.862-2.352
			C31.048,179.396,30.568,178.115,29.131,178.115z M30.79,174.042c0-1.134-0.682-1.848-1.512-1.848c-1.161,0-1.77,0.756-1.77,1.848
			c0,0.882,0.571,1.848,1.677,1.848C30.2,175.89,30.79,175.113,30.79,174.042z"/>
		<path fill="#FFFFFF" d="M39.011,180.236h-5.143v-2.73h5.143V180.236z"/>
		<path fill="#FFFFFF" d="M39.859,172.426h0.369c2.488,0,3.152-1.471,3.207-2.583h2.12v14.907h-2.581v-10.268h-3.115V172.426z"/>
		<path fill="#FFFFFF" d="M52.394,185.148c-3.374,0-4.535-2.498-4.535-4.535c0-0.756,0-2.729,1.991-3.779
			c-1.032-0.588-1.585-1.532-1.585-2.918c0-2.541,1.788-4.073,4.073-4.073c2.71,0,4.147,1.827,4.147,3.884
			c0,1.281-0.461,2.373-1.512,3.003c1.254,0.714,1.954,1.659,1.954,3.591C56.928,182.209,55.858,185.148,52.394,185.148z
			 M52.356,178.115c-0.94,0-1.843,0.693-1.843,2.31c0,1.428,0.719,2.372,1.898,2.372c1.346,0,1.862-1.322,1.862-2.352
			C54.273,179.396,53.794,178.115,52.356,178.115z M54.016,174.042c0-1.134-0.682-1.848-1.512-1.848c-1.161,0-1.77,0.756-1.77,1.848
			c0,0.882,0.571,1.848,1.677,1.848C53.426,175.89,54.016,175.113,54.016,174.042z"/>
		<path fill="#FFFFFF" d="M62.236,180.236h-5.143v-2.73h5.143V180.236z"/>
		<path fill="#FFFFFF" d="M65.739,176.121h0.405c0.774,0,2.194-0.084,2.194-2.016c0-0.547-0.222-1.911-1.641-1.911
			c-1.77,0-1.77,1.911-1.77,2.436h-2.396c0-2.792,1.383-4.787,4.332-4.787c1.751,0,4.055,1.008,4.055,4.157
			c0,1.512-0.829,2.457-1.566,2.834v0.043c0.461,0.146,1.972,0.924,1.972,3.464c0,2.813-1.825,4.808-4.46,4.808
			c-1.235,0-4.553-0.314-4.553-4.976h2.525l-0.019,0.021c0,0.799,0.185,2.604,1.917,2.604c1.032,0,1.936-0.797,1.936-2.456
			c0-2.036-1.733-2.12-2.931-2.12V176.121z"/>
		<path fill="#FFFFFF" d="M71.767,175.113c0-4.851,3.115-5.271,4.276-5.271c2.507,0,4.497,1.68,4.497,4.703
			c0,2.562-1.456,3.863-2.728,4.851c-1.733,1.385-2.636,2.057-2.931,2.75h5.677v2.604h-8.939c0.092-1.742,0.203-3.569,3.041-5.921
			c2.359-1.952,3.3-2.708,3.3-4.388c0-0.987-0.553-2.121-1.807-2.121c-1.807,0-1.862,1.701-1.88,2.793H71.767z"/>
		<path fill="#FFFFFF" d="M86.107,180.236h-5.143v-2.73h5.143V180.236z"/>
		<path fill="#FFFFFF" d="M89.609,176.121h0.405c0.774,0,2.193-0.084,2.193-2.016c0-0.547-0.221-1.911-1.64-1.911
			c-1.77,0-1.77,1.911-1.77,2.436h-2.396c0-2.792,1.382-4.787,4.332-4.787c1.751,0,4.056,1.008,4.056,4.157
			c0,1.512-0.83,2.457-1.567,2.834v0.043c0.46,0.146,1.972,0.924,1.972,3.464c0,2.813-1.825,4.808-4.461,4.808
			c-1.235,0-4.553-0.314-4.553-4.976h2.525l-0.019,0.021c0,0.799,0.185,2.604,1.917,2.604c1.032,0,1.936-0.797,1.936-2.456
			c0-2.036-1.732-2.12-2.931-2.12V176.121z"/>
		<path fill="#FFFFFF" d="M98.218,175.806c0.479-0.378,1.069-0.819,2.341-0.819c1.751,0,3.963,1.387,3.963,4.809
			c0,2.037-0.903,5.354-4.756,5.354c-2.046,0-4.129-1.385-4.258-4.388h2.581c0.11,1.218,0.682,2.036,1.824,2.036
			c1.235,0,1.954-1.196,1.954-2.792c0-1.323-0.553-2.667-1.917-2.667c-0.351,0-1.235,0.021-1.732,1.071l-2.304-0.126l0.903-8.188
			h7.189v2.478h-5.327L98.218,175.806z"/>
		<path fill="#FFFFFF" d="M109.978,180.236h-5.143v-2.73h5.143V180.236z"/>
		<path fill="#FFFFFF" d="M110.825,172.426h0.369c2.488,0,3.151-1.471,3.207-2.583h2.12v14.907h-2.581v-10.268h-3.115V172.426z"/>
		<path fill="#FFFFFF" d="M123.359,185.148c-3.373,0-4.534-2.498-4.534-4.535c0-0.756,0-2.729,1.991-3.779
			c-1.033-0.588-1.586-1.532-1.586-2.918c0-2.541,1.788-4.073,4.074-4.073c2.709,0,4.146,1.827,4.146,3.884
			c0,1.281-0.46,2.373-1.511,3.003c1.253,0.714,1.954,1.659,1.954,3.591C127.895,182.209,126.825,185.148,123.359,185.148z
			 M123.322,178.115c-0.939,0-1.843,0.693-1.843,2.31c0,1.428,0.719,2.372,1.898,2.372c1.346,0,1.862-1.322,1.862-2.352
			C125.24,179.396,124.761,178.115,123.322,178.115z M124.981,174.042c0-1.134-0.682-1.848-1.511-1.848
			c-1.162,0-1.77,0.756-1.77,1.848c0,0.882,0.571,1.848,1.677,1.848C124.392,175.89,124.981,175.113,124.981,174.042z"/>
		<path fill="#FFFFFF" d="M133.203,180.236h-5.143v-2.73h5.143V180.236z"/>
		<path fill="#FFFFFF" d="M137.903,185.148c-3.373,0-4.534-2.498-4.534-4.535c0-0.756,0-2.729,1.99-3.779
			c-1.031-0.588-1.585-1.532-1.585-2.918c0-2.541,1.788-4.073,4.074-4.073c2.709,0,4.147,1.827,4.147,3.884
			c0,1.281-0.461,2.373-1.512,3.003c1.253,0.714,1.953,1.659,1.953,3.591C142.438,182.209,141.369,185.148,137.903,185.148z
			 M137.867,178.115c-0.94,0-1.844,0.693-1.844,2.31c0,1.428,0.719,2.372,1.898,2.372c1.346,0,1.861-1.322,1.861-2.352
			C139.783,179.396,139.305,178.115,137.867,178.115z M139.525,174.042c0-1.134-0.682-1.848-1.512-1.848
			c-1.161,0-1.77,0.756-1.77,1.848c0,0.882,0.572,1.848,1.678,1.848C138.936,175.89,139.525,175.113,139.525,174.042z"/>
		<path fill="#FFFFFF" d="M147.747,180.236h-5.143v-2.73h5.143V180.236z"/>
		<path fill="#FFFFFF" d="M147.949,175.113c0-4.851,3.115-5.271,4.276-5.271c2.507,0,4.497,1.68,4.497,4.703
			c0,2.562-1.456,3.863-2.728,4.851c-1.733,1.385-2.636,2.057-2.931,2.75h5.677v2.604h-8.939c0.092-1.742,0.202-3.569,3.041-5.921
			c2.359-1.952,3.3-2.708,3.3-4.388c0-0.987-0.553-2.121-1.807-2.121c-1.807,0-1.861,1.701-1.88,2.793H147.949z"/>
	</g>
	<g>
	</g>
	<g>
	</g>
	<g>
	</g>
	<g>
	</g>
	<g>
	</g>
	<g>
	</g>
</g>
</svg>
