<?xml version="1.0" encoding="utf-8"?>
<!-- Generator: Adobe Illustrator 16.0.0, SVG Export Plug-In . SVG Version: 6.00 Build 0)  -->
<!DOCTYPE svg PUBLIC "-//W3C//DTD SVG 1.1//EN" "http://www.w3.org/Graphics/SVG/1.1/DTD/svg11.dtd">
<svg version="1.1" xmlns="http://www.w3.org/2000/svg" xmlns:xlink="http://www.w3.org/1999/xlink" x="0px" y="0px" width="200px"
	 height="200px" viewBox="0 0 200 200" enable-background="new 0 0 200 200" xml:space="preserve">
<g id="Arriere-Plan">
	<rect fill="#FFFFFF" width="200" height="200"/>
</g>
<g id="Fond">
	<linearGradient id="SVGID_1_" gradientUnits="userSpaceOnUse" x1="-7.2217" y1="19.6768" x2="193.1594" y2="169.7889">
		<stop  offset="0" style="stop-color:#62B283"/>
		<stop  offset="0.1351" style="stop-color:#5FAA7C"/>
		<stop  offset="0.3166" style="stop-color:#589B6D"/>
		<stop  offset="0.5244" style="stop-color:#4C8256"/>
		<stop  offset="0.7519" style="stop-color:#3A633A"/>
		<stop  offset="0.9929" style="stop-color:#24411D"/>
		<stop  offset="1" style="stop-color:#23401C"/>
	</linearGradient>
	<rect x="4" y="4" fill="url(#SVGID_1_)" width="192" height="192"/>
</g>
<g id="Texte">
	<g>
		<path fill="#FFFFFF" d="M73.429,107.098c0,22.302-11.808,31.859-30.556,31.859c-6.836,0-16.986-1.889-23.615-10.266
			c-4.04-5.192-5.593-12.036-5.8-20.531V51.994h15.847v54.986c0,11.8,6.007,16.992,13.258,16.992c10.668,0,15.019-5.9,15.019-16.166
			V51.994h15.848V107.098z"/>
		<path fill="#FFFFFF" d="M96.421,82.083h0.207c2.278-4.012,6.629-9.793,15.95-9.793c12.119,0,22.891,10.62,22.891,32.331
			c0,17.228-6.836,33.747-23.201,33.747c-6.008,0-12.429-2.479-15.951-9.558h-0.207v7.905H81.92V51.994h14.501V82.083z
			 M108.229,86.566c-9.943,0-12.43,10.148-12.43,20.178c0,9.321,3.625,18.053,12.844,18.053c9.322,0,11.911-11.563,11.911-18.997
			C120.554,95.888,117.446,86.566,108.229,86.566z"/>
		<path fill="#FFFFFF" d="M187.773,118.308c-3.833,15.104-14.812,20.06-24.237,20.06c-15.536,0-27.448-8.496-27.448-34.337
			c0-7.552,2.279-31.741,26.412-31.741c10.876,0,25.895,5.899,25.895,34.572v2.95h-37.806c0.414,4.72,1.243,15.34,12.947,15.34
			c4.039,0,8.183-2.36,9.322-6.844H187.773z M173.479,99.074c-0.829-10.148-6.525-13.216-11.187-13.216
			c-6.836,0-10.461,4.956-11.29,13.216H173.479z"/>
	</g>
	<g>
	</g>
	<g>
	</g>
	<g>
	</g>
	<g>
		<path fill="#FFFFFF" d="M9.997,144.637h0.526c3.556,0,4.504-2.1,4.583-3.689h3.028v21.299h-3.687v-14.669H9.997V144.637z"/>
		<path fill="#FFFFFF" d="M22.795,148.477c0-6.93,4.451-7.529,6.11-7.529c3.582,0,6.426,2.399,6.426,6.72
			c0,3.659-2.081,5.52-3.898,6.93c-2.476,1.979-3.766,2.939-4.188,3.93h8.112v3.72H22.584c0.132-2.49,0.29-5.1,4.346-8.46
			c3.371-2.79,4.714-3.869,4.714-6.27c0-1.41-0.79-3.029-2.581-3.029c-2.581,0-2.66,2.43-2.687,3.989H22.795z"/>
		<path fill="#FFFFFF" d="M41.36,157.326v0.03c0.21,1.47,1.027,2.1,2.159,2.1c1.528,0,3.055-1.47,3.082-5.939l-0.053-0.061
			c-0.843,1.44-2.291,1.801-3.555,1.801c-3.582,0-5.663-3.09-5.663-6.66c0-5.22,2.713-7.649,6.374-7.649
			c6.479,0,6.584,7.949,6.584,10.949c0,8.25-3.424,10.92-6.795,10.92c-3.187,0-5.478-2.101-5.794-5.49H41.36z M43.783,151.896
			c1.291,0,2.712-1.05,2.712-3.569c0-2.431-0.921-3.931-2.818-3.931c-0.948,0-2.66,0.54-2.66,3.601
			C41.018,151.206,42.387,151.896,43.783,151.896z"/>
	</g>
	<g>
	</g>
	<g>
	</g>
	<g>
	</g>
	<g>
	</g>
	<g>
		<path fill="#FFFFFF" d="M10.127,175.113c0-4.851,3.115-5.271,4.276-5.271c2.507,0,4.497,1.68,4.497,4.703
			c0,2.562-1.456,3.863-2.728,4.851c-1.733,1.385-2.636,2.057-2.931,2.75h5.677v2.604H9.979c0.092-1.742,0.203-3.569,3.041-5.921
			c2.359-1.952,3.3-2.708,3.3-4.388c0-0.987-0.553-2.121-1.807-2.121c-1.807,0-1.862,1.701-1.88,2.793H10.127z"/>
		<path fill="#FFFFFF" d="M24.468,180.236h-5.143v-2.73h5.143V180.236z"/>
		<path fill="#FFFFFF" d="M29.168,185.148c-3.374,0-4.535-2.498-4.535-4.535c0-0.756,0-2.729,1.991-3.779
			c-1.032-0.588-1.585-1.532-1.585-2.918c0-2.541,1.788-4.073,4.073-4.073c2.71,0,4.147,1.827,4.147,3.884
			c0,1.281-0.461,2.373-1.512,3.003c1.254,0.714,1.954,1.659,1.954,3.591C33.702,182.209,32.633,185.148,29.168,185.148z
			 M29.131,178.115c-0.94,0-1.843,0.693-1.843,2.31c0,1.428,0.719,2.372,1.898,2.372c1.346,0,1.862-1.322,1.862-2.352
			C31.048,179.396,30.568,178.115,29.131,178.115z M30.79,174.042c0-1.134-0.682-1.848-1.512-1.848c-1.161,0-1.77,0.756-1.77,1.848
			c0,0.882,0.571,1.848,1.677,1.848C30.2,175.89,30.79,175.113,30.79,174.042z"/>
		<path fill="#FFFFFF" d="M39.011,180.236h-5.143v-2.73h5.143V180.236z"/>
		<path fill="#FFFFFF" d="M39.859,172.426h0.369c2.488,0,3.152-1.471,3.207-2.583h2.12v14.907h-2.581v-10.268h-3.115V172.426z"/>
		<path fill="#FFFFFF" d="M52.394,185.148c-3.374,0-4.535-2.498-4.535-4.535c0-0.756,0-2.729,1.991-3.779
			c-1.032-0.588-1.585-1.532-1.585-2.918c0-2.541,1.788-4.073,4.073-4.073c2.71,0,4.147,1.827,4.147,3.884
			c0,1.281-0.461,2.373-1.512,3.003c1.254,0.714,1.954,1.659,1.954,3.591C56.928,182.209,55.858,185.148,52.394,185.148z
			 M52.356,178.115c-0.94,0-1.843,0.693-1.843,2.31c0,1.428,0.719,2.372,1.898,2.372c1.346,0,1.862-1.322,1.862-2.352
			C54.273,179.396,53.794,178.115,52.356,178.115z M54.016,174.042c0-1.134-0.682-1.848-1.512-1.848c-1.161,0-1.77,0.756-1.77,1.848
			c0,0.882,0.571,1.848,1.677,1.848C53.426,175.89,54.016,175.113,54.016,174.042z"/>
		<path fill="#FFFFFF" d="M62.236,180.236h-5.143v-2.73h5.143V180.236z"/>
		<path fill="#FFFFFF" d="M65.739,176.121h0.405c0.774,0,2.194-0.084,2.194-2.016c0-0.547-0.222-1.911-1.641-1.911
			c-1.77,0-1.77,1.911-1.77,2.436h-2.396c0-2.792,1.383-4.787,4.332-4.787c1.751,0,4.055,1.008,4.055,4.157
			c0,1.512-0.829,2.457-1.566,2.834v0.043c0.461,0.146,1.972,0.924,1.972,3.464c0,2.813-1.825,4.808-4.46,4.808
			c-1.235,0-4.553-0.314-4.553-4.976h2.525l-0.019,0.021c0,0.799,0.185,2.604,1.917,2.604c1.032,0,1.936-0.797,1.936-2.456
			c0-2.036-1.733-2.12-2.931-2.12V176.121z"/>
		<path fill="#FFFFFF" d="M71.767,175.113c0-4.851,3.115-5.271,4.276-5.271c2.507,0,4.497,1.68,4.497,4.703
			c0,2.562-1.456,3.863-2.728,4.851c-1.733,1.385-2.636,2.057-2.931,2.75h5.677v2.604h-8.939c0.092-1.742,0.203-3.569,3.041-5.921
			c2.359-1.952,3.3-2.708,3.3-4.388c0-0.987-0.553-2.121-1.807-2.121c-1.807,0-1.862,1.701-1.88,2.793H71.767z"/>
		<path fill="#FFFFFF" d="M86.107,180.236h-5.143v-2.73h5.143V180.236z"/>
		<path fill="#FFFFFF" d="M95.379,181.453h-1.457v3.297h-2.581v-3.297h-5.161v-2.54l4.811-9.07h2.931v9.322h1.457V181.453z
			 M91.342,179.165c0-3.611,0.056-5.942,0.056-6.403H91.36l-3.281,6.403H91.342z"/>
		<path fill="#FFFFFF" d="M96.282,172.426h0.369c2.488,0,3.152-1.471,3.208-2.583h2.119v14.907h-2.58v-10.268h-3.115V172.426z"/>
		<path fill="#FFFFFF" d="M108.596,180.236h-5.143v-2.73h5.143V180.236z"/>
		<path fill="#FFFFFF" d="M109.442,172.426h0.369c2.488,0,3.151-1.471,3.207-2.583h2.12v14.907h-2.581v-10.268h-3.115V172.426z"/>
		<path fill="#FFFFFF" d="M121.978,185.148c-3.373,0-4.534-2.498-4.534-4.535c0-0.756,0-2.729,1.99-3.779
			c-1.031-0.588-1.585-1.532-1.585-2.918c0-2.541,1.788-4.073,4.074-4.073c2.709,0,4.147,1.827,4.147,3.884
			c0,1.281-0.461,2.373-1.512,3.003c1.253,0.714,1.953,1.659,1.953,3.591C126.512,182.209,125.443,185.148,121.978,185.148z
			 M121.941,178.115c-0.94,0-1.844,0.693-1.844,2.31c0,1.428,0.719,2.372,1.898,2.372c1.346,0,1.861-1.322,1.861-2.352
			C123.857,179.396,123.379,178.115,121.941,178.115z M123.6,174.042c0-1.134-0.682-1.848-1.512-1.848
			c-1.161,0-1.77,0.756-1.77,1.848c0,0.882,0.572,1.848,1.678,1.848C123.01,175.89,123.6,175.113,123.6,174.042z"/>
		<path fill="#FFFFFF" d="M131.821,180.236h-5.143v-2.73h5.143V180.236z"/>
		<path fill="#FFFFFF" d="M136.521,185.148c-3.373,0-4.534-2.498-4.534-4.535c0-0.756,0-2.729,1.99-3.779
			c-1.031-0.588-1.585-1.532-1.585-2.918c0-2.541,1.788-4.073,4.074-4.073c2.709,0,4.147,1.827,4.147,3.884
			c0,1.281-0.461,2.373-1.512,3.003c1.253,0.714,1.953,1.659,1.953,3.591C141.055,182.209,139.986,185.148,136.521,185.148z
			 M136.484,178.115c-0.94,0-1.844,0.693-1.844,2.31c0,1.428,0.719,2.372,1.898,2.372c1.346,0,1.861-1.322,1.861-2.352
			C138.4,179.396,137.922,178.115,136.484,178.115z M138.143,174.042c0-1.134-0.682-1.848-1.512-1.848
			c-1.161,0-1.77,0.756-1.77,1.848c0,0.882,0.572,1.848,1.678,1.848C137.553,175.89,138.143,175.113,138.143,174.042z"/>
		<path fill="#FFFFFF" d="M146.364,180.236h-5.143v-2.73h5.143V180.236z"/>
		<path fill="#FFFFFF" d="M146.567,175.113c0-4.851,3.115-5.271,4.276-5.271c2.507,0,4.497,1.68,4.497,4.703
			c0,2.562-1.456,3.863-2.728,4.851c-1.732,1.385-2.636,2.057-2.931,2.75h5.677v2.604h-8.939c0.092-1.742,0.202-3.569,3.041-5.921
			c2.359-1.952,3.3-2.708,3.3-4.388c0-0.987-0.554-2.121-1.807-2.121c-1.807,0-1.861,1.701-1.88,2.793H146.567z"/>
	</g>
	<g>
	</g>
	<g>
	</g>
	<g>
	</g>
	<g>
	</g>
	<g>
	</g>
	<g>
	</g>
</g>
</svg>
