<?xml version="1.0" encoding="utf-8"?>
<!-- Generator: Adobe Illustrator 16.0.0, SVG Export Plug-In . SVG Version: 6.00 Build 0)  -->
<!DOCTYPE svg PUBLIC "-//W3C//DTD SVG 1.1//EN" "http://www.w3.org/Graphics/SVG/1.1/DTD/svg11.dtd">
<svg version="1.1" xmlns="http://www.w3.org/2000/svg" xmlns:xlink="http://www.w3.org/1999/xlink" x="0px" y="0px" width="200px"
	 height="200px" viewBox="0 0 200 200" enable-background="new 0 0 200 200" xml:space="preserve">
<g id="Arriere-Plan">
	<rect fill="#FFFFFF" width="200" height="200"/>
</g>
<g id="Fond">
	<linearGradient id="SVGID_1_" gradientUnits="userSpaceOnUse" x1="-7.2217" y1="19.6768" x2="193.1594" y2="169.7889">
		<stop  offset="0" style="stop-color:#62B283"/>
		<stop  offset="0.1351" style="stop-color:#5FAA7C"/>
		<stop  offset="0.3166" style="stop-color:#589B6D"/>
		<stop  offset="0.5244" style="stop-color:#4C8256"/>
		<stop  offset="0.7519" style="stop-color:#3A633A"/>
		<stop  offset="0.9929" style="stop-color:#24411D"/>
		<stop  offset="1" style="stop-color:#23401C"/>
	</linearGradient>
	<rect x="4" y="4" fill="url(#SVGID_1_)" width="192" height="192"/>
</g>
<g id="Texte">
	<g>
		<path fill="#FFFFFF" d="M86.045,80.757c-1.264-5.16-3.687-14.879-16.748-14.879c-7.584,0-18.749,5.76-18.749,30.119
			c0,15.479,5.372,29.399,18.749,29.399c8.742,0,14.852-5.64,16.748-16.199h15.8c-3.161,18.719-13.904,31.799-32.864,31.799
			c-20.118,0-34.548-15.479-34.548-45.238c0-30.119,15.273-45.479,34.759-45.479c22.646,0,31.81,17.759,32.653,30.479H86.045z"/>
		<path fill="#FFFFFF" d="M163.357,138.715h-14.746V99.957c0-4.68-0.211-12.6-9.586-12.6c-6.531,0-11.586,5.04-11.586,14.759v36.599
			h-14.746V74.877h14.113v9.36h0.211c2.002-3.84,6.215-11.04,16.854-11.04c10.955,0,19.486,7.32,19.486,21.359V138.715z"/>
	</g>
	<g>
	</g>
	<g>
	</g>
	<g>
	</g>
	<g>
		<path fill="#FFFFFF" d="M9.997,144.637h0.526c3.556,0,4.504-2.1,4.583-3.689h3.028v21.299h-3.687v-14.669H9.997V144.637z"/>
		<path fill="#FFFFFF" d="M22.137,144.637h0.526c3.556,0,4.504-2.1,4.583-3.689h3.028v21.299h-3.687v-14.669h-4.451V144.637z"/>
		<path fill="#FFFFFF" d="M34.935,148.477c0-6.93,4.451-7.529,6.11-7.529c3.582,0,6.426,2.399,6.426,6.72
			c0,3.659-2.081,5.52-3.898,6.93c-2.476,1.979-3.766,2.939-4.188,3.93h8.112v3.72H34.724c0.132-2.49,0.29-5.1,4.346-8.46
			c3.371-2.79,4.714-3.869,4.714-6.27c0-1.41-0.79-3.029-2.581-3.029c-2.581,0-2.66,2.43-2.687,3.989H34.935z"/>
	</g>
	<g>
	</g>
	<g>
	</g>
	<g>
	</g>
	<g>
		<path fill="#FFFFFF" d="M13.32,20.302c0-4.621,2.965-5.021,4.071-5.021c2.387,0,4.282,1.601,4.282,4.481
			c0,2.44-1.386,3.681-2.597,4.621c-1.649,1.32-2.509,1.96-2.79,2.621h5.405v2.48H13.18c0.088-1.66,0.193-3.401,2.896-5.641
			c2.246-1.86,3.141-2.581,3.141-4.181c0-0.94-0.526-2.021-1.72-2.021c-1.72,0-1.772,1.621-1.79,2.661H13.32z"/>
		<path fill="#FFFFFF" d="M26.485,29.864c-3.211,0-4.317-2.38-4.317-4.321c0-0.72,0-2.601,1.895-3.601
			c-0.982-0.56-1.509-1.46-1.509-2.781c0-2.42,1.702-3.881,3.878-3.881c2.58,0,3.948,1.74,3.948,3.701
			c0,1.22-0.439,2.261-1.439,2.861c1.193,0.68,1.86,1.58,1.86,3.421C30.801,27.063,29.784,29.864,26.485,29.864z M26.45,23.163
			c-0.895,0-1.755,0.66-1.755,2.2c0,1.36,0.685,2.261,1.808,2.261c1.281,0,1.772-1.26,1.772-2.241
			C28.274,24.383,27.818,23.163,26.45,23.163z M28.029,19.282c0-1.08-0.649-1.76-1.439-1.76c-1.105,0-1.685,0.72-1.685,1.76
			c0,0.84,0.544,1.76,1.597,1.76C27.467,21.042,28.029,20.302,28.029,19.282z"/>
		<path fill="#FFFFFF" d="M33.542,20.962c0.456-0.36,1.018-0.78,2.229-0.78c1.667,0,3.773,1.32,3.773,4.581
			c0,1.94-0.86,5.101-4.527,5.101c-1.948,0-3.931-1.32-4.054-4.181h2.457c0.105,1.16,0.649,1.94,1.737,1.94
			c1.176,0,1.86-1.14,1.86-2.661c0-1.26-0.526-2.541-1.825-2.541c-0.333,0-1.176,0.02-1.649,1.02l-2.193-0.12l0.86-7.802h6.843v2.36
			h-5.071L33.542,20.962z"/>
	</g>
	<g>
		<path fill="#FFFFFF" d="M10.127,175.113c0-4.851,3.115-5.271,4.276-5.271c2.507,0,4.497,1.68,4.497,4.703
			c0,2.562-1.456,3.863-2.728,4.851c-1.733,1.385-2.636,2.057-2.931,2.75h5.677v2.604H9.979c0.092-1.742,0.203-3.569,3.041-5.921
			c2.359-1.952,3.3-2.708,3.3-4.388c0-0.987-0.553-2.121-1.807-2.121c-1.807,0-1.862,1.701-1.88,2.793H10.127z"/>
		<path fill="#FFFFFF" d="M24.468,180.236h-5.143v-2.73h5.143V180.236z"/>
		<path fill="#FFFFFF" d="M29.168,185.148c-3.374,0-4.535-2.498-4.535-4.535c0-0.756,0-2.729,1.991-3.779
			c-1.032-0.588-1.585-1.532-1.585-2.918c0-2.541,1.788-4.073,4.073-4.073c2.71,0,4.147,1.827,4.147,3.884
			c0,1.281-0.461,2.373-1.512,3.003c1.254,0.714,1.954,1.659,1.954,3.591C33.702,182.209,32.633,185.148,29.168,185.148z
			 M29.131,178.115c-0.94,0-1.843,0.693-1.843,2.31c0,1.428,0.719,2.372,1.898,2.372c1.346,0,1.862-1.322,1.862-2.352
			C31.048,179.396,30.568,178.115,29.131,178.115z M30.79,174.042c0-1.134-0.682-1.848-1.512-1.848c-1.161,0-1.77,0.756-1.77,1.848
			c0,0.882,0.571,1.848,1.677,1.848C30.2,175.89,30.79,175.113,30.79,174.042z"/>
		<path fill="#FFFFFF" d="M39.011,180.236h-5.143v-2.73h5.143V180.236z"/>
		<path fill="#FFFFFF" d="M39.859,172.426h0.369c2.488,0,3.152-1.471,3.207-2.583h2.12v14.907h-2.581v-10.268h-3.115V172.426z"/>
		<path fill="#FFFFFF" d="M52.394,185.148c-3.374,0-4.535-2.498-4.535-4.535c0-0.756,0-2.729,1.991-3.779
			c-1.032-0.588-1.585-1.532-1.585-2.918c0-2.541,1.788-4.073,4.073-4.073c2.71,0,4.147,1.827,4.147,3.884
			c0,1.281-0.461,2.373-1.512,3.003c1.254,0.714,1.954,1.659,1.954,3.591C56.928,182.209,55.858,185.148,52.394,185.148z
			 M52.356,178.115c-0.94,0-1.843,0.693-1.843,2.31c0,1.428,0.719,2.372,1.898,2.372c1.346,0,1.862-1.322,1.862-2.352
			C54.273,179.396,53.794,178.115,52.356,178.115z M54.016,174.042c0-1.134-0.682-1.848-1.512-1.848c-1.161,0-1.77,0.756-1.77,1.848
			c0,0.882,0.571,1.848,1.677,1.848C53.426,175.89,54.016,175.113,54.016,174.042z"/>
		<path fill="#FFFFFF" d="M62.236,180.236h-5.143v-2.73h5.143V180.236z"/>
		<path fill="#FFFFFF" d="M65.739,176.121h0.405c0.774,0,2.194-0.084,2.194-2.016c0-0.547-0.222-1.911-1.641-1.911
			c-1.77,0-1.77,1.911-1.77,2.436h-2.396c0-2.792,1.383-4.787,4.332-4.787c1.751,0,4.055,1.008,4.055,4.157
			c0,1.512-0.829,2.457-1.566,2.834v0.043c0.461,0.146,1.972,0.924,1.972,3.464c0,2.813-1.825,4.808-4.46,4.808
			c-1.235,0-4.553-0.314-4.553-4.976h2.525l-0.019,0.021c0,0.799,0.185,2.604,1.917,2.604c1.032,0,1.936-0.797,1.936-2.456
			c0-2.036-1.733-2.12-2.931-2.12V176.121z"/>
		<path fill="#FFFFFF" d="M71.767,175.113c0-4.851,3.115-5.271,4.276-5.271c2.507,0,4.497,1.68,4.497,4.703
			c0,2.562-1.456,3.863-2.728,4.851c-1.733,1.385-2.636,2.057-2.931,2.75h5.677v2.604h-8.939c0.092-1.742,0.203-3.569,3.041-5.921
			c2.359-1.952,3.3-2.708,3.3-4.388c0-0.987-0.553-2.121-1.807-2.121c-1.807,0-1.862,1.701-1.88,2.793H71.767z"/>
		<path fill="#FFFFFF" d="M86.107,180.236h-5.143v-2.73h5.143V180.236z"/>
		<path fill="#FFFFFF" d="M89.609,176.121h0.405c0.774,0,2.193-0.084,2.193-2.016c0-0.547-0.221-1.911-1.64-1.911
			c-1.77,0-1.77,1.911-1.77,2.436h-2.396c0-2.792,1.382-4.787,4.332-4.787c1.751,0,4.056,1.008,4.056,4.157
			c0,1.512-0.83,2.457-1.567,2.834v0.043c0.46,0.146,1.972,0.924,1.972,3.464c0,2.813-1.825,4.808-4.461,4.808
			c-1.235,0-4.553-0.314-4.553-4.976h2.525l-0.019,0.021c0,0.799,0.185,2.604,1.917,2.604c1.032,0,1.936-0.797,1.936-2.456
			c0-2.036-1.732-2.12-2.931-2.12V176.121z"/>
		<path fill="#FFFFFF" d="M95.637,175.113c0-4.851,3.115-5.271,4.276-5.271c2.507,0,4.498,1.68,4.498,4.703
			c0,2.562-1.456,3.863-2.729,4.851c-1.732,1.385-2.636,2.057-2.931,2.75h5.678v2.604h-8.94c0.092-1.742,0.203-3.569,3.042-5.921
			c2.359-1.952,3.299-2.708,3.299-4.388c0-0.987-0.553-2.121-1.807-2.121c-1.806,0-1.861,1.701-1.88,2.793H95.637z"/>
		<path fill="#FFFFFF" d="M109.978,180.236h-5.143v-2.73h5.143V180.236z"/>
		<path fill="#FFFFFF" d="M110.825,172.426h0.369c2.488,0,3.151-1.471,3.207-2.583h2.12v14.907h-2.581v-10.268h-3.115V172.426z"/>
		<path fill="#FFFFFF" d="M123.359,185.148c-3.373,0-4.534-2.498-4.534-4.535c0-0.756,0-2.729,1.991-3.779
			c-1.033-0.588-1.586-1.532-1.586-2.918c0-2.541,1.788-4.073,4.074-4.073c2.709,0,4.146,1.827,4.146,3.884
			c0,1.281-0.46,2.373-1.511,3.003c1.253,0.714,1.954,1.659,1.954,3.591C127.895,182.209,126.825,185.148,123.359,185.148z
			 M123.322,178.115c-0.939,0-1.843,0.693-1.843,2.31c0,1.428,0.719,2.372,1.898,2.372c1.346,0,1.862-1.322,1.862-2.352
			C125.24,179.396,124.761,178.115,123.322,178.115z M124.981,174.042c0-1.134-0.682-1.848-1.511-1.848
			c-1.162,0-1.77,0.756-1.77,1.848c0,0.882,0.571,1.848,1.677,1.848C124.392,175.89,124.981,175.113,124.981,174.042z"/>
		<path fill="#FFFFFF" d="M133.203,180.236h-5.143v-2.73h5.143V180.236z"/>
		<path fill="#FFFFFF" d="M133.406,175.113c0-4.851,3.115-5.271,4.276-5.271c2.507,0,4.497,1.68,4.497,4.703
			c0,2.562-1.456,3.863-2.728,4.851c-1.733,1.385-2.636,2.057-2.931,2.75h5.677v2.604h-8.939c0.092-1.742,0.202-3.569,3.041-5.921
			c2.359-1.952,3.3-2.708,3.3-4.388c0-0.987-0.553-2.121-1.807-2.121c-1.807,0-1.861,1.701-1.88,2.793H133.406z"/>
	</g>
	<g>
	</g>
	<g>
	</g>
	<g>
	</g>
	<g>
	</g>
	<g>
	</g>
	<g>
	</g>
</g>
</svg>
