<?xml version="1.0" encoding="utf-8"?>
<!-- Generator: Adobe Illustrator 16.0.0, SVG Export Plug-In . SVG Version: 6.00 Build 0)  -->
<!DOCTYPE svg PUBLIC "-//W3C//DTD SVG 1.1//EN" "http://www.w3.org/Graphics/SVG/1.1/DTD/svg11.dtd">
<svg version="1.1" xmlns="http://www.w3.org/2000/svg" xmlns:xlink="http://www.w3.org/1999/xlink" x="0px" y="0px" width="200px"
	 height="200px" viewBox="0 0 200 200" enable-background="new 0 0 200 200" xml:space="preserve">
<g id="Arriere-Plan">
	<rect fill="#FFFFFF" width="200" height="200"/>
</g>
<g id="Fond">
	<linearGradient id="SVGID_1_" gradientUnits="userSpaceOnUse" x1="-7.2217" y1="19.6768" x2="193.1594" y2="169.7889">
		<stop  offset="0" style="stop-color:#62B283"/>
		<stop  offset="0.1351" style="stop-color:#5FAA7C"/>
		<stop  offset="0.3166" style="stop-color:#589B6D"/>
		<stop  offset="0.5244" style="stop-color:#4C8256"/>
		<stop  offset="0.7519" style="stop-color:#3A633A"/>
		<stop  offset="0.9929" style="stop-color:#24411D"/>
		<stop  offset="1" style="stop-color:#23401C"/>
	</linearGradient>
	<rect x="4" y="4" fill="url(#SVGID_1_)" width="192" height="192"/>
</g>
<g id="Texte">
	<g>
		<path fill="#FFFFFF" d="M53.077,100.076v38.639h-15.8V52.559h15.8v32.639h29.493V52.559h15.799v86.156H82.569v-38.639H53.077z"/>
		<path fill="#FFFFFF" d="M164.094,74.877v60.478c0,11.039-0.736,29.398-28.334,29.398c-11.586,0-23.805-5.64-24.436-19.199h16.01
			c0.631,3.24,1.791,6.479,10.322,6.479c7.9,0,11.691-4.319,11.691-14.64v-7.68l-0.211-0.239c-2.422,4.919-6.109,9.6-14.957,9.6
			c-13.482,0-24.121-10.68-24.121-32.999c0-22.079,10.955-32.879,23.279-32.879c10.428,0,14.641,6.96,16.432,11.16h0.211v-9.479
			H164.094z M136.92,124.915c10.006,0,12.533-9.72,12.533-18.479c0-10.32-4.424-18.72-12.639-18.72
			c-5.479,0-11.588,4.56-11.588,19.439C125.227,115.315,128.176,124.915,136.92,124.915z"/>
	</g>
	<g>
		<path fill="#FFFFFF" d="M175.023,18.628h2.24v3.941h3.922v2.24h-3.922v3.941h-2.24v-3.941h-3.92v-2.24h3.92V18.628z"/>
		<path fill="#FFFFFF" d="M182.663,19.568c0-4.621,3.381-5.021,4.642-5.021c2.72,0,4.881,1.601,4.881,4.481
			c0,2.44-1.58,3.681-2.961,4.621c-1.881,1.32-2.861,1.96-3.181,2.621h6.161v2.48h-9.702c0.101-1.66,0.22-3.401,3.301-5.641
			c2.561-1.86,3.581-2.581,3.581-4.181c0-0.94-0.601-2.021-1.961-2.021c-1.96,0-2.02,1.621-2.04,2.661H182.663z"/>
	</g>
	<g>
		<path fill="#FFFFFF" d="M175.023,38.628h2.24v3.941h3.922v2.24h-3.922v3.941h-2.24v-3.941h-3.92v-2.24h3.92V38.628z"/>
		<path fill="#FFFFFF" d="M183.363,37.007h0.4c2.7,0,3.42-1.4,3.48-2.46h2.301V48.75h-2.801v-9.782h-3.381V37.007z"/>
	</g>
	<g>
	</g>
	<g>
	</g>
	<g>
	</g>
	<g>
	</g>
	<g>
		<path fill="#FFFFFF" d="M13.32,20.302c0-4.621,2.965-5.021,4.071-5.021c2.387,0,4.282,1.601,4.282,4.481
			c0,2.44-1.386,3.681-2.597,4.621c-1.649,1.32-2.509,1.96-2.79,2.621h5.405v2.48H13.18c0.088-1.66,0.193-3.401,2.896-5.641
			c2.246-1.86,3.141-2.581,3.141-4.181c0-0.94-0.526-2.021-1.72-2.021c-1.72,0-1.772,1.621-1.79,2.661H13.32z"/>
		<path fill="#FFFFFF" d="M26.485,15.281c2.93,0,4.316,2.301,4.316,7.282s-1.386,7.301-4.316,7.301c-2.931,0-4.317-2.32-4.317-7.301
			S23.554,15.281,26.485,15.281z M26.485,27.624c1.404,0,1.79-1.4,1.79-5.061s-0.386-5.041-1.79-5.041s-1.79,1.38-1.79,5.041
			S25.081,27.624,26.485,27.624z"/>
		<path fill="#FFFFFF" d="M36.07,15.281c2.93,0,4.316,2.301,4.316,7.282S39,29.864,36.07,29.864c-2.931,0-4.317-2.32-4.317-7.301
			S33.139,15.281,36.07,15.281z M36.07,27.624c1.404,0,1.79-1.4,1.79-5.061s-0.386-5.041-1.79-5.041s-1.79,1.38-1.79,5.041
			S34.666,27.624,36.07,27.624z"/>
		<path fill="#FFFFFF" d="M43.83,29.484h-2.632v-2.92h2.632V29.484z"/>
		<path fill="#FFFFFF" d="M47.13,20.962c0.456-0.36,1.018-0.78,2.229-0.78c1.667,0,3.773,1.32,3.773,4.581
			c0,1.94-0.86,5.101-4.527,5.101c-1.948,0-3.931-1.32-4.054-4.181h2.457c0.105,1.16,0.649,1.94,1.737,1.94
			c1.176,0,1.86-1.14,1.86-2.661c0-1.26-0.526-2.541-1.825-2.541c-0.333,0-1.176,0.02-1.649,1.02l-2.193-0.12l0.86-7.802h6.843v2.36
			h-5.071L47.13,20.962z"/>
		<path fill="#FFFFFF" d="M56.171,26.203v0.02c0.14,0.98,0.684,1.4,1.438,1.4c1.018,0,2.036-0.98,2.053-3.961l-0.035-0.04
			c-0.562,0.96-1.526,1.2-2.369,1.2c-2.387,0-3.773-2.061-3.773-4.441c0-3.48,1.808-5.101,4.247-5.101
			c4.317,0,4.387,5.301,4.387,7.302c0,5.501-2.281,7.281-4.527,7.281c-2.123,0-3.649-1.4-3.86-3.661H56.171z M57.786,22.583
			c0.86,0,1.807-0.7,1.807-2.381c0-1.62-0.614-2.62-1.877-2.62c-0.632,0-1.772,0.36-1.772,2.4
			C55.943,22.123,56.855,22.583,57.786,22.583z"/>
	</g>

	<g>
	</g>
	<g>
	<g>
		<text x="10" y="180" font-family="sans-serif" font-size="25px" fill="#FFFFFF">MERCURIAL</text>
	</g>
	</g>
	<g>
	</g>
	<g>
	</g>
	<g>
	</g>
</g>
</svg>
