<?xml version="1.0" encoding="utf-8"?>
<!-- Generator: Adobe Illustrator 16.0.0, SVG Export Plug-In . SVG Version: 6.00 Build 0)  -->
<!DOCTYPE svg PUBLIC "-//W3C//DTD SVG 1.1//EN" "http://www.w3.org/Graphics/SVG/1.1/DTD/svg11.dtd">
<svg version="1.1" xmlns="http://www.w3.org/2000/svg" xmlns:xlink="http://www.w3.org/1999/xlink" x="0px" y="0px" width="200px"
	 height="200px" viewBox="0 0 200 200" enable-background="new 0 0 200 200" xml:space="preserve">
<g id="Arriere-Plan">
	<rect fill="#FFFFFF" width="200" height="200"/>
</g>
<g id="Fond">
	<linearGradient id="SVGID_1_" gradientUnits="userSpaceOnUse" x1="-7.2217" y1="19.6768" x2="193.1594" y2="169.7889">
		<stop  offset="0" style="stop-color:#62B283"/>
		<stop  offset="0.1351" style="stop-color:#5FAA7C"/>
		<stop  offset="0.3166" style="stop-color:#589B6D"/>
		<stop  offset="0.5244" style="stop-color:#4C8256"/>
		<stop  offset="0.7519" style="stop-color:#3A633A"/>
		<stop  offset="0.9929" style="stop-color:#24411D"/>
		<stop  offset="1" style="stop-color:#23401C"/>
	</linearGradient>
	<rect x="4" y="4" fill="url(#SVGID_1_)" width="192" height="192"/>
</g>
<g id="Texte">
	<g>
		<path fill="#FFFFFF" d="M116.116,52.559h14.747v86.156h-15.801L84.201,77.277H83.99v61.438H69.244V52.559h16.642l30.02,59.997
			h0.21V52.559z"/>
	</g>
	<g>
		<path fill="#FFFFFF" d="M181.424,24.449h-5.581v-2.601h5.581V24.449z"/>
		<path fill="#FFFFFF" d="M186.223,20.528h0.441c0.84,0,2.38-0.08,2.38-1.92c0-0.52-0.24-1.82-1.78-1.82
			c-1.92,0-1.92,1.82-1.92,2.32h-2.602c0-2.661,1.5-4.561,4.701-4.561c1.9,0,4.401,0.96,4.401,3.961c0,1.44-0.9,2.34-1.7,2.701v0.04
			c0.5,0.14,2.141,0.88,2.141,3.301c0,2.68-1.98,4.581-4.842,4.581c-1.34,0-4.941-0.3-4.941-4.741h2.741l-0.021,0.02
			c0,0.76,0.201,2.48,2.081,2.48c1.12,0,2.101-0.76,2.101-2.34c0-1.94-1.881-2.021-3.182-2.021V20.528z"/>
	</g>
	<g>
		<path fill="#FFFFFF" d="M186.863,34.547c3.342,0,4.922,2.301,4.922,7.282s-1.58,7.301-4.922,7.301c-3.34,0-4.92-2.32-4.92-7.301
			S183.523,34.547,186.863,34.547z M186.863,46.89c1.602,0,2.041-1.4,2.041-5.061s-0.439-5.041-2.041-5.041
			c-1.6,0-2.04,1.38-2.04,5.041S185.264,46.89,186.863,46.89z"/>
	</g>
	<g>
		<path fill="#FFFFFF" d="M175.023,58.239h2.24v3.941h3.922v2.24h-3.922v3.941h-2.24V64.42h-3.92v-2.24h3.92V58.239z"/>
		<path fill="#FFFFFF" d="M182.663,59.179c0-4.621,3.381-5.021,4.642-5.021c2.72,0,4.881,1.601,4.881,4.481
			c0,2.44-1.58,3.681-2.961,4.621c-1.881,1.32-2.861,1.96-3.181,2.621h6.161v2.48h-9.702c0.101-1.66,0.22-3.401,3.301-5.641
			c2.561-1.86,3.581-2.581,3.581-4.181c0-0.94-0.601-2.021-1.961-2.021c-1.96,0-2.02,1.621-2.04,2.661H182.663z"/>
	</g>
	<g>
		<path fill="#FFFFFF" d="M175.023,78.362h2.24v3.941h3.922v2.24h-3.922v3.941h-2.24v-3.941h-3.92v-2.24h3.92V78.362z"/>
		<path fill="#FFFFFF" d="M186.244,80.263h0.439c0.84,0,2.381-0.08,2.381-1.92c0-0.52-0.24-1.82-1.78-1.82
			c-1.921,0-1.921,1.82-1.921,2.32h-2.6c0-2.661,1.5-4.561,4.7-4.561c1.9,0,4.401,0.96,4.401,3.961c0,1.44-0.9,2.34-1.701,2.701
			v0.04c0.5,0.14,2.141,0.88,2.141,3.301c0,2.68-1.98,4.581-4.841,4.581c-1.34,0-4.94-0.3-4.94-4.741h2.74l-0.02,0.02
			c0,0.76,0.199,2.48,2.08,2.48c1.12,0,2.1-0.76,2.1-2.34c0-1.94-1.88-2.021-3.18-2.021V80.263z"/>
	</g>
	<g>
		<path fill="#FFFFFF" d="M175.096,98.362h2.24v3.94h3.922v2.24h-3.922v3.941h-2.24v-3.941h-3.92v-2.24h3.92V98.362z"/>
		<path fill="#FFFFFF" d="M192.578,105.344h-1.581v3.141h-2.801v-3.141h-5.601v-2.42l5.221-8.643h3.181v8.882h1.581V105.344z
			 M188.196,103.163c0-3.44,0.06-5.661,0.06-6.101h-0.039l-3.561,6.101H188.196z"/>
	</g>
	<g>
		<path fill="#FFFFFF" d="M175.096,117.974h2.24v3.94h3.922v2.24h-3.922v3.941h-2.24v-3.941h-3.92v-2.24h3.92V117.974z"/>
		<path fill="#FFFFFF" d="M185.536,119.574c0.521-0.36,1.16-0.78,2.54-0.78c1.9,0,4.301,1.319,4.301,4.581
			c0,1.939-0.98,5.101-5.16,5.101c-2.221,0-4.481-1.32-4.621-4.181h2.801c0.119,1.16,0.74,1.94,1.98,1.94
			c1.34,0,2.119-1.14,2.119-2.661c0-1.26-0.6-2.54-2.08-2.54c-0.38,0-1.34,0.021-1.88,1.021l-2.501-0.12l0.98-7.802h7.802v2.36
			h-5.781L185.536,119.574z"/>
	</g>
	<g>
		<path fill="#FFFFFF" d="M13.935,17.741h0.351c2.369,0,3.001-1.4,3.054-2.46h2.018v14.203H16.9v-9.782h-2.965V17.741z"/>
		<path fill="#FFFFFF" d="M30.222,26.343h-1.386v3.141h-2.457v-3.141h-4.914v-2.42l4.58-8.642h2.79v8.882h1.386V26.343z
			 M26.379,24.163c0-3.44,0.053-5.661,0.053-6.101h-0.035l-3.124,6.101H26.379z"/>
		<path fill="#FFFFFF" d="M33.63,29.484h-2.632v-2.92h2.632V29.484z"/>
		<path fill="#FFFFFF" d="M38.756,15.281c2.93,0,4.316,2.301,4.316,7.282s-1.386,7.301-4.316,7.301c-2.931,0-4.317-2.32-4.317-7.301
			S35.826,15.281,38.756,15.281z M38.756,27.624c1.404,0,1.79-1.4,1.79-5.061s-0.386-5.041-1.79-5.041s-1.79,1.38-1.79,5.041
			S37.353,27.624,38.756,27.624z"/>
		<path fill="#FFFFFF" d="M48.341,15.281c2.93,0,4.316,2.301,4.316,7.282s-1.386,7.301-4.316,7.301c-2.931,0-4.317-2.32-4.317-7.301
			S45.411,15.281,48.341,15.281z M48.341,27.624c1.404,0,1.79-1.4,1.79-5.061s-0.386-5.041-1.79-5.041s-1.79,1.38-1.79,5.041
			S46.938,27.624,48.341,27.624z"/>
		<path fill="#FFFFFF" d="M58.786,18.882c-0.07-0.8-0.526-1.36-1.439-1.36c-1.597,0-1.965,2.08-2.053,3.921l0.035,0.04
			c0.333-0.52,0.948-1.18,2.334-1.18c2.58,0,3.808,2.261,3.808,4.381c0,3.101-1.667,5.181-4.071,5.181
			c-3.773,0-4.51-3.601-4.51-7.141c0-2.701,0.316-7.442,4.633-7.442c0.509,0,1.93,0.22,2.544,0.92c0.684,0.76,0.93,1.18,1.158,2.681
			H58.786z M57.224,22.542c-0.93,0-1.878,0.66-1.878,2.44c0,1.541,0.772,2.641,1.948,2.641c0.895,0,1.72-0.78,1.72-2.701
			C59.014,23.123,57.996,22.542,57.224,22.542z"/>
		<path fill="#FFFFFF" d="M70.494,17.681c-1.193,1.48-4.247,5.682-4.545,11.803h-2.527c0.263-5.681,3.387-10.202,4.439-11.482
			h-6.194l0.053-2.48h8.774V17.681z"/>
		<path fill="#FFFFFF" d="M78.025,26.343h-1.386v3.141h-2.457v-3.141h-4.914v-2.42l4.58-8.642h2.79v8.882h1.386V26.343z
			 M74.182,24.163c0-3.44,0.053-5.661,0.053-6.101H74.2l-3.124,6.101H74.182z"/>
	</g>
	<g>
	</g>
	<g>
	</g>

	<g>
		<text x="10" y="180" font-family="sans-serif" font-size="25px" fill="#FFFFFF">NGINX</text>
	</g>
	<g>
	</g>
	<g>
	</g>
	<g>
	</g>
</g>
</svg>
