<?xml version="1.0" encoding="utf-8"?>
<!-- Generator: Adobe Illustrator 16.0.0, SVG Export Plug-In . SVG Version: 6.00 Build 0)  -->
<!DOCTYPE svg PUBLIC "-//W3C//DTD SVG 1.1//EN" "http://www.w3.org/Graphics/SVG/1.1/DTD/svg11.dtd">
<svg version="1.1" xmlns="http://www.w3.org/2000/svg" xmlns:xlink="http://www.w3.org/1999/xlink" x="0px" y="0px" width="200px"
	 height="200px" viewBox="0 0 200 200" enable-background="new 0 0 200 200" xml:space="preserve">
<g id="Arriere-Plan">
	<rect fill="#FFFFFF" width="200" height="200"/>
</g>
<g id="Fond">
	<linearGradient id="SVGID_1_" gradientUnits="userSpaceOnUse" x1="-7.2217" y1="19.6768" x2="193.1594" y2="169.7889">
		<stop  offset="0" style="stop-color:#62B283"/>
		<stop  offset="0.1351" style="stop-color:#5FAA7C"/>
		<stop  offset="0.3166" style="stop-color:#589B6D"/>
		<stop  offset="0.5244" style="stop-color:#4C8256"/>
		<stop  offset="0.7519" style="stop-color:#3A633A"/>
		<stop  offset="0.9929" style="stop-color:#24411D"/>
		<stop  offset="1" style="stop-color:#23401C"/>
	</linearGradient>
	<rect x="4" y="4" fill="url(#SVGID_1_)" width="192" height="192"/>
</g>
<g id="Texte">
	<g>
		<path fill="#FFFFFF" d="M40.699,52.559h38.235c20.118,0,23.804,16.919,23.804,24.359c0,9.479-4.212,17.639-11.691,20.519
			c6.215,3.12,9.585,5.76,9.585,21.839c0,12.6,0,15.72,3.372,17.159v2.28H86.518c-1.053-4.08-1.685-8.52-1.685-17.399
			c0-11.76-0.632-16.319-12.324-16.319H56.183v33.719H40.699V52.559z M74.721,90.477c8.216,0,12.218-3.24,12.218-11.759
			c0-4.56-1.791-11.28-11.06-11.28H56.183v23.039H74.721z"/>
		<path fill="#FFFFFF" d="M160.986,126.235c0,7.56,1.475,9.239,3.266,9.96v2.52h-15.906c-0.842-3-1.053-3.96-1.369-7.56
			c-3.371,3.96-8.109,9.239-18.117,9.239c-8.426,0-17.063-5.399-17.063-18.599c0-12.479,6.951-18.84,16.326-20.399l13.271-2.28
			c2.316-0.36,5.162-1.439,5.162-5.04c0-7.08-5.9-7.44-9.691-7.44c-7.373,0-8.637,5.16-9.059,8.88h-14.219
			c1.684-19.559,13.586-22.319,25.068-22.319c7.9,0,22.33,2.76,22.33,18.479V126.235z M146.557,107.636
			c-1.477,1.32-3.898,2.4-10.008,3.48c-5.477,1.08-10.006,2.64-10.006,9.6c0,5.88,4.002,7.68,6.846,7.68
			c6.531,0,13.168-4.8,13.168-12.6V107.636z"/>
	</g>
	<g>
		<path fill="#FFFFFF" d="M175.023,18.628h2.24v3.941h3.922v2.24h-3.922v3.941h-2.24v-3.941h-3.92v-2.24h3.92V18.628z"/>
		<path fill="#FFFFFF" d="M182.663,19.568c0-4.621,3.381-5.021,4.642-5.021c2.72,0,4.881,1.601,4.881,4.481
			c0,2.44-1.58,3.681-2.961,4.621c-1.881,1.32-2.861,1.96-3.181,2.621h6.161v2.48h-9.702c0.101-1.66,0.22-3.401,3.301-5.641
			c2.561-1.86,3.581-2.581,3.581-4.181c0-0.94-0.601-2.021-1.961-2.021c-1.96,0-2.02,1.621-2.04,2.661H182.663z"/>
	</g>
	<g>
	</g>
	<g>
	</g>
	<g>
	</g>
	<g>
	</g>
	<g>
	</g>
	<g>
		<path fill="#FFFFFF" d="M13.32,20.302c0-4.621,2.965-5.021,4.071-5.021c2.387,0,4.282,1.601,4.282,4.481
			c0,2.44-1.386,3.681-2.597,4.621c-1.649,1.32-2.509,1.96-2.79,2.621h5.405v2.48H13.18c0.088-1.66,0.193-3.401,2.896-5.641
			c2.246-1.86,3.141-2.581,3.141-4.181c0-0.94-0.526-2.021-1.72-2.021c-1.72,0-1.772,1.621-1.79,2.661H13.32z"/>
		<path fill="#FFFFFF" d="M22.203,20.302c0-4.621,2.965-5.021,4.071-5.021c2.387,0,4.282,1.601,4.282,4.481
			c0,2.44-1.386,3.681-2.597,4.621c-1.649,1.32-2.509,1.96-2.79,2.621h5.405v2.48h-8.511c0.088-1.66,0.193-3.401,2.896-5.641
			c2.246-1.86,3.141-2.581,3.141-4.181c0-0.94-0.526-2.021-1.72-2.021c-1.72,0-1.772,1.621-1.79,2.661H22.203z"/>
		<path fill="#FFFFFF" d="M36.929,18.882c-0.07-0.8-0.526-1.36-1.439-1.36c-1.597,0-1.965,2.08-2.053,3.921l0.035,0.04
			c0.333-0.52,0.948-1.18,2.334-1.18c2.58,0,3.808,2.261,3.808,4.381c0,3.101-1.667,5.181-4.071,5.181
			c-3.773,0-4.51-3.601-4.51-7.141c0-2.701,0.316-7.442,4.633-7.442c0.509,0,1.93,0.22,2.544,0.92c0.684,0.76,0.93,1.18,1.158,2.681
			H36.929z M35.368,22.542c-0.93,0-1.878,0.66-1.878,2.44c0,1.541,0.772,2.641,1.948,2.641c0.895,0,1.72-0.78,1.72-2.701
			C37.157,23.123,36.14,22.542,35.368,22.542z"/>
		<path fill="#FFFFFF" d="M43.128,29.484h-2.632v-2.92h2.632V29.484z"/>
		<path fill="#FFFFFF" d="M48.253,15.281c2.93,0,4.316,2.301,4.316,7.282s-1.386,7.301-4.316,7.301c-2.931,0-4.317-2.32-4.317-7.301
			S45.323,15.281,48.253,15.281z M48.253,27.624c1.404,0,1.79-1.4,1.79-5.061s-0.386-5.041-1.79-5.041s-1.79,1.38-1.79,5.041
			S46.85,27.624,48.253,27.624z"/>
		<path fill="#FFFFFF" d="M52.854,20.302c0-4.621,2.965-5.021,4.071-5.021c2.387,0,4.282,1.601,4.282,4.481
			c0,2.44-1.386,3.681-2.597,4.621c-1.649,1.32-2.509,1.96-2.79,2.621h5.405v2.48h-8.511c0.088-1.66,0.193-3.401,2.896-5.641
			c2.246-1.86,3.141-2.581,3.141-4.181c0-0.94-0.526-2.021-1.72-2.021c-1.72,0-1.772,1.621-1.79,2.661H52.854z"/>
		<path fill="#FFFFFF" d="M64.194,20.962c0.456-0.36,1.018-0.78,2.229-0.78c1.667,0,3.773,1.32,3.773,4.581
			c0,1.94-0.86,5.101-4.527,5.101c-1.948,0-3.931-1.32-4.054-4.181h2.457c0.105,1.16,0.649,1.94,1.737,1.94
			c1.176,0,1.86-1.14,1.86-2.661c0-1.26-0.526-2.541-1.825-2.541c-0.333,0-1.176,0.02-1.649,1.02L62,23.323l0.86-7.802h6.843v2.36
			h-5.071L64.194,20.962z"/>
	</g>
	<g>
	</g>

	<g>
		<text x="10" y="180" font-family="sans-serif" font-size="25px" fill="#FFFFFF">ROCKETCHAT</text>
	</g>
	<g>
	</g>
	<g>
	</g>
	<g>
	</g>
	<g>
	</g>
</g>
</svg>
