<?xml version="1.0" encoding="utf-8"?>
<!-- Generator: Adobe Illustrator 16.0.0, SVG Export Plug-In . SVG Version: 6.00 Build 0)  -->
<!DOCTYPE svg PUBLIC "-//W3C//DTD SVG 1.1//EN" "http://www.w3.org/Graphics/SVG/1.1/DTD/svg11.dtd">
<svg version="1.1" xmlns="http://www.w3.org/2000/svg" xmlns:xlink="http://www.w3.org/1999/xlink" x="0px" y="0px" width="200px"
	 height="200px" viewBox="0 0 200 200" enable-background="new 0 0 200 200" xml:space="preserve">
<g id="Arriere-Plan">
	<rect fill="#FFFFFF" width="200" height="200"/>
</g>
<g id="Fond">
	<linearGradient id="SVGID_1_" gradientUnits="userSpaceOnUse" x1="-7.2217" y1="19.6768" x2="193.1594" y2="169.7889">
		<stop  offset="0" style="stop-color:#62B283"/>
		<stop  offset="0.1351" style="stop-color:#5FAA7C"/>
		<stop  offset="0.3166" style="stop-color:#589B6D"/>
		<stop  offset="0.5244" style="stop-color:#4C8256"/>
		<stop  offset="0.7519" style="stop-color:#3A633A"/>
		<stop  offset="0.9929" style="stop-color:#24411D"/>
		<stop  offset="1" style="stop-color:#23401C"/>
	</linearGradient>
	<rect x="4" y="4" fill="url(#SVGID_1_)" width="192" height="192"/>
</g>
<g id="Texte">
	<g>
		<path fill="#FFFFFF" d="M84.148,112.196c0.105,4.8,2.212,13.919,16.01,13.919c7.478,0,15.8-2.04,15.8-11.159
			c0-6.72-5.688-8.52-13.693-10.68l-8.111-2.16c-12.219-3.24-24.016-6.359-24.016-25.319c0-9.6,4.529-26.519,29.071-26.519
			c23.172,0,29.387,17.279,29.493,27.839h-15.168c-0.421-3.84-1.685-12.959-15.483-12.959c-6.004,0-13.166,2.52-13.166,10.32
			c0,6.72,4.845,8.16,8.005,9l18.434,5.16c10.322,2.88,19.803,7.68,19.803,23.159c0,25.919-23.174,28.199-29.81,28.199
			c-27.597,0-32.337-18.12-32.337-28.799H84.148z"/>
	</g>
	<g>
		<path fill="#FFFFFF" d="M181.424,24.449h-5.581v-2.601h5.581V24.449z"/>
		<path fill="#FFFFFF" d="M182.643,19.568c0-4.621,3.381-5.021,4.641-5.021c2.721,0,4.881,1.601,4.881,4.481
			c0,2.44-1.58,3.681-2.96,4.621c-1.88,1.32-2.86,1.96-3.181,2.621h6.161v2.48h-9.702c0.1-1.66,0.221-3.401,3.301-5.641
			c2.561-1.86,3.58-2.581,3.58-4.181c0-0.94-0.6-2.021-1.96-2.021c-1.96,0-2.021,1.621-2.04,2.661H182.643z"/>
	</g>
	<g>
		<path fill="#FFFFFF" d="M175.023,38.628h2.24v3.941h3.922v2.24h-3.922v3.941h-2.24v-3.941h-3.92v-2.24h3.92V38.628z"/>
		<path fill="#FFFFFF" d="M182.663,39.568c0-4.621,3.381-5.021,4.642-5.021c2.72,0,4.881,1.601,4.881,4.481
			c0,2.44-1.58,3.681-2.961,4.621c-1.881,1.32-2.861,1.96-3.181,2.621h6.161v2.48h-9.702c0.101-1.66,0.22-3.401,3.301-5.641
			c2.561-1.86,3.581-2.581,3.581-4.181c0-0.94-0.601-2.021-1.961-2.021c-1.96,0-2.02,1.621-2.04,2.661H182.663z"/>
	</g>
	<g>
		<path fill="#FFFFFF" d="M175.023,58.239h2.24v3.941h3.922v2.24h-3.922v3.941h-2.24V64.42h-3.92v-2.24h3.92V58.239z"/>
		<path fill="#FFFFFF" d="M192.506,65.221h-1.581v3.141h-2.801v-3.141h-5.601V62.8l5.221-8.642h3.181v8.882h1.581V65.221z
			 M188.124,63.04c0-3.44,0.06-5.661,0.06-6.101h-0.039l-3.561,6.101H188.124z"/>
	</g>
	<g>
		<path fill="#FFFFFF" d="M9.997,144.637h0.526c3.556,0,4.504-2.1,4.583-3.689h3.028v21.299h-3.687v-14.669H9.997V144.637z"/>
		<path fill="#FFFFFF" d="M31.565,146.347c-0.105-1.2-0.79-2.04-2.16-2.04c-2.396,0-2.95,3.12-3.081,5.88l0.052,0.061
			c0.5-0.78,1.422-1.771,3.503-1.771c3.872,0,5.715,3.39,5.715,6.569c0,4.65-2.502,7.771-6.11,7.771c-5.663,0-6.769-5.4-6.769-10.71
			c0-4.05,0.474-11.159,6.953-11.159c0.764,0,2.897,0.33,3.818,1.38c1.027,1.14,1.396,1.77,1.738,4.02H31.565z M29.221,151.837
			c-1.396,0-2.818,0.989-2.818,3.659c0,2.311,1.159,3.96,2.923,3.96c1.343,0,2.581-1.17,2.581-4.05
			C31.907,152.706,30.38,151.837,29.221,151.837z"/>
	</g>
	<g>
		<path fill="#FFFFFF" d="M175.023,78.362h2.24v3.941h3.922v2.24h-3.922v3.941h-2.24v-3.941h-3.92v-2.24h3.92V78.362z"/>
		<path fill="#FFFFFF" d="M189.324,77.882c-0.08-0.8-0.6-1.36-1.641-1.36c-1.82,0-2.24,2.08-2.34,3.921l0.04,0.04
			c0.38-0.52,1.08-1.18,2.661-1.18c2.939,0,4.34,2.261,4.34,4.381c0,3.101-1.9,5.181-4.641,5.181c-4.301,0-5.141-3.601-5.141-7.141
			c0-2.701,0.359-7.442,5.281-7.442c0.58,0,2.199,0.22,2.9,0.92c0.779,0.76,1.061,1.18,1.32,2.681H189.324z M187.544,81.543
			c-1.06,0-2.14,0.66-2.14,2.44c0,1.541,0.879,2.641,2.22,2.641c1.021,0,1.96-0.78,1.96-2.701
			C189.584,82.123,188.424,81.543,187.544,81.543z"/>
	</g>
	<g>
	</g>
	<g>
	</g>
	<g>
		<path fill="#FFFFFF" d="M16.461,21.262h0.386c0.737,0,2.088-0.08,2.088-1.92c0-0.52-0.21-1.82-1.562-1.82
			c-1.685,0-1.685,1.82-1.685,2.32h-2.281c0-2.661,1.316-4.561,4.124-4.561c1.667,0,3.86,0.96,3.86,3.961
			c0,1.44-0.79,2.34-1.492,2.701v0.04c0.439,0.14,1.878,0.88,1.878,3.301c0,2.68-1.737,4.581-4.247,4.581
			c-1.176,0-4.334-0.3-4.334-4.741h2.404l-0.018,0.02c0,0.76,0.175,2.48,1.825,2.48c0.983,0,1.843-0.76,1.843-2.34
			c0-1.94-1.649-2.021-2.79-2.021V21.262z"/>
		<path fill="#FFFFFF" d="M22.203,20.302c0-4.621,2.965-5.021,4.071-5.021c2.387,0,4.282,1.601,4.282,4.481
			c0,2.44-1.386,3.681-2.597,4.621c-1.649,1.32-2.509,1.96-2.79,2.621h5.405v2.48h-8.511c0.088-1.66,0.193-3.401,2.896-5.641
			c2.246-1.86,3.141-2.581,3.141-4.181c0-0.94-0.526-2.021-1.72-2.021c-1.72,0-1.772,1.621-1.79,2.661H22.203z"/>
		<path fill="#FFFFFF" d="M34.245,29.484h-2.632v-2.92h2.632V29.484z"/>
		<path fill="#FFFFFF" d="M39.371,15.281c2.93,0,4.316,2.301,4.316,7.282s-1.386,7.301-4.316,7.301c-2.931,0-4.317-2.32-4.317-7.301
			S36.44,15.281,39.371,15.281z M39.371,27.624c1.404,0,1.79-1.4,1.79-5.061s-0.386-5.041-1.79-5.041s-1.79,1.38-1.79,5.041
			S37.967,27.624,39.371,27.624z"/>
		<path fill="#FFFFFF" d="M49.815,18.882c-0.07-0.8-0.526-1.36-1.439-1.36c-1.597,0-1.965,2.08-2.053,3.921l0.035,0.04
			c0.333-0.52,0.948-1.18,2.334-1.18c2.58,0,3.808,2.261,3.808,4.381c0,3.101-1.667,5.181-4.071,5.181
			c-3.773,0-4.51-3.601-4.51-7.141c0-2.701,0.316-7.442,4.633-7.442c0.509,0,1.93,0.22,2.544,0.92c0.684,0.76,0.93,1.18,1.158,2.681
			H49.815z M48.253,22.542c-0.93,0-1.878,0.66-1.878,2.44c0,1.541,0.772,2.641,1.948,2.641c0.895,0,1.72-0.78,1.72-2.701
			C50.043,23.123,49.025,22.542,48.253,22.542z"/>
		<path fill="#FFFFFF" d="M58.698,18.882c-0.07-0.8-0.526-1.36-1.439-1.36c-1.597,0-1.965,2.08-2.053,3.921l0.035,0.04
			c0.333-0.52,0.948-1.18,2.334-1.18c2.58,0,3.808,2.261,3.808,4.381c0,3.101-1.667,5.181-4.071,5.181
			c-3.773,0-4.51-3.601-4.51-7.141c0-2.701,0.316-7.442,4.633-7.442c0.509,0,1.93,0.22,2.544,0.92c0.684,0.76,0.93,1.18,1.158,2.681
			H58.698z M57.136,22.542c-0.93,0-1.878,0.66-1.878,2.44c0,1.541,0.772,2.641,1.948,2.641c0.895,0,1.72-0.78,1.72-2.701
			C58.926,23.123,57.908,22.542,57.136,22.542z"/>
	</g>
	<g>
		<path fill="#FFFFFF" d="M10.127,175.113c0-4.851,3.115-5.271,4.276-5.271c2.507,0,4.497,1.68,4.497,4.703
			c0,2.562-1.456,3.863-2.728,4.851c-1.733,1.385-2.636,2.057-2.931,2.75h5.677v2.604H9.979c0.092-1.742,0.203-3.569,3.041-5.921
			c2.359-1.952,3.3-2.708,3.3-4.388c0-0.987-0.553-2.121-1.807-2.121c-1.807,0-1.862,1.701-1.88,2.793H10.127z"/>
		<path fill="#FFFFFF" d="M24.468,180.236h-5.143v-2.73h5.143V180.236z"/>
		<path fill="#FFFFFF" d="M29.168,185.148c-3.374,0-4.535-2.498-4.535-4.535c0-0.756,0-2.729,1.991-3.779
			c-1.032-0.588-1.585-1.532-1.585-2.918c0-2.541,1.788-4.073,4.073-4.073c2.71,0,4.147,1.827,4.147,3.884
			c0,1.281-0.461,2.373-1.512,3.003c1.254,0.714,1.954,1.659,1.954,3.591C33.702,182.209,32.633,185.148,29.168,185.148z
			 M29.131,178.115c-0.94,0-1.843,0.693-1.843,2.31c0,1.428,0.719,2.372,1.898,2.372c1.346,0,1.862-1.322,1.862-2.352
			C31.048,179.396,30.568,178.115,29.131,178.115z M30.79,174.042c0-1.134-0.682-1.848-1.512-1.848c-1.161,0-1.77,0.756-1.77,1.848
			c0,0.882,0.571,1.848,1.677,1.848C30.2,175.89,30.79,175.113,30.79,174.042z"/>
		<path fill="#FFFFFF" d="M39.011,180.236h-5.143v-2.73h5.143V180.236z"/>
		<path fill="#FFFFFF" d="M45.352,173.622c-0.074-0.84-0.553-1.428-1.511-1.428c-1.677,0-2.064,2.184-2.157,4.115l0.037,0.042
			c0.35-0.546,0.995-1.238,2.451-1.238c2.71,0,4,2.372,4,4.598c0,3.254-1.751,5.438-4.276,5.438c-3.963,0-4.737-3.779-4.737-7.495
			c0-2.835,0.332-7.811,4.866-7.811c0.535,0,2.028,0.231,2.673,0.966c0.719,0.798,0.977,1.238,1.217,2.813H45.352z M43.711,177.465
			c-0.977,0-1.972,0.692-1.972,2.561c0,1.617,0.811,2.771,2.046,2.771c0.94,0,1.806-0.818,1.806-2.834
			C45.591,178.073,44.522,177.465,43.711,177.465z"/>
	</g>
	<g>
	</g>
	<g>
	</g>
	<g>
	</g>
	<g>
	</g>
	<g>
	</g>
	<g>
	</g>
</g>
</svg>
