<?xml version="1.0" encoding="utf-8"?>
<!-- Generator: Adobe Illustrator 16.0.0, SVG Export Plug-In . SVG Version: 6.00 Build 0)  -->
<!DOCTYPE svg PUBLIC "-//W3C//DTD SVG 1.1//EN" "http://www.w3.org/Graphics/SVG/1.1/DTD/svg11.dtd">
<svg version="1.1" xmlns="http://www.w3.org/2000/svg" xmlns:xlink="http://www.w3.org/1999/xlink" x="0px" y="0px" width="200px"
	 height="200px" viewBox="0 0 200 200" enable-background="new 0 0 200 200" xml:space="preserve">
<g id="Arriere-Plan">
	<rect fill="#FFFFFF" width="200" height="200"/>
</g>
<g id="Fond">
	<linearGradient id="SVGID_1_" gradientUnits="userSpaceOnUse" x1="-7.2217" y1="19.6768" x2="193.1594" y2="169.7889">
		<stop  offset="0" style="stop-color:#62B283"/>
		<stop  offset="0.1351" style="stop-color:#5FAA7C"/>
		<stop  offset="0.3166" style="stop-color:#589B6D"/>
		<stop  offset="0.5244" style="stop-color:#4C8256"/>
		<stop  offset="0.7519" style="stop-color:#3A633A"/>
		<stop  offset="0.9929" style="stop-color:#24411D"/>
		<stop  offset="1" style="stop-color:#23401C"/>
	</linearGradient>
	<rect x="4" y="4" fill="url(#SVGID_1_)" width="192" height="192"/>
</g>
<g id="Texte">
	<g>
		<path fill="#FFFFFF" d="M51.971,112.196c0.105,4.8,2.212,13.919,16.01,13.919c7.479,0,15.8-2.04,15.8-11.159
			c0-6.72-5.688-8.52-13.693-10.68l-8.11-2.16c-12.219-3.24-24.016-6.359-24.016-25.319c0-9.6,4.529-26.519,29.071-26.519
			c23.173,0,29.388,17.279,29.493,27.839H81.358c-0.421-3.84-1.685-12.959-15.484-12.959c-6.004,0-13.166,2.52-13.166,10.32
			c0,6.72,4.845,8.16,8.005,9l18.433,5.16c10.322,2.88,19.803,7.68,19.803,23.159c0,25.919-23.173,28.199-29.809,28.199
			c-27.597,0-32.337-18.12-32.337-28.799H51.971z"/>
		<path fill="#FFFFFF" d="M160.461,138.715h-14.746V99.957c0-4.68-0.211-12.6-9.586-12.6c-6.531,0-11.586,5.04-11.586,14.759v36.599
			h-14.746V74.877h14.113v9.36h0.211c2.002-3.84,6.215-11.04,16.854-11.04c10.955,0,19.486,7.32,19.486,21.359V138.715z"/>
	</g>
	<g>
		<path fill="#FFFFFF" d="M186.863,14.547c3.342,0,4.922,2.301,4.922,7.282s-1.58,7.301-4.922,7.301c-3.34,0-4.92-2.32-4.92-7.301
			S183.523,14.547,186.863,14.547z M186.863,26.89c1.602,0,2.041-1.4,2.041-5.061s-0.439-5.041-2.041-5.041
			c-1.6,0-2.04,1.38-2.04,5.041S185.264,26.89,186.863,26.89z"/>
	</g>
	<g>
		<path fill="#FFFFFF" d="M175.023,38.628h2.24v3.941h3.922v2.24h-3.922v3.941h-2.24v-3.941h-3.92v-2.24h3.92V38.628z"/>
		<path fill="#FFFFFF" d="M182.663,39.568c0-4.621,3.381-5.021,4.642-5.021c2.72,0,4.881,1.601,4.881,4.481
			c0,2.44-1.58,3.681-2.961,4.621c-1.881,1.32-2.861,1.96-3.181,2.621h6.161v2.48h-9.702c0.101-1.66,0.22-3.401,3.301-5.641
			c2.561-1.86,3.581-2.581,3.581-4.181c0-0.94-0.601-2.021-1.961-2.021c-1.96,0-2.02,1.621-2.04,2.661H182.663z"/>
	</g>
	<g>
		<path fill="#FFFFFF" d="M175.023,58.239h2.24v3.941h3.922v2.24h-3.922v3.941h-2.24V64.42h-3.92v-2.24h3.92V58.239z"/>
		<path fill="#FFFFFF" d="M192.506,65.221h-1.581v3.141h-2.801v-3.141h-5.601V62.8l5.221-8.642h3.181v8.882h1.581V65.221z
			 M188.124,63.04c0-3.44,0.06-5.661,0.06-6.101h-0.039l-3.561,6.101H188.124z"/>
	</g>
	<g>
	</g>
	<g>
	</g>
	<g>
	</g>
	<g>
		<path fill="#FFFFFF" d="M13.935,17.741h0.351c2.369,0,3.001-1.4,3.054-2.46h2.018v14.203H16.9v-9.782h-2.965V17.741z"/>
		<path fill="#FFFFFF" d="M21.15,17.741H21.5c2.369,0,3.001-1.4,3.054-2.46h2.018v14.203h-2.457v-9.782H21.15V17.741z"/>
		<path fill="#FFFFFF" d="M33.086,29.864c-3.211,0-4.317-2.38-4.317-4.321c0-0.72,0-2.601,1.895-3.601
			c-0.982-0.56-1.509-1.46-1.509-2.781c0-2.42,1.702-3.881,3.878-3.881c2.58,0,3.948,1.74,3.948,3.701
			c0,1.22-0.439,2.261-1.439,2.861c1.193,0.68,1.86,1.58,1.86,3.421C37.402,27.063,36.385,29.864,33.086,29.864z M33.051,23.163
			c-0.895,0-1.755,0.66-1.755,2.2c0,1.36,0.685,2.261,1.808,2.261c1.281,0,1.772-1.26,1.772-2.241
			C34.875,24.383,34.419,23.163,33.051,23.163z M34.63,19.282c0-1.08-0.649-1.76-1.439-1.76c-1.105,0-1.685,0.72-1.685,1.76
			c0,0.84,0.544,1.76,1.597,1.76C34.068,21.042,34.63,20.302,34.63,19.282z"/>
		<path fill="#FFFFFF" d="M40.846,29.484h-2.632v-2.92h2.632V29.484z"/>
		<path fill="#FFFFFF" d="M50.358,17.681c-1.193,1.48-4.247,5.682-4.545,11.803h-2.527c0.263-5.681,3.387-10.202,4.439-11.482
			h-6.194l0.053-2.48h8.774V17.681z"/>
		<path fill="#FFFFFF" d="M51.187,17.741h0.351c2.369,0,3.001-1.4,3.054-2.46h2.018v14.203h-2.457v-9.782h-2.965V17.741z"/>
		<path fill="#FFFFFF" d="M62.772,15.281c2.93,0,4.316,2.301,4.316,7.282s-1.386,7.301-4.316,7.301c-2.931,0-4.317-2.32-4.317-7.301
			S59.841,15.281,62.772,15.281z M62.772,27.624c1.404,0,1.79-1.4,1.79-5.061s-0.386-5.041-1.79-5.041s-1.79,1.38-1.79,5.041
			S61.368,27.624,62.772,27.624z"/>
	</g>
	<g>
	</g>
	<g>
		<text x="10" y="180" font-family="sans-serif" font-size="25px" fill="#FFFFFF">SVN</text>
	</g>
	<g>
	</g>
	<g>
	</g>
	<g>
	</g>
	<g>
	</g>
</g>
</svg>
