<?xml version="1.0" encoding="utf-8"?>
<!-- Generator: Adobe Illustrator 16.0.0, SVG Export Plug-In . SVG Version: 6.00 Build 0)  -->
<!DOCTYPE svg PUBLIC "-//W3C//DTD SVG 1.1//EN" "http://www.w3.org/Graphics/SVG/1.1/DTD/svg11.dtd">
<svg version="1.1" xmlns="http://www.w3.org/2000/svg" xmlns:xlink="http://www.w3.org/1999/xlink" x="0px" y="0px" width="200px"
	 height="200px" viewBox="0 0 200 200" enable-background="new 0 0 200 200" xml:space="preserve">
<g id="Arriere-Plan">
	<rect fill="#FFFFFF" width="200" height="200"/>
</g>
<g id="Fond">
	<linearGradient id="SVGID_1_" gradientUnits="userSpaceOnUse" x1="-7.2217" y1="19.6768" x2="193.1594" y2="169.7889">
		<stop  offset="0" style="stop-color:#62B283"/>
		<stop  offset="0.1351" style="stop-color:#5FAA7C"/>
		<stop  offset="0.3166" style="stop-color:#589B6D"/>
		<stop  offset="0.5244" style="stop-color:#4C8256"/>
		<stop  offset="0.7519" style="stop-color:#3A633A"/>
		<stop  offset="0.9929" style="stop-color:#24411D"/>
		<stop  offset="1" style="stop-color:#23401C"/>
	</linearGradient>
	<rect x="4" y="4" fill="url(#SVGID_1_)" width="192" height="192"/>
</g>
<g id="Texte">
	<g>
		<path fill="#FFFFFF" d="M88.677,138.715H72.878V52.559h34.548c14.642,0,23.49,10.679,23.49,27.599
			c0,7.8-3.793,27.479-24.121,27.479H88.677V138.715z M103.318,92.757c11.797,0,11.797-9.6,11.797-13.439
			c0-8.4-4.107-11.88-13.903-11.88H88.677v25.319H103.318z"/>
	</g>
	<g>
		<path fill="#FFFFFF" d="M181.424,24.449h-5.581v-2.601h5.581V24.449z"/>
		<path fill="#FFFFFF" d="M186.223,20.528h0.441c0.84,0,2.38-0.08,2.38-1.92c0-0.52-0.24-1.82-1.78-1.82
			c-1.92,0-1.92,1.82-1.92,2.32h-2.602c0-2.661,1.5-4.561,4.701-4.561c1.9,0,4.401,0.96,4.401,3.961c0,1.44-0.9,2.34-1.7,2.701v0.04
			c0.5,0.14,2.141,0.88,2.141,3.301c0,2.68-1.98,4.581-4.842,4.581c-1.34,0-4.941-0.3-4.941-4.741h2.741l-0.021,0.02
			c0,0.76,0.201,2.48,2.081,2.48c1.12,0,2.101-0.76,2.101-2.34c0-1.94-1.881-2.021-3.182-2.021V20.528z"/>
	</g>
	<g>
		<path fill="#FFFFFF" d="M175.023,38.628h2.24v3.941h3.922v2.24h-3.922v3.941h-2.24v-3.941h-3.92v-2.24h3.92V38.628z"/>
		<path fill="#FFFFFF" d="M186.244,40.528h0.439c0.84,0,2.381-0.08,2.381-1.92c0-0.52-0.24-1.82-1.78-1.82
			c-1.921,0-1.921,1.82-1.921,2.32h-2.6c0-2.661,1.5-4.561,4.7-4.561c1.9,0,4.401,0.96,4.401,3.961c0,1.44-0.9,2.34-1.701,2.701
			v0.04c0.5,0.14,2.141,0.88,2.141,3.301c0,2.68-1.98,4.581-4.841,4.581c-1.34,0-4.94-0.3-4.94-4.741h2.74l-0.02,0.02
			c0,0.76,0.199,2.48,2.08,2.48c1.12,0,2.1-0.76,2.1-2.34c0-1.94-1.88-2.021-3.18-2.021V40.528z"/>
	</g>
	<g>
		<path fill="#FFFFFF" d="M175.023,58.239h2.24v3.941h3.922v2.24h-3.922v3.941h-2.24V64.42h-3.92v-2.24h3.92V58.239z"/>
		<path fill="#FFFFFF" d="M185.464,59.839c0.521-0.36,1.16-0.78,2.54-0.78c1.9,0,4.301,1.32,4.301,4.581
			c0,1.94-0.98,5.101-5.16,5.101c-2.221,0-4.481-1.32-4.621-4.181h2.801c0.119,1.16,0.74,1.94,1.98,1.94
			c1.34,0,2.119-1.14,2.119-2.661c0-1.26-0.6-2.541-2.08-2.541c-0.38,0-1.34,0.02-1.88,1.02l-2.501-0.12l0.98-7.802h7.802v2.36
			h-5.781L185.464,59.839z"/>
	</g>
	<g>
		<path fill="#FFFFFF" d="M175.023,78.362h2.24v3.941h3.922v2.24h-3.922v3.941h-2.24v-3.941h-3.92v-2.24h3.92V78.362z"/>
		<path fill="#FFFFFF" d="M192.506,85.344h-1.581v3.141h-2.801v-3.141h-5.601v-2.42l5.221-8.642h3.181v8.882h1.581V85.344z
			 M188.124,83.163c0-3.44,0.06-5.661,0.06-6.101h-0.039l-3.561,6.101H188.124z"/>
	</g>
	<g>
	</g>
	<g>
	</g>
	<g>
		<path fill="#FFFFFF" d="M16.461,21.262h0.386c0.737,0,2.088-0.08,2.088-1.92c0-0.52-0.21-1.82-1.562-1.82
			c-1.685,0-1.685,1.82-1.685,2.32h-2.281c0-2.661,1.316-4.561,4.124-4.561c1.667,0,3.86,0.96,3.86,3.961
			c0,1.44-0.79,2.34-1.492,2.701v0.04c0.439,0.14,1.878,0.88,1.878,3.301c0,2.68-1.737,4.581-4.247,4.581
			c-1.176,0-4.334-0.3-4.334-4.741h2.404l-0.018,0.02c0,0.76,0.175,2.48,1.825,2.48c0.983,0,1.843-0.76,1.843-2.34
			c0-1.94-1.649-2.021-2.79-2.021V21.262z"/>
		<path fill="#FFFFFF" d="M26.485,15.281c2.93,0,4.316,2.301,4.316,7.282s-1.386,7.301-4.316,7.301c-2.931,0-4.317-2.32-4.317-7.301
			S23.554,15.281,26.485,15.281z M26.485,27.624c1.404,0,1.79-1.4,1.79-5.061s-0.386-5.041-1.79-5.041s-1.79,1.38-1.79,5.041
			S25.081,27.624,26.485,27.624z"/>
		<path fill="#FFFFFF" d="M34.245,29.484h-2.632v-2.92h2.632V29.484z"/>
		<path fill="#FFFFFF" d="M37.704,26.203v0.02c0.14,0.98,0.684,1.4,1.438,1.4c1.018,0,2.036-0.98,2.053-3.961l-0.035-0.04
			c-0.562,0.96-1.526,1.2-2.369,1.2c-2.387,0-3.773-2.061-3.773-4.441c0-3.48,1.808-5.101,4.247-5.101
			c4.317,0,4.387,5.301,4.387,7.302c0,5.501-2.281,7.281-4.527,7.281c-2.123,0-3.649-1.4-3.86-3.661H37.704z M39.318,22.583
			c0.86,0,1.807-0.7,1.807-2.381c0-1.62-0.614-2.62-1.877-2.62c-0.632,0-1.772,0.36-1.772,2.4
			C37.475,22.123,38.388,22.583,39.318,22.583z"/>
		<path fill="#FFFFFF" d="M52.64,17.681c-1.193,1.48-4.247,5.682-4.545,11.803h-2.527c0.263-5.681,3.387-10.202,4.439-11.482h-6.194
			l0.053-2.48h8.774V17.681z"/>
		<path fill="#FFFFFF" d="M55.996,21.262h0.386c0.737,0,2.088-0.08,2.088-1.92c0-0.52-0.21-1.82-1.562-1.82
			c-1.685,0-1.685,1.82-1.685,2.32h-2.281c0-2.661,1.316-4.561,4.124-4.561c1.667,0,3.86,0.96,3.86,3.961
			c0,1.44-0.79,2.34-1.492,2.701v0.04c0.439,0.14,1.878,0.88,1.878,3.301c0,2.68-1.737,4.581-4.247,4.581
			c-1.176,0-4.334-0.3-4.334-4.741h2.404l-0.018,0.02c0,0.76,0.175,2.48,1.825,2.48c0.983,0,1.843-0.76,1.843-2.34
			c0-1.94-1.649-2.021-2.79-2.021V21.262z"/>
		<path fill="#FFFFFF" d="M70.406,17.681c-1.193,1.48-4.247,5.682-4.545,11.803h-2.527c0.263-5.681,3.387-10.202,4.439-11.482
			h-6.194l0.053-2.48h8.774V17.681z"/>
		<path fill="#FFFFFF" d="M75.762,18.882c-0.07-0.8-0.526-1.36-1.439-1.36c-1.597,0-1.965,2.08-2.053,3.921l0.035,0.04
			c0.333-0.52,0.948-1.18,2.334-1.18c2.58,0,3.808,2.261,3.808,4.381c0,3.101-1.667,5.181-4.071,5.181
			c-3.773,0-4.51-3.601-4.51-7.141c0-2.701,0.316-7.442,4.633-7.442c0.509,0,1.93,0.22,2.544,0.92c0.685,0.76,0.93,1.18,1.158,2.681
			H75.762z M74.2,22.542c-0.93,0-1.878,0.66-1.878,2.44c0,1.541,0.772,2.641,1.948,2.641c0.895,0,1.72-0.78,1.72-2.701
			C75.99,23.123,74.972,22.542,74.2,22.542z"/>
		<path fill="#FFFFFF" d="M78.801,20.302c0-4.621,2.965-5.021,4.071-5.021c2.387,0,4.282,1.601,4.282,4.481
			c0,2.44-1.386,3.681-2.597,4.621c-1.649,1.32-2.509,1.96-2.79,2.621h5.405v2.48h-8.511c0.088-1.66,0.193-3.401,2.896-5.641
			c2.246-1.86,3.141-2.581,3.141-4.181c0-0.94-0.526-2.021-1.72-2.021c-1.72,0-1.772,1.621-1.79,2.661H78.801z"/>
	</g>
	<g>
	</g>
	<g>
		<text x="10" y="180" font-family="sans-serif" font-size="25px" fill="#FFFFFF">SYNOPIA</text>
	</g>
	<g>
	</g>
	<g>
	</g>
	<g>
	</g>
	<g>
	</g>
</g>
</svg>
