<?xml version="1.0" encoding="utf-8"?>
<!-- Generator: Adobe Illustrator 16.0.0, SVG Export Plug-In . SVG Version: 6.00 Build 0)  -->
<!DOCTYPE svg PUBLIC "-//W3C//DTD SVG 1.1//EN" "http://www.w3.org/Graphics/SVG/1.1/DTD/svg11.dtd">
<svg version="1.1" xmlns="http://www.w3.org/2000/svg" xmlns:xlink="http://www.w3.org/1999/xlink" x="0px" y="0px" width="200px"
	 height="200px" viewBox="0 0 200 200" enable-background="new 0 0 200 200" xml:space="preserve">
<g id="Arriere-Plan">
	<rect fill="#FFFFFF" width="200" height="200"/>
</g>
<g id="Fond">
	<linearGradient id="SVGID_1_" gradientUnits="userSpaceOnUse" x1="-7.2217" y1="19.6768" x2="193.1594" y2="169.7889">
		<stop  offset="0" style="stop-color:#62B283"/>
		<stop  offset="0.1351" style="stop-color:#5FAA7C"/>
		<stop  offset="0.3166" style="stop-color:#589B6D"/>
		<stop  offset="0.5244" style="stop-color:#4C8256"/>
		<stop  offset="0.7519" style="stop-color:#3A633A"/>
		<stop  offset="0.9929" style="stop-color:#24411D"/>
		<stop  offset="1" style="stop-color:#23401C"/>
	</linearGradient>
	<rect x="4" y="4" fill="url(#SVGID_1_)" width="192" height="192"/>
</g>
<g id="Texte">
	<g>
		<path fill="#FFFFFF" d="M81.831,138.715h-15.8V67.798H43.174V52.559h61.513v15.239H81.831V138.715z"/>
		<path fill="#FFFFFF" d="M154.721,119.996c-3.898,15.359-15.063,20.398-24.648,20.398c-15.799,0-27.912-8.64-27.912-34.918
			c0-7.68,2.316-32.279,26.859-32.279c11.059,0,26.332,6,26.332,35.159v2.999h-38.445c0.422,4.801,1.264,15.6,13.166,15.6
			c4.107,0,8.32-2.399,9.48-6.959H154.721z M140.184,100.437c-0.842-10.32-6.635-13.439-11.375-13.439
			c-6.953,0-10.639,5.04-11.48,13.439H140.184z"/>
	</g>
	<g>
		<path fill="#FFFFFF" d="M181.424,24.449h-5.581v-2.601h5.581V24.449z"/>
		<path fill="#FFFFFF" d="M182.643,19.568c0-4.621,3.381-5.021,4.641-5.021c2.721,0,4.881,1.601,4.881,4.481
			c0,2.44-1.58,3.681-2.96,4.621c-1.88,1.32-2.86,1.96-3.181,2.621h6.161v2.48h-9.702c0.1-1.66,0.221-3.401,3.301-5.641
			c2.561-1.86,3.58-2.581,3.58-4.181c0-0.94-0.6-2.021-1.96-2.021c-1.96,0-2.021,1.621-2.04,2.661H182.643z"/>
	</g>
	<g>
		<path fill="#FFFFFF" d="M175.023,38.628h2.24v3.941h3.922v2.24h-3.922v3.941h-2.24v-3.941h-3.92v-2.24h3.92V38.628z"/>
		<path fill="#FFFFFF" d="M182.663,39.568c0-4.621,3.381-5.021,4.642-5.021c2.72,0,4.881,1.601,4.881,4.481
			c0,2.44-1.58,3.681-2.961,4.621c-1.881,1.32-2.861,1.96-3.181,2.621h6.161v2.48h-9.702c0.101-1.66,0.22-3.401,3.301-5.641
			c2.561-1.86,3.581-2.581,3.581-4.181c0-0.94-0.601-2.021-1.961-2.021c-1.96,0-2.02,1.621-2.04,2.661H182.663z"/>
	</g>
	<g>
		<path fill="#FFFFFF" d="M175.023,58.239h2.24v3.941h3.922v2.24h-3.922v3.941h-2.24V64.42h-3.92v-2.24h3.92V58.239z"/>
		<path fill="#FFFFFF" d="M192.506,65.221h-1.581v3.141h-2.801v-3.141h-5.601V62.8l5.221-8.642h3.181v8.882h1.581V65.221z
			 M188.124,63.04c0-3.44,0.06-5.661,0.06-6.101h-0.039l-3.561,6.101H188.124z"/>
	</g>
	<g>
		<path fill="#FFFFFF" d="M175.023,78.362h2.24v3.941h3.922v2.24h-3.922v3.941h-2.24v-3.941h-3.92v-2.24h3.92V78.362z"/>
		<path fill="#FFFFFF" d="M189.324,77.882c-0.08-0.8-0.6-1.36-1.641-1.36c-1.82,0-2.24,2.08-2.34,3.921l0.04,0.04
			c0.38-0.52,1.08-1.18,2.661-1.18c2.939,0,4.34,2.261,4.34,4.381c0,3.101-1.9,5.181-4.641,5.181c-4.301,0-5.141-3.601-5.141-7.141
			c0-2.701,0.359-7.442,5.281-7.442c0.58,0,2.199,0.22,2.9,0.92c0.779,0.76,1.061,1.18,1.32,2.681H189.324z M187.544,81.543
			c-1.06,0-2.14,0.66-2.14,2.44c0,1.541,0.879,2.641,2.22,2.641c1.021,0,1.96-0.78,1.96-2.701
			C189.584,82.123,188.424,81.543,187.544,81.543z"/>
	</g>
	<g>
	</g>
	<g>
	</g>
	<g>
		<path fill="#FFFFFF" d="M13.935,17.741h0.351c2.369,0,3.001-1.4,3.054-2.46h2.018v14.203H16.9v-9.782h-2.965V17.741z"/>
		<path fill="#FFFFFF" d="M21.589,20.302c0-4.621,2.965-5.021,4.071-5.021c2.387,0,4.282,1.601,4.282,4.481
			c0,2.44-1.386,3.681-2.597,4.621c-1.649,1.32-2.509,1.96-2.79,2.621h5.405v2.48h-8.511c0.088-1.66,0.193-3.401,2.896-5.641
			c2.246-1.86,3.141-2.581,3.141-4.181c0-0.94-0.526-2.021-1.72-2.021c-1.72,0-1.772,1.621-1.79,2.661H21.589z"/>
		<path fill="#FFFFFF" d="M39.14,17.681c-1.193,1.48-4.247,5.682-4.545,11.803h-2.527c0.263-5.681,3.387-10.202,4.439-11.482h-6.194
			l0.053-2.48h8.774V17.681z"/>
		<path fill="#FFFFFF" d="M39.178,29.484h-2.632v-2.92h2.632V29.484z"/>
		<path fill="#FFFFFF" d="M45.865,18.882c-0.07-0.8-0.526-1.36-1.439-1.36c-1.597,0-1.965,2.08-2.053,3.921l0.035,0.04
			c0.333-0.52,0.948-1.18,2.334-1.18c2.58,0,3.808,2.261,3.808,4.381c0,3.101-1.667,5.181-4.071,5.181
			c-3.773,0-4.51-3.601-4.51-7.141c0-2.701,0.316-7.442,4.633-7.442c0.509,0,1.93,0.22,2.544,0.92c0.685,0.76,0.93,1.18,1.158,2.681
			H45.865z M44.304,22.542c-0.93,0-1.878,0.66-1.878,2.44c0,1.541,0.772,2.641,1.948,2.641c0.895,0,1.72-0.78,1.72-2.701
			C46.093,23.123,45.076,22.542,44.304,22.542z"/>
		<path fill="#FFFFFF" d="M53.187,15.281c2.93,0,4.316,2.301,4.316,7.282s-1.386,7.301-4.316,7.301c-2.931,0-4.317-2.32-4.317-7.301
			S50.256,15.281,53.187,15.281z M53.187,27.624c1.404,0,1.79-1.4,1.79-5.061s-0.386-5.041-1.79-5.041s-1.79,1.38-1.79,5.041
			S51.783,27.624,53.187,27.624z"/>
	</g>
	<g>
	</g>
	<g>
	</g>
	<g>
		<text x="10" y="180" font-family="sans-serif" font-size="25px" fill="#FFFFFF">TEAMSCALE</text>
	</g>
	<g>
	</g>
	<g>
	</g>
	<g>
	</g>
</g>
</svg>
