<?xml version="1.0" encoding="utf-8"?>
<!-- Generator: Adobe Illustrator 16.0.0, SVG Export Plug-In . SVG Version: 6.00 Build 0)  -->
<!DOCTYPE svg PUBLIC "-//W3C//DTD SVG 1.1//EN" "http://www.w3.org/Graphics/SVG/1.1/DTD/svg11.dtd">
<svg version="1.1" xmlns="http://www.w3.org/2000/svg" xmlns:xlink="http://www.w3.org/1999/xlink" x="0px" y="0px" width="200px"
	 height="200px" viewBox="0 0 200 200" enable-background="new 0 0 200 200" xml:space="preserve">
<g id="Arriere-Plan">
	<rect fill="#FFFFFF" width="200" height="200"/>
</g>
<g id="Fond">
	<linearGradient id="SVGID_1_" gradientUnits="userSpaceOnUse" x1="-7.2217" y1="19.6768" x2="193.1594" y2="169.7889">
		<stop  offset="0" style="stop-color:#62B283"/>
		<stop  offset="0.1351" style="stop-color:#5FAA7C"/>
		<stop  offset="0.3166" style="stop-color:#589B6D"/>
		<stop  offset="0.5244" style="stop-color:#4C8256"/>
		<stop  offset="0.7519" style="stop-color:#3A633A"/>
		<stop  offset="0.9929" style="stop-color:#24411D"/>
		<stop  offset="1" style="stop-color:#23401C"/>
	</linearGradient>
	<rect x="4" y="4" fill="url(#SVGID_1_)" width="192" height="192"/>
</g>
<g id="Texte">
	<g>
		<path fill="#FFFFFF" d="M78.671,138.715h-15.8V67.798H40.014V52.559h61.513v15.239H78.671V138.715z"/>
		<path fill="#FFFFFF" d="M157.984,115.436c-0.527,6.6-5.057,24.959-25.596,24.959c-21.066,0-25.912-18.359-25.912-31.799
			c0-20.639,7.9-35.398,26.859-35.398c8.85,0,23.385,4.56,24.754,24.479h-14.957c-0.633-4.08-2.738-10.32-9.059-10.32h-0.738
			c-9.268,0-11.691,10.56-11.691,18.479c0,6.96,0.211,20.76,11.377,20.76c7.479,0,10.006-8.16,10.006-11.16H157.984z"/>
	</g>
	<g>
		<path fill="#FFFFFF" d="M175.023,18.628h2.24v3.941h3.922v2.24h-3.922v3.941h-2.24v-3.941h-3.92v-2.24h3.92V18.628z"/>
		<path fill="#FFFFFF" d="M192.545,16.947c-1.359,1.48-4.841,5.682-5.181,11.803h-2.881c0.3-5.681,3.86-10.202,5.062-11.482h-7.063
			l0.061-2.48h10.002V16.947z"/>
	</g>
	<g>
	</g>
	<g>
	</g>
	<g>
		<path fill="#FFFFFF" d="M22.033,157.536h-2.081v4.71h-3.687v-4.71H8.891v-3.63l6.874-12.959h4.188v13.319h2.081V157.536z
			 M16.265,154.267c0-5.16,0.079-8.49,0.079-9.149h-0.053l-4.688,9.149H16.265z"/>
		<path fill="#FFFFFF" d="M28.431,149.917h0.579c1.106,0,3.134-0.12,3.134-2.88c0-0.78-0.316-2.73-2.344-2.73
			c-2.528,0-2.528,2.73-2.528,3.48h-3.423c0-3.99,1.975-6.84,6.189-6.84c2.502,0,5.794,1.439,5.794,5.939
			c0,2.16-1.185,3.51-2.239,4.05v0.06c0.659,0.21,2.818,1.32,2.818,4.95c0,4.02-2.607,6.87-6.374,6.87
			c-1.765,0-6.505-0.45-6.505-7.11h3.608l-0.026,0.03c0,1.14,0.263,3.72,2.739,3.72c1.475,0,2.766-1.14,2.766-3.51
			c0-2.91-2.476-3.03-4.188-3.03V149.917z"/>
	</g>
	<g>
	</g>
	<g>
	</g>
	<g>
	</g>
	<g>
		<path fill="#FFFFFF" d="M15.935,26.203v0.02c0.14,0.98,0.684,1.4,1.438,1.4c1.018,0,2.036-0.98,2.053-3.961l-0.035-0.04
			c-0.562,0.96-1.526,1.2-2.369,1.2c-2.387,0-3.773-2.061-3.773-4.441c0-3.48,1.808-5.101,4.247-5.101
			c4.317,0,4.387,5.301,4.387,7.302c0,5.501-2.281,7.281-4.527,7.281c-2.123,0-3.649-1.4-3.86-3.661H15.935z M17.549,22.583
			c0.86,0,1.807-0.7,1.807-2.381c0-1.62-0.614-2.62-1.877-2.62c-0.632,0-1.772,0.36-1.772,2.4
			C15.707,22.123,16.619,22.583,17.549,22.583z"/>
		<path fill="#FFFFFF" d="M26.485,29.864c-3.211,0-4.317-2.38-4.317-4.321c0-0.72,0-2.601,1.895-3.601
			c-0.982-0.56-1.509-1.46-1.509-2.781c0-2.42,1.702-3.881,3.878-3.881c2.58,0,3.948,1.74,3.948,3.701
			c0,1.22-0.439,2.261-1.439,2.861c1.193,0.68,1.86,1.58,1.86,3.421C30.801,27.063,29.784,29.864,26.485,29.864z M26.45,23.163
			c-0.895,0-1.755,0.66-1.755,2.2c0,1.36,0.685,2.261,1.808,2.261c1.281,0,1.772-1.26,1.772-2.241
			C28.274,24.383,27.818,23.163,26.45,23.163z M28.029,19.282c0-1.08-0.649-1.76-1.439-1.76c-1.105,0-1.685,0.72-1.685,1.76
			c0,0.84,0.544,1.76,1.597,1.76C27.467,21.042,28.029,20.302,28.029,19.282z"/>
	</g>
	<g>
		<path fill="#FFFFFF" d="M10.127,175.113c0-4.851,3.115-5.271,4.276-5.271c2.507,0,4.497,1.68,4.497,4.703
			c0,2.562-1.456,3.863-2.728,4.851c-1.733,1.385-2.636,2.057-2.931,2.75h5.677v2.604H9.979c0.092-1.742,0.203-3.569,3.041-5.921
			c2.359-1.952,3.3-2.708,3.3-4.388c0-0.987-0.553-2.121-1.807-2.121c-1.807,0-1.862,1.701-1.88,2.793H10.127z"/>
		<path fill="#FFFFFF" d="M24.468,180.236h-5.143v-2.73h5.143V180.236z"/>
		<path fill="#FFFFFF" d="M29.168,185.148c-3.374,0-4.535-2.498-4.535-4.535c0-0.756,0-2.729,1.991-3.779
			c-1.032-0.588-1.585-1.532-1.585-2.918c0-2.541,1.788-4.073,4.073-4.073c2.71,0,4.147,1.827,4.147,3.884
			c0,1.281-0.461,2.373-1.512,3.003c1.254,0.714,1.954,1.659,1.954,3.591C33.702,182.209,32.633,185.148,29.168,185.148z
			 M29.131,178.115c-0.94,0-1.843,0.693-1.843,2.31c0,1.428,0.719,2.372,1.898,2.372c1.346,0,1.862-1.322,1.862-2.352
			C31.048,179.396,30.568,178.115,29.131,178.115z M30.79,174.042c0-1.134-0.682-1.848-1.512-1.848c-1.161,0-1.77,0.756-1.77,1.848
			c0,0.882,0.571,1.848,1.677,1.848C30.2,175.89,30.79,175.113,30.79,174.042z"/>
		<path fill="#FFFFFF" d="M39.011,180.236h-5.143v-2.73h5.143V180.236z"/>
		<path fill="#FFFFFF" d="M39.859,172.426h0.369c2.488,0,3.152-1.471,3.207-2.583h2.12v14.907h-2.581v-10.268h-3.115V172.426z"/>
		<path fill="#FFFFFF" d="M52.394,185.148c-3.374,0-4.535-2.498-4.535-4.535c0-0.756,0-2.729,1.991-3.779
			c-1.032-0.588-1.585-1.532-1.585-2.918c0-2.541,1.788-4.073,4.073-4.073c2.71,0,4.147,1.827,4.147,3.884
			c0,1.281-0.461,2.373-1.512,3.003c1.254,0.714,1.954,1.659,1.954,3.591C56.928,182.209,55.858,185.148,52.394,185.148z
			 M52.356,178.115c-0.94,0-1.843,0.693-1.843,2.31c0,1.428,0.719,2.372,1.898,2.372c1.346,0,1.862-1.322,1.862-2.352
			C54.273,179.396,53.794,178.115,52.356,178.115z M54.016,174.042c0-1.134-0.682-1.848-1.512-1.848c-1.161,0-1.77,0.756-1.77,1.848
			c0,0.882,0.571,1.848,1.677,1.848C53.426,175.89,54.016,175.113,54.016,174.042z"/>
		<path fill="#FFFFFF" d="M62.236,180.236h-5.143v-2.73h5.143V180.236z"/>
		<path fill="#FFFFFF" d="M63.084,172.426h0.369c2.488,0,3.152-1.471,3.207-2.583h2.12v14.907h-2.581v-10.268h-3.115V172.426z"/>
		<path fill="#FFFFFF" d="M80.19,181.453h-1.457v3.297h-2.581v-3.297h-5.161v-2.54l4.811-9.07h2.931v9.322h1.457V181.453z
			 M76.153,179.165c0-3.611,0.056-5.942,0.056-6.403h-0.037l-3.281,6.403H76.153z"/>
		<path fill="#FFFFFF" d="M85.462,180.236h-5.143v-2.73h5.143V180.236z"/>
		<path fill="#FFFFFF" d="M86.31,172.426h0.369c2.488,0,3.152-1.471,3.207-2.583h2.12v14.907h-2.581v-10.268H86.31V172.426z"/>
	</g>
	<g>
	</g>
	<g>
	</g>
	<g>
	</g>
	<g>
	</g>
	<g>
	</g>
	<g>
	</g>
</g>
</svg>
